G04 Layer_Color=16711935*
%FSLAX25Y25*%
%MOIN*%
G70*
G01*
G75*
%ADD39R,0.03937X0.02756*%
%ADD45R,0.02756X0.03937*%
%ADD47C,0.07287*%
%ADD48C,0.08661*%
%ADD49C,0.14567*%
%ADD50C,0.07480*%
%ADD51C,0.03543*%
%ADD52R,0.10787X0.11287*%
%ADD53R,0.05787X0.03787*%
D39*
X413500Y280047D02*
D03*
Y285953D02*
D03*
D45*
X369953Y225000D02*
D03*
X364047D02*
D03*
X411047Y246000D02*
D03*
X416953D02*
D03*
X381453Y302500D02*
D03*
X375547D02*
D03*
X384453Y279000D02*
D03*
X378547D02*
D03*
X383953Y250500D02*
D03*
X378047D02*
D03*
X383953Y260000D02*
D03*
X378047D02*
D03*
X383953Y270000D02*
D03*
X378047D02*
D03*
X384453Y241500D02*
D03*
X378547D02*
D03*
D47*
X428000Y327500D02*
D03*
Y317500D02*
D03*
X438000D02*
D03*
Y327500D02*
D03*
X458000D02*
D03*
Y317500D02*
D03*
X448000D02*
D03*
Y327500D02*
D03*
X488000D02*
D03*
Y317500D02*
D03*
X498000D02*
D03*
Y327500D02*
D03*
X478000D02*
D03*
Y317500D02*
D03*
X468000D02*
D03*
Y327500D02*
D03*
X518000D02*
D03*
Y317500D02*
D03*
X508000D02*
D03*
Y327500D02*
D03*
D48*
X342500Y256394D02*
D03*
Y275606D02*
D03*
X493500Y229500D02*
D03*
X503500D02*
D03*
X513500D02*
D03*
D49*
X521319Y266689D02*
D03*
D50*
X504311D02*
D03*
Y278500D02*
D03*
Y254878D02*
D03*
X492500D02*
D03*
Y266689D02*
D03*
Y278500D02*
D03*
D51*
X436500Y211500D02*
D03*
X430500Y217000D02*
D03*
X411000Y258000D02*
D03*
X370000Y237000D02*
D03*
X485000Y280500D02*
D03*
X470500Y263000D02*
D03*
X455000Y264000D02*
D03*
X405000Y268000D02*
D03*
X374500Y286000D02*
D03*
X364000Y292000D02*
D03*
X473000Y282000D02*
D03*
X448500Y301500D02*
D03*
X352000Y279000D02*
D03*
X402000Y286000D02*
D03*
X400000Y325000D02*
D03*
X395000Y319500D02*
D03*
X378000Y255000D02*
D03*
X388500Y269000D02*
D03*
X389000Y261500D02*
D03*
X388500Y243500D02*
D03*
X486500Y261000D02*
D03*
X487000Y272500D02*
D03*
X501500Y283500D02*
D03*
X499500Y297500D02*
D03*
X470500Y236000D02*
D03*
X470000Y252500D02*
D03*
X462500Y257000D02*
D03*
X440500Y230000D02*
D03*
Y237500D02*
D03*
X434000Y223000D02*
D03*
X432500Y233500D02*
D03*
X457045Y214006D02*
D03*
X342500Y216500D02*
D03*
X361000Y280500D02*
D03*
X347500Y296500D02*
D03*
X377500Y325500D02*
D03*
X362000Y315000D02*
D03*
X406500Y215000D02*
D03*
Y223000D02*
D03*
X350000Y230500D02*
D03*
X357500Y251500D02*
D03*
X373500Y273000D02*
D03*
X380500Y283000D02*
D03*
X511500Y285500D02*
D03*
X519500Y292500D02*
D03*
X506500Y301500D02*
D03*
X493000Y293500D02*
D03*
X460000Y289500D02*
D03*
X448500Y274500D02*
D03*
X451500Y306000D02*
D03*
X433500Y290000D02*
D03*
X427000Y293000D02*
D03*
X437500Y306000D02*
D03*
X408500Y305500D02*
D03*
X416000Y315000D02*
D03*
X406500Y319000D02*
D03*
X401000Y311000D02*
D03*
X437150Y252500D02*
D03*
X444500Y255500D02*
D03*
X370500Y304500D02*
D03*
X375500Y227000D02*
D03*
X365500Y309500D02*
D03*
X397000Y306500D02*
D03*
X365000Y299500D02*
D03*
X420000Y277000D02*
D03*
X359000Y284000D02*
D03*
X374500Y263500D02*
D03*
X419000Y241500D02*
D03*
X374500Y249500D02*
D03*
Y277000D02*
D03*
Y269000D02*
D03*
X374000Y242500D02*
D03*
X374500Y258000D02*
D03*
X418000Y286500D02*
D03*
D52*
X474500Y216250D02*
D03*
X532000Y217000D02*
D03*
D53*
X474500Y225500D02*
D03*
X532000Y226250D02*
D03*
M02*
