G04 Layer_Physical_Order=1*
G04 Layer_Color=255*
%FSLAX25Y25*%
%MOIN*%
G70*
G01*
G75*
%ADD10O,0.08268X0.01181*%
%ADD11O,0.01181X0.08268*%
%ADD12O,0.05905X0.02362*%
%ADD13R,0.03150X0.01968*%
%ADD14R,0.03150X0.03150*%
%ADD15R,0.01378X0.04134*%
%ADD16R,0.01181X0.02953*%
%ADD17R,0.05512X0.06102*%
%ADD18R,0.02362X0.03937*%
%ADD19R,0.01968X0.03150*%
%ADD20R,0.04724X0.03543*%
%ADD21C,0.00984*%
%ADD22C,0.01000*%
%ADD23C,0.01500*%
%ADD24C,0.03937*%
%ADD25C,0.01575*%
%ADD26C,0.02362*%
%ADD27C,0.06500*%
%ADD28C,0.07874*%
%ADD29C,0.13780*%
%ADD30C,0.06693*%
%ADD31C,0.02756*%
G36*
X541296Y207204D02*
X331704Y207204D01*
Y344296D01*
X335086D01*
X335484Y343796D01*
Y337949D01*
X335675Y337490D01*
X336134Y337299D01*
X341646D01*
X342105Y337490D01*
X342295Y337949D01*
Y344051D01*
X342459Y344296D01*
X353196D01*
X353595Y343796D01*
Y337949D01*
X353785Y337490D01*
X354244Y337299D01*
X359756D01*
X360215Y337490D01*
X360405Y337949D01*
Y344051D01*
X360569Y344296D01*
X541296Y344296D01*
X541296Y207204D01*
D02*
G37*
%LPC*%
G36*
X504311Y258858D02*
X503281Y258723D01*
X502321Y258325D01*
X501496Y257693D01*
X500864Y256868D01*
X500466Y255908D01*
X500330Y254878D01*
X500466Y253848D01*
X500864Y252888D01*
X501496Y252063D01*
X502321Y251431D01*
X503281Y251033D01*
X504311Y250898D01*
X505341Y251033D01*
X506301Y251431D01*
X507126Y252063D01*
X507758Y252888D01*
X508156Y253848D01*
X508291Y254878D01*
X508156Y255908D01*
X507758Y256868D01*
X507126Y257693D01*
X506301Y258325D01*
X505341Y258723D01*
X504311Y258858D01*
D02*
G37*
G36*
X492500D02*
X491470Y258723D01*
X490510Y258325D01*
X489685Y257693D01*
X489053Y256868D01*
X488655Y255908D01*
X488519Y254878D01*
X488655Y253848D01*
X489053Y252888D01*
X489685Y252063D01*
X490510Y251431D01*
X491470Y251033D01*
X492500Y250898D01*
X493530Y251033D01*
X494490Y251431D01*
X495315Y252063D01*
X495947Y252888D01*
X496345Y253848D01*
X496481Y254878D01*
X496345Y255908D01*
X495947Y256868D01*
X495315Y257693D01*
X494490Y258325D01*
X493530Y258723D01*
X492500Y258858D01*
D02*
G37*
G36*
X357000Y255547D02*
X354922D01*
Y255063D01*
X354998Y254679D01*
X355216Y254353D01*
X355541Y254136D01*
X355925Y254060D01*
X357000D01*
Y255547D01*
D02*
G37*
G36*
X359075Y258035D02*
X358000D01*
Y256547D01*
X360078D01*
Y257031D01*
X360002Y257416D01*
X359784Y257741D01*
X359459Y257959D01*
X359075Y258035D01*
D02*
G37*
G36*
X360078Y255547D02*
X358000D01*
Y254060D01*
X359075D01*
X359459Y254136D01*
X359784Y254353D01*
X360002Y254679D01*
X360078Y255063D01*
Y255547D01*
D02*
G37*
G36*
X473575Y243035D02*
X472500D01*
Y241547D01*
X474578D01*
Y242032D01*
X474502Y242415D01*
X474284Y242741D01*
X473959Y242959D01*
X473575Y243035D01*
D02*
G37*
G36*
X471500D02*
X470425D01*
X470041Y242959D01*
X469716Y242741D01*
X469498Y242415D01*
X469422Y242032D01*
Y241547D01*
X471500D01*
Y243035D01*
D02*
G37*
G36*
X446000Y244035D02*
X444925D01*
X444541Y243959D01*
X444216Y243741D01*
X443998Y243415D01*
X443922Y243032D01*
Y242547D01*
X446000D01*
Y244035D01*
D02*
G37*
G36*
X464921Y250531D02*
X462559D01*
X462100Y250341D01*
X461910Y249882D01*
Y245945D01*
X462100Y245486D01*
X462559Y245295D01*
X464921D01*
X465380Y245486D01*
X465571Y245945D01*
Y246800D01*
X469776D01*
Y245969D01*
X469966Y245509D01*
X470425Y245319D01*
X473575D01*
X474034Y245509D01*
X474224Y245969D01*
Y247937D01*
X474034Y248396D01*
X473575Y248587D01*
X471941D01*
X471827Y248701D01*
X471465Y248942D01*
X471039Y249027D01*
X465571D01*
Y249882D01*
X465380Y250341D01*
X464921Y250531D01*
D02*
G37*
G36*
X448075Y244035D02*
X447000D01*
Y242547D01*
X449078D01*
Y243032D01*
X449002Y243415D01*
X448784Y243741D01*
X448459Y243959D01*
X448075Y244035D01*
D02*
G37*
G36*
X479500Y258839D02*
X477422D01*
Y257764D01*
X477498Y257380D01*
X477716Y257054D01*
X478041Y256837D01*
X478425Y256760D01*
X479500D01*
Y258839D01*
D02*
G37*
G36*
X503811Y270991D02*
X503181Y270908D01*
X502127Y270472D01*
X501222Y269778D01*
X500528Y268873D01*
X500092Y267819D01*
X500009Y267189D01*
X503811D01*
Y270991D01*
D02*
G37*
G36*
X464402Y271816D02*
X460858D01*
X460163Y271678D01*
X459574Y271284D01*
X459180Y270695D01*
X459042Y270000D01*
X459180Y269305D01*
X459574Y268716D01*
X460163Y268322D01*
X460858Y268184D01*
X464402D01*
X465097Y268322D01*
X465686Y268716D01*
X465800Y268886D01*
X467261D01*
X467388Y268760D01*
X467749Y268518D01*
X468175Y268434D01*
X468329D01*
X468466Y268104D01*
X468925Y267914D01*
X472075D01*
X472534Y268104D01*
X472671Y268434D01*
X475667D01*
X476888Y267213D01*
X477249Y266971D01*
X477675Y266886D01*
X477776Y266425D01*
X477966Y265966D01*
X478425Y265776D01*
X481575D01*
X482034Y265966D01*
X482224Y266425D01*
Y266886D01*
X488346D01*
X488519Y266689D01*
X488655Y265659D01*
X489053Y264699D01*
X489685Y263874D01*
X490510Y263242D01*
X491470Y262844D01*
X492500Y262708D01*
X493530Y262844D01*
X494490Y263242D01*
X495315Y263874D01*
X495947Y264699D01*
X496345Y265659D01*
X496481Y266689D01*
X496345Y267719D01*
X495947Y268679D01*
X495315Y269504D01*
X494490Y270136D01*
X493530Y270534D01*
X492500Y270670D01*
X491470Y270534D01*
X490510Y270136D01*
X489685Y269504D01*
X489386Y269113D01*
X482224D01*
Y269575D01*
X482034Y270034D01*
X481575Y270224D01*
X478425D01*
X477966Y270034D01*
X477953Y270004D01*
X477364Y269886D01*
X476915Y270335D01*
X476554Y270576D01*
X476128Y270661D01*
X472671D01*
X472534Y270991D01*
X472075Y271181D01*
X468925D01*
X468466Y270991D01*
X468287Y270936D01*
X468149Y271029D01*
X467722Y271113D01*
X465800D01*
X465686Y271284D01*
X465097Y271678D01*
X464402Y271816D01*
D02*
G37*
G36*
X504311Y282481D02*
X503281Y282345D01*
X502321Y281947D01*
X501496Y281315D01*
X500864Y280490D01*
X500466Y279530D01*
X500330Y278500D01*
X500466Y277470D01*
X500864Y276510D01*
X501496Y275685D01*
X502321Y275053D01*
X503281Y274655D01*
X504311Y274519D01*
X504591Y274556D01*
X507909Y271238D01*
Y269891D01*
X507436Y269731D01*
X507400Y269778D01*
X506495Y270472D01*
X505442Y270908D01*
X504811Y270991D01*
Y266689D01*
Y262387D01*
X505442Y262470D01*
X506495Y262906D01*
X507400Y263600D01*
X507436Y263647D01*
X507909Y263487D01*
Y262000D01*
X507998Y261330D01*
X508256Y260705D01*
X508668Y260168D01*
X510909Y257927D01*
Y233231D01*
X510264Y232736D01*
X509537Y231788D01*
X509080Y230684D01*
X508966Y229824D01*
X508946Y229668D01*
X508442D01*
X508421Y229824D01*
X508295Y230785D01*
X507799Y231982D01*
X507010Y233010D01*
X505982Y233799D01*
X504785Y234295D01*
X504000Y234398D01*
Y229500D01*
Y224602D01*
X504785Y224705D01*
X505982Y225201D01*
X507010Y225990D01*
X507799Y227018D01*
X508295Y228215D01*
X508421Y229176D01*
X508442Y229332D01*
X508946D01*
X508966Y229176D01*
X509080Y228316D01*
X509537Y227212D01*
X510264Y226264D01*
X511212Y225537D01*
X512316Y225080D01*
X513500Y224924D01*
X514684Y225080D01*
X515788Y225537D01*
X516736Y226264D01*
X517463Y227212D01*
X517920Y228316D01*
X518076Y229500D01*
X517920Y230684D01*
X517463Y231788D01*
X516736Y232736D01*
X516091Y233231D01*
Y259000D01*
X516002Y259670D01*
X515744Y260295D01*
X515332Y260832D01*
X513091Y263073D01*
Y272311D01*
X513002Y272982D01*
X512744Y273606D01*
X512332Y274143D01*
X508255Y278220D01*
X508291Y278500D01*
X508156Y279530D01*
X507758Y280490D01*
X507126Y281315D01*
X506301Y281947D01*
X505341Y282345D01*
X504311Y282481D01*
D02*
G37*
G36*
X360078Y273953D02*
X358000D01*
Y272465D01*
X359075D01*
X359459Y272541D01*
X359784Y272759D01*
X360002Y273084D01*
X360078Y273468D01*
Y273953D01*
D02*
G37*
G36*
X370622Y288836D02*
X363535D01*
X363071Y288743D01*
X362677Y288480D01*
X362414Y288087D01*
X362322Y287622D01*
X362414Y287158D01*
X362516Y287005D01*
X362636Y286638D01*
X362516Y286270D01*
X362414Y286118D01*
X362322Y285653D01*
X362414Y285189D01*
X362677Y284795D01*
Y284543D01*
X362414Y284150D01*
X362322Y283685D01*
X362414Y283221D01*
X362677Y282827D01*
Y282575D01*
X362414Y282181D01*
X362322Y281716D01*
X362414Y281252D01*
X362516Y281100D01*
X362636Y280732D01*
X362516Y280365D01*
X362414Y280213D01*
X362322Y279748D01*
X362414Y279283D01*
X362677Y278890D01*
Y278638D01*
X362414Y278244D01*
X362322Y277780D01*
X362414Y277315D01*
X362516Y277163D01*
X362636Y276795D01*
X362516Y276428D01*
X362414Y276276D01*
X362322Y275811D01*
X362414Y275346D01*
X362677Y274953D01*
Y274701D01*
X362414Y274307D01*
X362322Y273843D01*
X362414Y273378D01*
X362677Y272984D01*
Y272732D01*
X362414Y272339D01*
X362322Y271874D01*
X362414Y271410D01*
X362580Y271161D01*
X362400Y271041D01*
X362052Y270520D01*
X362029Y270406D01*
X367079D01*
Y269406D01*
X362029D01*
X362052Y269291D01*
X362400Y268770D01*
X362580Y268650D01*
X362414Y268402D01*
X362322Y267937D01*
X362392Y267582D01*
X362119Y267082D01*
X361493D01*
X359724Y268850D01*
Y269531D01*
X359534Y269991D01*
X359075Y270181D01*
X357441D01*
X355603Y272019D01*
X355849Y272480D01*
X355925Y272465D01*
X357000D01*
Y273953D01*
X354922D01*
Y273468D01*
X354937Y273392D01*
X354476Y273146D01*
X351228Y276394D01*
X350867Y276635D01*
X350441Y276720D01*
X346930D01*
X346920Y276791D01*
X346463Y277894D01*
X345736Y278842D01*
X344788Y279569D01*
X343684Y280027D01*
X342500Y280183D01*
X341316Y280027D01*
X340212Y279569D01*
X339264Y278842D01*
X338537Y277894D01*
X338080Y276791D01*
X337924Y275606D01*
X338080Y274422D01*
X338537Y273318D01*
X339264Y272371D01*
X340212Y271643D01*
X341316Y271186D01*
X342500Y271030D01*
X343684Y271186D01*
X344788Y271643D01*
X345736Y272371D01*
X346463Y273318D01*
X346920Y274422D01*
X346930Y274493D01*
X349980D01*
X355276Y269197D01*
Y267563D01*
X355466Y267104D01*
X355925Y266914D01*
X358512D01*
X360244Y265181D01*
X360337Y265119D01*
X360429Y264505D01*
X360428Y264503D01*
X359384Y263458D01*
X359075Y263586D01*
X355925D01*
X355466Y263396D01*
X355276Y262937D01*
Y261303D01*
X351480Y257507D01*
X346930D01*
X346920Y257578D01*
X346463Y258682D01*
X345736Y259630D01*
X344788Y260357D01*
X343684Y260814D01*
X342500Y260970D01*
X341316Y260814D01*
X340212Y260357D01*
X339264Y259630D01*
X338537Y258682D01*
X338080Y257578D01*
X337924Y256394D01*
X338080Y255209D01*
X338537Y254106D01*
X339264Y253158D01*
X340212Y252431D01*
X341316Y251974D01*
X342500Y251817D01*
X343684Y251974D01*
X344788Y252431D01*
X345736Y253158D01*
X346463Y254106D01*
X346920Y255209D01*
X346930Y255280D01*
X351941D01*
X352367Y255365D01*
X352728Y255606D01*
X354476Y257354D01*
X354937Y257108D01*
X354922Y257031D01*
Y256547D01*
X357000D01*
Y258035D01*
X355925D01*
X355849Y258020D01*
X355603Y258481D01*
X357441Y260319D01*
X359075D01*
X359534Y260509D01*
X359690Y260887D01*
X359879Y260924D01*
X360240Y261165D01*
X361695Y262620D01*
X361967Y262581D01*
X362327Y262058D01*
X362322Y262032D01*
X362414Y261567D01*
X362516Y261415D01*
X362636Y261047D01*
X362516Y260680D01*
X362414Y260527D01*
X362322Y260063D01*
X362414Y259598D01*
X362677Y259205D01*
Y258953D01*
X362414Y258559D01*
X362322Y258095D01*
X362414Y257630D01*
X362516Y257478D01*
X362636Y257110D01*
X362516Y256743D01*
X362414Y256591D01*
X362322Y256126D01*
X362414Y255662D01*
X362516Y255509D01*
X362636Y255142D01*
X362516Y254774D01*
X362414Y254622D01*
X362322Y254157D01*
X362414Y253693D01*
X362677Y253299D01*
Y253047D01*
X362414Y252654D01*
X362322Y252189D01*
X362414Y251724D01*
X362580Y251476D01*
X362400Y251356D01*
X362052Y250835D01*
X362029Y250721D01*
X367079D01*
Y249721D01*
X362029D01*
X362052Y249606D01*
X362400Y249085D01*
X362580Y248965D01*
X362414Y248716D01*
X362322Y248252D01*
X362414Y247787D01*
X362516Y247635D01*
X362636Y247268D01*
X362516Y246900D01*
X362414Y246748D01*
X362322Y246284D01*
X362414Y245819D01*
X362677Y245425D01*
Y245173D01*
X362414Y244779D01*
X362322Y244315D01*
X362414Y243850D01*
X362677Y243457D01*
Y243205D01*
X362414Y242811D01*
X362322Y242347D01*
X362414Y241882D01*
X362516Y241730D01*
X362636Y241362D01*
X362516Y240995D01*
X362414Y240843D01*
X362322Y240378D01*
X362414Y239913D01*
X362677Y239520D01*
X363071Y239257D01*
X363535Y239164D01*
X370622D01*
X371087Y239257D01*
X371480Y239520D01*
X371743Y239913D01*
X371836Y240378D01*
X371743Y240843D01*
X371642Y240995D01*
X371559Y241248D01*
X371727Y241546D01*
X372267Y241533D01*
X372574Y241074D01*
X373228Y240637D01*
X374000Y240483D01*
X374772Y240637D01*
X375426Y241074D01*
X375863Y241728D01*
X376017Y242500D01*
X375863Y243272D01*
X375426Y243926D01*
X374944Y244248D01*
X374793Y244474D01*
X374793Y244474D01*
X372317Y246951D01*
X372259Y247268D01*
X372317Y247585D01*
X372830Y248098D01*
X373074Y248074D01*
X373728Y247637D01*
X374500Y247483D01*
X375272Y247637D01*
X375926Y248074D01*
X376363Y248728D01*
X376517Y249500D01*
X376363Y250272D01*
X375926Y250926D01*
X375272Y251363D01*
X374500Y251517D01*
X374089Y251435D01*
X373842Y251896D01*
X375473Y253527D01*
X375772Y253973D01*
X375876Y254500D01*
X375876Y254500D01*
Y256541D01*
X375926Y256574D01*
X376363Y257228D01*
X376517Y258000D01*
X376363Y258772D01*
X375926Y259426D01*
X375272Y259863D01*
X374500Y260017D01*
X373728Y259863D01*
X373074Y259426D01*
X372637Y258772D01*
X372483Y258000D01*
X372637Y257228D01*
X373074Y256574D01*
X373124Y256541D01*
Y255070D01*
X372323Y254270D01*
X371781Y254434D01*
X371743Y254622D01*
X371642Y254774D01*
X371522Y255142D01*
X371642Y255509D01*
X371743Y255662D01*
X371836Y256126D01*
X371743Y256591D01*
X371642Y256743D01*
X371522Y257110D01*
X371642Y257478D01*
X371743Y257630D01*
X371836Y258095D01*
X371743Y258559D01*
X371480Y258953D01*
Y259205D01*
X371743Y259598D01*
X371836Y260063D01*
X371765Y260418D01*
X371964Y260791D01*
X372078Y260927D01*
X372458Y261003D01*
X372819Y261244D01*
X373418Y261844D01*
X373728Y261637D01*
X374500Y261483D01*
X375272Y261637D01*
X375926Y262074D01*
X376363Y262728D01*
X376517Y263500D01*
X376363Y264272D01*
X375926Y264926D01*
X375272Y265363D01*
X374500Y265517D01*
X373728Y265363D01*
X373074Y264926D01*
X372637Y264272D01*
X372633Y264251D01*
X372262Y263968D01*
X371805Y264156D01*
X371743Y264464D01*
X371480Y264858D01*
Y265110D01*
X371743Y265504D01*
X371836Y265968D01*
X371743Y266433D01*
X371842Y266671D01*
X371953Y266693D01*
X372399Y266992D01*
X372686Y267278D01*
X373074Y267574D01*
X373728Y267137D01*
X374500Y266983D01*
X375272Y267137D01*
X375926Y267574D01*
X376363Y268228D01*
X376517Y269000D01*
X376363Y269772D01*
X375926Y270426D01*
X375272Y270863D01*
X374500Y271017D01*
X373728Y270863D01*
X373074Y270426D01*
X373041Y270376D01*
X372461D01*
X372461Y270376D01*
X372353Y270355D01*
X372106Y270520D01*
X371757Y271041D01*
X371578Y271161D01*
X371743Y271410D01*
X371836Y271874D01*
X371743Y272339D01*
X371480Y272732D01*
Y272984D01*
X371743Y273378D01*
X371836Y273843D01*
X371743Y274307D01*
X371480Y274701D01*
Y274953D01*
X371743Y275346D01*
X371836Y275811D01*
X372289Y276009D01*
X372520Y276034D01*
X372527Y276027D01*
X372969Y275731D01*
X373074Y275574D01*
X373728Y275137D01*
X374500Y274983D01*
X375272Y275137D01*
X375926Y275574D01*
X376363Y276228D01*
X376517Y277000D01*
X376363Y277772D01*
X375926Y278426D01*
X375272Y278863D01*
X374500Y279017D01*
X373728Y278863D01*
X373622Y278792D01*
X373275Y279023D01*
X372748Y279128D01*
X372195D01*
X371812Y279628D01*
X371836Y279748D01*
X371743Y280213D01*
X371642Y280365D01*
X371522Y280732D01*
X371642Y281100D01*
X371743Y281252D01*
X371836Y281716D01*
X371743Y282181D01*
X371480Y282575D01*
Y282827D01*
X371743Y283221D01*
X371836Y283685D01*
X371743Y284150D01*
X371480Y284543D01*
Y284795D01*
X371743Y285189D01*
X371836Y285653D01*
X371743Y286118D01*
X371642Y286270D01*
X371522Y286638D01*
X371642Y287005D01*
X371743Y287158D01*
X371836Y287622D01*
X371743Y288087D01*
X371480Y288480D01*
X371087Y288743D01*
X370622Y288836D01*
D02*
G37*
G36*
X521319Y274215D02*
X519851Y274070D01*
X518439Y273642D01*
X517138Y272947D01*
X515997Y272011D01*
X515061Y270870D01*
X514366Y269569D01*
X513938Y268157D01*
X513793Y266689D01*
X513938Y265221D01*
X514366Y263809D01*
X515061Y262508D01*
X515997Y261367D01*
X517138Y260431D01*
X518439Y259736D01*
X519851Y259308D01*
X521319Y259163D01*
X522787Y259308D01*
X524199Y259736D01*
X525500Y260431D01*
X526641Y261367D01*
X527576Y262508D01*
X528272Y263809D01*
X528700Y265221D01*
X528845Y266689D01*
X528700Y268157D01*
X528272Y269569D01*
X527576Y270870D01*
X526641Y272011D01*
X525500Y272947D01*
X524199Y273642D01*
X522787Y274070D01*
X521319Y274215D01*
D02*
G37*
G36*
X482578Y258839D02*
X480500D01*
Y256760D01*
X481575D01*
X481959Y256837D01*
X482284Y257054D01*
X482502Y257380D01*
X482578Y257764D01*
Y258839D01*
D02*
G37*
G36*
X479500Y261917D02*
X478425D01*
X478041Y261841D01*
X477716Y261623D01*
X477498Y261297D01*
X477422Y260913D01*
Y259839D01*
X479500D01*
Y261917D01*
D02*
G37*
G36*
X503811Y266189D02*
X500009D01*
X500092Y265558D01*
X500528Y264505D01*
X501222Y263600D01*
X502127Y262906D01*
X503181Y262470D01*
X503811Y262387D01*
Y266189D01*
D02*
G37*
G36*
X481575Y261917D02*
X480500D01*
Y259839D01*
X482578D01*
Y260913D01*
X482502Y261297D01*
X482284Y261623D01*
X481959Y261841D01*
X481575Y261917D01*
D02*
G37*
G36*
X449078Y241547D02*
X447000D01*
Y240059D01*
X448075D01*
X448459Y240136D01*
X448784Y240353D01*
X449002Y240679D01*
X449078Y241063D01*
Y241547D01*
D02*
G37*
G36*
X339575Y218441D02*
X338500D01*
Y216953D01*
X340578D01*
Y217437D01*
X340502Y217821D01*
X340284Y218147D01*
X339959Y218364D01*
X339575Y218441D01*
D02*
G37*
G36*
X337500D02*
X336425D01*
X336041Y218364D01*
X335716Y218147D01*
X335498Y217821D01*
X335422Y217437D01*
Y216953D01*
X337500D01*
Y218441D01*
D02*
G37*
G36*
X420500Y220535D02*
X419425D01*
X419041Y220459D01*
X418716Y220241D01*
X418498Y219916D01*
X418422Y219531D01*
Y219047D01*
X420500D01*
Y220535D01*
D02*
G37*
G36*
X461953Y225000D02*
X460465D01*
Y223925D01*
X460541Y223541D01*
X460759Y223216D01*
X461085Y222998D01*
X461469Y222922D01*
X461953D01*
Y225000D01*
D02*
G37*
G36*
X422575Y220535D02*
X421500D01*
Y219047D01*
X423578D01*
Y219531D01*
X423502Y219916D01*
X423284Y220241D01*
X422959Y220459D01*
X422575Y220535D01*
D02*
G37*
G36*
X337500Y215953D02*
X335422D01*
Y215469D01*
X335498Y215085D01*
X335716Y214759D01*
X336041Y214541D01*
X336425Y214465D01*
X337500D01*
Y215953D01*
D02*
G37*
G36*
X339575Y212181D02*
X336425D01*
X335966Y211991D01*
X335776Y211531D01*
Y209563D01*
X335966Y209104D01*
X336425Y208913D01*
X339575D01*
X340034Y209104D01*
X340166Y209422D01*
X344644D01*
X344781Y209092D01*
X345240Y208902D01*
X348390D01*
X348849Y209092D01*
X349039Y209551D01*
Y211520D01*
X348849Y211979D01*
X348390Y212169D01*
X345240D01*
X344781Y211979D01*
X344644Y211649D01*
X340176D01*
X340034Y211991D01*
X339575Y212181D01*
D02*
G37*
G36*
X340578Y215953D02*
X338500D01*
Y214465D01*
X339575D01*
X339959Y214541D01*
X340284Y214759D01*
X340502Y215085D01*
X340578Y215469D01*
Y215953D01*
D02*
G37*
G36*
X423578Y218047D02*
X421500D01*
Y216560D01*
X422575D01*
X422959Y216636D01*
X423284Y216853D01*
X423502Y217179D01*
X423578Y217563D01*
Y218047D01*
D02*
G37*
G36*
X420500D02*
X418422D01*
Y217563D01*
X418498Y217179D01*
X418716Y216853D01*
X419041Y216636D01*
X419425Y216560D01*
X420500D01*
Y218047D01*
D02*
G37*
G36*
X464440Y225000D02*
X462953D01*
Y222922D01*
X463437D01*
X463821Y222998D01*
X464147Y223216D01*
X464364Y223541D01*
X464440Y223925D01*
Y225000D01*
D02*
G37*
G36*
X419000Y243517D02*
X418228Y243363D01*
X417574Y242926D01*
X417137Y242272D01*
X416983Y241500D01*
X417137Y240728D01*
X417574Y240074D01*
X417624Y240041D01*
Y240020D01*
X417728Y239493D01*
X417919Y239207D01*
X417803Y238707D01*
X417381Y238589D01*
X417150Y238743D01*
X416685Y238836D01*
X416221Y238743D01*
X415827Y238480D01*
X415575D01*
X415181Y238743D01*
X414716Y238836D01*
X414252Y238743D01*
X413858Y238480D01*
X413606D01*
X413213Y238743D01*
X412748Y238836D01*
X412284Y238743D01*
X411890Y238480D01*
X411638D01*
X411244Y238743D01*
X410779Y238836D01*
X410315Y238743D01*
X409921Y238480D01*
X409669D01*
X409276Y238743D01*
X408811Y238836D01*
X408347Y238743D01*
X407953Y238480D01*
X407701D01*
X407307Y238743D01*
X406843Y238836D01*
X406378Y238743D01*
X405984Y238480D01*
X405732D01*
X405338Y238743D01*
X404874Y238836D01*
X404410Y238743D01*
X404016Y238480D01*
X403764D01*
X403370Y238743D01*
X402906Y238836D01*
X402441Y238743D01*
X402047Y238480D01*
X401795D01*
X401402Y238743D01*
X400937Y238836D01*
X400472Y238743D01*
X400079Y238480D01*
X399827D01*
X399433Y238743D01*
X398969Y238836D01*
X398504Y238743D01*
X398110Y238480D01*
X397858D01*
X397464Y238743D01*
X397000Y238836D01*
X396535Y238743D01*
X396142Y238480D01*
X395890D01*
X395496Y238743D01*
X395031Y238836D01*
X394567Y238743D01*
X394173Y238480D01*
X393921D01*
X393528Y238743D01*
X393063Y238836D01*
X392599Y238743D01*
X392205Y238480D01*
X391953D01*
X391559Y238743D01*
X391094Y238836D01*
X390630Y238743D01*
X390236Y238480D01*
X389984D01*
X389591Y238743D01*
X389126Y238836D01*
X388662Y238743D01*
X388268Y238480D01*
X388016D01*
X387622Y238743D01*
X387158Y238836D01*
X386693Y238743D01*
X386299Y238480D01*
X386047D01*
X385653Y238743D01*
X385189Y238836D01*
X384724Y238743D01*
X384331Y238480D01*
X384079D01*
X383685Y238743D01*
X383221Y238836D01*
X382756Y238743D01*
X382362Y238480D01*
X382110D01*
X381716Y238743D01*
X381252Y238836D01*
X380787Y238743D01*
X380394Y238480D01*
X380142D01*
X379748Y238743D01*
X379283Y238836D01*
X378819Y238743D01*
X378425Y238480D01*
X378173D01*
X377780Y238743D01*
X377315Y238836D01*
X376850Y238743D01*
X376602Y238578D01*
X376482Y238757D01*
X375961Y239106D01*
X375847Y239128D01*
Y234079D01*
X374847D01*
Y239128D01*
X374732Y239106D01*
X374211Y238757D01*
X374091Y238578D01*
X373843Y238743D01*
X373378Y238836D01*
X372913Y238743D01*
X372520Y238480D01*
X372256Y238087D01*
X372164Y237622D01*
Y230535D01*
X372256Y230071D01*
X372520Y229677D01*
X372913Y229414D01*
X373378Y229322D01*
X373843Y229414D01*
X374091Y229580D01*
X374211Y229400D01*
X374527Y229189D01*
Y228918D01*
X374298Y228576D01*
X374074Y228426D01*
X373637Y227772D01*
X373483Y227000D01*
X373637Y226228D01*
X374074Y225574D01*
X374728Y225137D01*
X375500Y224983D01*
X376272Y225137D01*
X376926Y225574D01*
X377363Y226228D01*
X377517Y227000D01*
X377363Y227772D01*
X377183Y228042D01*
X378080Y228939D01*
X378080Y228939D01*
X378271Y229224D01*
X378323Y229302D01*
X378795Y229409D01*
X378854Y229407D01*
X379283Y229322D01*
X379638Y229392D01*
X380138Y229119D01*
Y227747D01*
X379193Y226802D01*
X378952Y226440D01*
X378867Y226014D01*
Y224086D01*
X377925D01*
X377466Y223896D01*
X377276Y223437D01*
Y221468D01*
X377466Y221009D01*
X377925Y220819D01*
X381075D01*
X381534Y221009D01*
X381724Y221468D01*
Y223437D01*
X381534Y223896D01*
X381094Y224078D01*
Y225553D01*
X382039Y226498D01*
X382039Y226499D01*
X382281Y226860D01*
X382337Y227141D01*
X382700Y227308D01*
X382866Y227319D01*
X386746Y223439D01*
X386746Y223439D01*
X387107Y223198D01*
X387199Y223179D01*
X388213Y222165D01*
X388574Y221924D01*
X388814Y221876D01*
X388966Y221509D01*
X389425Y221319D01*
X392575D01*
X393034Y221509D01*
X393224Y221969D01*
Y223937D01*
X393034Y224396D01*
X392575Y224587D01*
X389425D01*
X389083Y224445D01*
X388514Y225014D01*
X388153Y225255D01*
X388122Y225387D01*
X388504Y225887D01*
X395492D01*
X398276Y223102D01*
Y221468D01*
X398466Y221009D01*
X398925Y220819D01*
X402075D01*
X402534Y221009D01*
X402724Y221468D01*
Y223437D01*
X402534Y223896D01*
X402075Y224086D01*
X400441D01*
X396740Y227787D01*
X396379Y228029D01*
X395953Y228114D01*
X387461D01*
X386665Y228910D01*
X386911Y229370D01*
X387158Y229322D01*
X387622Y229414D01*
X388016Y229677D01*
X388268D01*
X388662Y229414D01*
X389126Y229322D01*
X389591Y229414D01*
X389984Y229677D01*
X390236D01*
X390630Y229414D01*
X391094Y229322D01*
X391559Y229414D01*
X391953Y229677D01*
X392205D01*
X392599Y229414D01*
X393063Y229322D01*
X393528Y229414D01*
X393921Y229677D01*
X394173D01*
X394567Y229414D01*
X395031Y229322D01*
X395496Y229414D01*
X395890Y229677D01*
X396142D01*
X396535Y229414D01*
X397000Y229322D01*
X397464Y229414D01*
X397858Y229677D01*
X398110D01*
X398504Y229414D01*
X398969Y229322D01*
X399433Y229414D01*
X399827Y229677D01*
X400079D01*
X400472Y229414D01*
X400937Y229322D01*
X401402Y229414D01*
X401795Y229677D01*
X402047D01*
X402441Y229414D01*
X402906Y229322D01*
X403370Y229414D01*
X403764Y229677D01*
X404016D01*
X404410Y229414D01*
X404874Y229322D01*
X405338Y229414D01*
X405732Y229677D01*
X405984D01*
X406378Y229414D01*
X406843Y229322D01*
X407307Y229414D01*
X407701Y229677D01*
X407953D01*
X408347Y229414D01*
X408811Y229322D01*
X409276Y229414D01*
X409669Y229677D01*
X409921D01*
X410315Y229414D01*
X410779Y229322D01*
X411244Y229414D01*
X411638Y229677D01*
X411890D01*
X412284Y229414D01*
X412748Y229322D01*
X413213Y229414D01*
X413606Y229677D01*
X413858D01*
X414252Y229414D01*
X414716Y229322D01*
X415181Y229414D01*
X415575Y229677D01*
X415827D01*
X416221Y229414D01*
X416685Y229322D01*
X417040Y229392D01*
X417540Y229119D01*
Y226799D01*
X417625Y226373D01*
X417866Y226012D01*
X418776Y225102D01*
Y223468D01*
X418966Y223009D01*
X419425Y222819D01*
X422575D01*
X423034Y223009D01*
X423224Y223468D01*
Y225437D01*
X423034Y225896D01*
X422575Y226086D01*
X420941D01*
X419767Y227260D01*
Y229119D01*
X420267Y229392D01*
X420622Y229322D01*
X421087Y229414D01*
X421480Y229677D01*
X421743Y230071D01*
X421836Y230535D01*
Y237622D01*
X421743Y238087D01*
X421716Y238128D01*
Y238426D01*
X421716Y238426D01*
X421630Y238855D01*
X421387Y239219D01*
X421387Y239219D01*
X420824Y239782D01*
X420772Y240047D01*
X420590Y240319D01*
X420863Y240728D01*
X421017Y241500D01*
X420863Y242272D01*
X420426Y242926D01*
X419772Y243363D01*
X419000Y243517D01*
D02*
G37*
G36*
X357874Y239630D02*
X356012D01*
Y237354D01*
X358877D01*
Y238626D01*
X358801Y239010D01*
X358584Y239336D01*
X358258Y239553D01*
X357874Y239630D01*
D02*
G37*
G36*
X471500Y240547D02*
X469422D01*
Y240063D01*
X469498Y239679D01*
X469716Y239353D01*
X470041Y239136D01*
X470425Y239059D01*
X471500D01*
Y240547D01*
D02*
G37*
G36*
X446000Y241547D02*
X443922D01*
Y241063D01*
X443998Y240679D01*
X444216Y240353D01*
X444541Y240136D01*
X444925Y240059D01*
X446000D01*
Y241547D01*
D02*
G37*
G36*
X474578Y240547D02*
X472500D01*
Y239059D01*
X473575D01*
X473959Y239136D01*
X474284Y239353D01*
X474502Y239679D01*
X474578Y240063D01*
Y240547D01*
D02*
G37*
G36*
X355012Y236354D02*
X352146D01*
Y235083D01*
X352222Y234699D01*
X352440Y234373D01*
X352766Y234156D01*
X353150Y234079D01*
X355012D01*
Y236354D01*
D02*
G37*
G36*
X503000Y234398D02*
X502215Y234295D01*
X501018Y233799D01*
X499990Y233010D01*
X499201Y231982D01*
X498705Y230785D01*
X498579Y229824D01*
X498558Y229668D01*
X498054D01*
X498034Y229824D01*
X497920Y230684D01*
X497463Y231788D01*
X496736Y232736D01*
X495788Y233463D01*
X494684Y233920D01*
X493500Y234076D01*
X492316Y233920D01*
X491212Y233463D01*
X490264Y232736D01*
X489537Y231788D01*
X489080Y230684D01*
X488924Y229500D01*
X489080Y228316D01*
X489537Y227212D01*
X490264Y226264D01*
X491212Y225537D01*
X492316Y225080D01*
X493500Y224924D01*
X494684Y225080D01*
X495788Y225537D01*
X496736Y226264D01*
X497463Y227212D01*
X497920Y228316D01*
X498034Y229176D01*
X498054Y229332D01*
X498558D01*
X498579Y229176D01*
X498705Y228215D01*
X499201Y227018D01*
X499990Y225990D01*
X501018Y225201D01*
X502215Y224705D01*
X503000Y224602D01*
Y229500D01*
Y234398D01*
D02*
G37*
G36*
X358877Y236354D02*
X356012D01*
Y234079D01*
X357874D01*
X358258Y234156D01*
X358584Y234373D01*
X358801Y234699D01*
X358877Y235083D01*
Y236354D01*
D02*
G37*
G36*
X355012Y239630D02*
X353150D01*
X352766Y239553D01*
X352440Y239336D01*
X352222Y239010D01*
X352146Y238626D01*
Y237354D01*
X355012D01*
Y239630D01*
D02*
G37*
G36*
X461181Y240059D02*
X460500D01*
Y237087D01*
X459500D01*
Y240059D01*
X458819D01*
X458435Y239982D01*
X458225Y239842D01*
X458225Y239842D01*
X458109Y239765D01*
X458028Y239644D01*
X457541Y239664D01*
X457502Y239679D01*
X457441Y239705D01*
X455079D01*
X454620Y239514D01*
X454429Y239055D01*
Y237203D01*
X429177Y211950D01*
X398131D01*
X397939Y212412D01*
X400441Y214914D01*
X402075D01*
X402534Y215104D01*
X402724Y215563D01*
Y217531D01*
X402534Y217991D01*
X402075Y218181D01*
X398925D01*
X398466Y217991D01*
X398276Y217531D01*
Y215898D01*
X395907Y213529D01*
X388757D01*
X388566Y213991D01*
X389988Y215413D01*
X392575D01*
X393034Y215604D01*
X393224Y216063D01*
Y218032D01*
X393034Y218491D01*
X392575Y218681D01*
X389425D01*
X388966Y218491D01*
X388776Y218032D01*
Y217351D01*
X386539Y215113D01*
X381988D01*
X381710Y215529D01*
X381724Y215563D01*
Y217531D01*
X381534Y217991D01*
X381075Y218181D01*
X377925D01*
X377466Y217991D01*
X377329Y217661D01*
X359395D01*
X356625Y220430D01*
Y228725D01*
X357874D01*
X358333Y228915D01*
X358524Y229374D01*
Y232917D01*
X358333Y233377D01*
X357874Y233567D01*
X353150D01*
X352690Y233377D01*
X352500Y232917D01*
Y229374D01*
X352690Y228915D01*
X353150Y228725D01*
X354398D01*
Y221070D01*
X353936Y220879D01*
X352198Y222618D01*
Y224550D01*
X352198Y224550D01*
X352113Y224976D01*
X351872Y225337D01*
X347500Y229709D01*
Y232917D01*
X347310Y233377D01*
X346850Y233567D01*
X343429D01*
X343237Y234029D01*
X343642Y234433D01*
X346850D01*
X347310Y234624D01*
X347500Y235083D01*
Y238626D01*
X347310Y239085D01*
X346850Y239275D01*
X342126D01*
X341667Y239085D01*
X341476Y238626D01*
Y235418D01*
X340713Y234653D01*
X340652Y234562D01*
X340247Y234157D01*
X340005Y233796D01*
X339920Y233370D01*
Y228922D01*
X340005Y228496D01*
X340247Y228134D01*
X340886Y227495D01*
X341248Y227253D01*
X341674Y227168D01*
X341674Y227168D01*
X342257D01*
X351125Y218300D01*
X351050Y218031D01*
X350901Y217817D01*
X348877D01*
X348849Y217884D01*
X348390Y218075D01*
X345240D01*
X344781Y217884D01*
X344591Y217425D01*
Y215457D01*
X344781Y214998D01*
X345240Y214807D01*
X348390D01*
X348849Y214998D01*
X348877Y215065D01*
X350420D01*
X355884Y209600D01*
X355884Y209600D01*
X356331Y209302D01*
X356857Y209197D01*
X429747D01*
X430274Y209302D01*
X430720Y209600D01*
X453982Y232862D01*
X454444Y232671D01*
Y226455D01*
X454409Y226193D01*
Y214052D01*
X454498Y213381D01*
X454756Y212756D01*
X455168Y212220D01*
X455213Y212175D01*
X455750Y211763D01*
X456375Y211504D01*
X457045Y211416D01*
X457716Y211504D01*
X458341Y211763D01*
X458877Y212175D01*
X459289Y212711D01*
X459548Y213336D01*
X459636Y214006D01*
X459591Y214351D01*
Y226193D01*
X459588Y226213D01*
X459965Y226590D01*
X460465Y226383D01*
Y226000D01*
X464440D01*
Y227075D01*
X464364Y227459D01*
X464147Y227784D01*
X463821Y228002D01*
X463437Y228078D01*
X462161D01*
X461954Y228578D01*
X465024Y231649D01*
X465418Y232238D01*
X465556Y232933D01*
Y235083D01*
X465571Y235118D01*
Y239055D01*
X465380Y239514D01*
X464921Y239705D01*
X462559D01*
X462498Y239679D01*
X462459Y239664D01*
X461972Y239644D01*
X461891Y239765D01*
X461775Y239842D01*
X461774Y239842D01*
X461565Y239982D01*
X461181Y240059D01*
D02*
G37*
G36*
X512205Y317000D02*
X508500D01*
Y313295D01*
X509105Y313375D01*
X510135Y313801D01*
X511020Y314480D01*
X511699Y315365D01*
X512125Y316395D01*
X512205Y317000D01*
D02*
G37*
G36*
X507500D02*
X503795D01*
X503875Y316395D01*
X504301Y315365D01*
X504980Y314480D01*
X505865Y313801D01*
X506895Y313375D01*
X507500Y313295D01*
Y317000D01*
D02*
G37*
G36*
X518000Y321383D02*
X516995Y321251D01*
X516058Y320863D01*
X515254Y320246D01*
X514637Y319442D01*
X514249Y318505D01*
X514117Y317500D01*
X514249Y316495D01*
X514637Y315558D01*
X515254Y314754D01*
X516058Y314137D01*
X516995Y313749D01*
X518000Y313617D01*
X519005Y313749D01*
X519942Y314137D01*
X520746Y314754D01*
X521363Y315558D01*
X521751Y316495D01*
X521883Y317500D01*
X521751Y318505D01*
X521363Y319442D01*
X520746Y320246D01*
X519942Y320863D01*
X519005Y321251D01*
X518000Y321383D01*
D02*
G37*
G36*
X498500Y321705D02*
Y318000D01*
X502205D01*
X502125Y318605D01*
X501699Y319635D01*
X501020Y320520D01*
X500135Y321199D01*
X499105Y321625D01*
X498500Y321705D01*
D02*
G37*
G36*
X477500D02*
X476895Y321625D01*
X475865Y321199D01*
X474980Y320520D01*
X474301Y319635D01*
X473875Y318605D01*
X473795Y318000D01*
X477500D01*
Y321705D01*
D02*
G37*
G36*
X375031Y317724D02*
X373063D01*
X372604Y317534D01*
X372413Y317075D01*
Y315813D01*
X368027Y311426D01*
X367728Y310980D01*
X367674Y310706D01*
X367143Y310601D01*
X366926Y310926D01*
X366272Y311363D01*
X365500Y311517D01*
X364728Y311363D01*
X364074Y310926D01*
X363637Y310272D01*
X363483Y309500D01*
X363557Y309131D01*
X361259Y306834D01*
X360759Y307041D01*
Y309201D01*
X357000D01*
X353241D01*
Y306650D01*
X353317Y306266D01*
X353419Y306114D01*
X353192Y305613D01*
X349461D01*
X344587Y310488D01*
X344225Y310730D01*
X343799Y310814D01*
X342295D01*
Y312752D01*
X342105Y313211D01*
X341646Y313401D01*
X336134D01*
X335675Y313211D01*
X335484Y312752D01*
Y306650D01*
X335675Y306190D01*
X335934Y306083D01*
Y301671D01*
X335604Y301534D01*
X335414Y301075D01*
Y297925D01*
X335604Y297466D01*
X336063Y297276D01*
X338032D01*
X338491Y297466D01*
X338681Y297925D01*
Y301075D01*
X338491Y301534D01*
X338161Y301671D01*
Y306000D01*
X341016D01*
X344598Y302418D01*
X344338Y302028D01*
X344303Y302006D01*
X343937Y302078D01*
X343453D01*
Y300000D01*
X344940D01*
Y301075D01*
X344868Y301441D01*
X344890Y301476D01*
X345280Y301736D01*
X350167Y296849D01*
X350104Y296534D01*
X349914Y296075D01*
Y292925D01*
X350104Y292466D01*
X350434Y292329D01*
Y291453D01*
X350518Y291027D01*
X350760Y290665D01*
X357057Y284369D01*
X356983Y284000D01*
X357137Y283228D01*
X357574Y282574D01*
X358228Y282137D01*
X359000Y281983D01*
X359772Y282137D01*
X360426Y282574D01*
X360863Y283228D01*
X361017Y284000D01*
X360863Y284772D01*
X360426Y285426D01*
X359772Y285863D01*
X359000Y286017D01*
X358631Y285943D01*
X352707Y291867D01*
X352763Y292372D01*
X352991Y292466D01*
X353181Y292925D01*
Y296075D01*
X352991Y296534D01*
X352661Y296671D01*
Y297043D01*
X352576Y297469D01*
X352335Y297831D01*
X342295Y307870D01*
Y308587D01*
X343338D01*
X348213Y303713D01*
X348574Y303471D01*
X349000Y303386D01*
X349000Y303386D01*
X360500D01*
X360926Y303471D01*
X361287Y303713D01*
X365131Y307557D01*
X365500Y307483D01*
X365911Y307565D01*
X366158Y307104D01*
X364027Y304973D01*
X363728Y304527D01*
X363623Y304000D01*
Y300959D01*
X363574Y300926D01*
X363541Y300876D01*
X362500D01*
X362500Y300876D01*
X361973Y300772D01*
X361527Y300473D01*
X357778Y296724D01*
X356469D01*
X356009Y296534D01*
X355819Y296075D01*
Y292925D01*
X356009Y292466D01*
X356469Y292276D01*
X358437D01*
X358896Y292466D01*
X359086Y292925D01*
Y294140D01*
X363070Y298123D01*
X363559Y298096D01*
X363574Y298074D01*
X364228Y297637D01*
X365000Y297483D01*
X365772Y297637D01*
X366426Y298074D01*
X366863Y298728D01*
X367017Y299500D01*
X366863Y300272D01*
X366426Y300926D01*
X366376Y300959D01*
Y303430D01*
X368104Y305158D01*
X368565Y304911D01*
X368483Y304500D01*
X368637Y303728D01*
X369074Y303074D01*
X369124Y303041D01*
Y302000D01*
X369228Y301473D01*
X369527Y301027D01*
X372002Y298552D01*
Y293921D01*
X372106Y293394D01*
X372164Y293308D01*
Y290378D01*
X372256Y289913D01*
X372520Y289520D01*
X372913Y289257D01*
X373378Y289164D01*
X373843Y289257D01*
X374091Y289422D01*
X374211Y289243D01*
X374732Y288895D01*
X374847Y288872D01*
Y293921D01*
Y299108D01*
X374754Y299122D01*
X374650Y299649D01*
X374351Y300095D01*
X374351Y300095D01*
X371877Y302570D01*
X371903Y303059D01*
X371926Y303074D01*
X372363Y303728D01*
X372517Y304500D01*
X372363Y305272D01*
X371926Y305926D01*
X371272Y306363D01*
X370500Y306517D01*
X370089Y306435D01*
X369842Y306896D01*
X369973Y307027D01*
X369973Y307027D01*
X370272Y307473D01*
X370376Y308000D01*
Y309883D01*
X373770Y313276D01*
X375031D01*
X375491Y313466D01*
X375681Y313925D01*
Y317075D01*
X375491Y317534D01*
X375031Y317724D01*
D02*
G37*
G36*
X359756Y313755D02*
X357500D01*
Y310201D01*
X360759D01*
Y312752D01*
X360683Y313136D01*
X360466Y313462D01*
X360140Y313679D01*
X359756Y313755D01*
D02*
G37*
G36*
X472205Y317000D02*
X468500D01*
Y313295D01*
X469105Y313375D01*
X470135Y313801D01*
X471020Y314480D01*
X471699Y315365D01*
X472125Y316395D01*
X472205Y317000D01*
D02*
G37*
G36*
X502205D02*
X498500D01*
Y313295D01*
X499105Y313375D01*
X500135Y313801D01*
X501020Y314480D01*
X501699Y315365D01*
X502125Y316395D01*
X502205Y317000D01*
D02*
G37*
G36*
X477500D02*
X473795D01*
X473875Y316395D01*
X474301Y315365D01*
X474980Y314480D01*
X475865Y313801D01*
X476895Y313375D01*
X477500Y313295D01*
Y317000D01*
D02*
G37*
G36*
X507500Y321705D02*
X506895Y321625D01*
X505865Y321199D01*
X504980Y320520D01*
X504301Y319635D01*
X503875Y318605D01*
X503795Y318000D01*
X507500D01*
Y321705D01*
D02*
G37*
G36*
X380547Y325988D02*
X379453D01*
Y325012D01*
X379530Y324628D01*
X379747Y324302D01*
X380073Y324085D01*
X380457Y324008D01*
X380547D01*
Y325988D01*
D02*
G37*
G36*
X518000Y331383D02*
X516995Y331251D01*
X516058Y330863D01*
X515254Y330246D01*
X514637Y329442D01*
X514249Y328505D01*
X514117Y327500D01*
X514249Y326495D01*
X514637Y325558D01*
X515254Y324754D01*
X516058Y324137D01*
X516995Y323749D01*
X518000Y323617D01*
X519005Y323749D01*
X519942Y324137D01*
X520746Y324754D01*
X521363Y325558D01*
X521751Y326495D01*
X521883Y327500D01*
X521751Y328505D01*
X521363Y329442D01*
X520746Y330246D01*
X519942Y330863D01*
X519005Y331251D01*
X518000Y331383D01*
D02*
G37*
G36*
X380547Y328968D02*
X380457D01*
X380073Y328892D01*
X379747Y328674D01*
X379530Y328349D01*
X379453Y327965D01*
Y326988D01*
X380547D01*
Y328968D01*
D02*
G37*
G36*
X390752Y339638D02*
X389374D01*
X388915Y339447D01*
X388725Y338988D01*
Y334854D01*
X388915Y334395D01*
X389374Y334205D01*
X390752D01*
X391211Y334395D01*
X391401Y334854D01*
Y338988D01*
X391211Y339447D01*
X390752Y339638D01*
D02*
G37*
G36*
X378626D02*
X377248D01*
X376789Y339447D01*
X376599Y338988D01*
Y334854D01*
X376789Y334395D01*
X377248Y334205D01*
X378626D01*
X379085Y334395D01*
X379275Y334854D01*
Y338988D01*
X379085Y339447D01*
X378626Y339638D01*
D02*
G37*
G36*
X478000Y331383D02*
X476995Y331251D01*
X476058Y330863D01*
X475254Y330246D01*
X474637Y329442D01*
X474249Y328505D01*
X474117Y327500D01*
X474249Y326495D01*
X474592Y325667D01*
X472039Y323113D01*
X465000D01*
X465000Y323113D01*
X464574Y323029D01*
X464213Y322787D01*
X462213Y320787D01*
X461971Y320426D01*
X461887Y320000D01*
Y319484D01*
X461386Y319385D01*
X461363Y319442D01*
X460746Y320246D01*
X459942Y320863D01*
X459005Y321251D01*
X458000Y321383D01*
X456995Y321251D01*
X456058Y320863D01*
X455254Y320246D01*
X454637Y319442D01*
X454249Y318505D01*
X454117Y317500D01*
X454249Y316495D01*
X454637Y315558D01*
X455254Y314754D01*
X456058Y314137D01*
X456995Y313749D01*
X458000Y313617D01*
X458961Y313743D01*
X459001Y313706D01*
X459111Y313186D01*
X458539Y312614D01*
X426000D01*
X425574Y312529D01*
X425213Y312287D01*
X419835Y306909D01*
X419593Y306548D01*
X419509Y306122D01*
Y298881D01*
X419008Y298608D01*
X418653Y298678D01*
X418189Y298586D01*
X417795Y298323D01*
X417543D01*
X417150Y298586D01*
X416685Y298678D01*
X416221Y298586D01*
X415827Y298323D01*
X415575D01*
X415181Y298586D01*
X414716Y298678D01*
X414252Y298586D01*
X413858Y298323D01*
X413606D01*
X413213Y298586D01*
X412748Y298678D01*
X412284Y298586D01*
X411890Y298323D01*
X411638D01*
X411244Y298586D01*
X410779Y298678D01*
X410315Y298586D01*
X409921Y298323D01*
X409669D01*
X409276Y298586D01*
X408811Y298678D01*
X408347Y298586D01*
X407953Y298323D01*
X407701D01*
X407307Y298586D01*
X406843Y298678D01*
X406378Y298586D01*
X405984Y298323D01*
X405732D01*
X405338Y298586D01*
X404874Y298678D01*
X404410Y298586D01*
X404016Y298323D01*
X403764D01*
X403370Y298586D01*
X402906Y298678D01*
X402441Y298586D01*
X402047Y298323D01*
X401795D01*
X401402Y298586D01*
X400937Y298678D01*
X400472Y298586D01*
X400079Y298323D01*
X399827D01*
X399433Y298586D01*
X398969Y298678D01*
X398504Y298586D01*
X398110Y298323D01*
X397858D01*
X397464Y298586D01*
X397000Y298678D01*
X396645Y298608D01*
X396145Y298881D01*
Y300070D01*
X417461Y321387D01*
X426016D01*
X426115Y320886D01*
X426058Y320863D01*
X425254Y320246D01*
X424637Y319442D01*
X424249Y318505D01*
X424117Y317500D01*
X424249Y316495D01*
X424637Y315558D01*
X425254Y314754D01*
X426058Y314137D01*
X426995Y313749D01*
X428000Y313617D01*
X429005Y313749D01*
X429942Y314137D01*
X430746Y314754D01*
X431363Y315558D01*
X431751Y316495D01*
X431883Y317500D01*
X431751Y318505D01*
X431363Y319442D01*
X430746Y320246D01*
X429942Y320863D01*
X429885Y320886D01*
X429984Y321387D01*
X436016D01*
X436115Y320886D01*
X436058Y320863D01*
X435254Y320246D01*
X434637Y319442D01*
X434249Y318505D01*
X434117Y317500D01*
X434249Y316495D01*
X434637Y315558D01*
X435254Y314754D01*
X436058Y314137D01*
X436995Y313749D01*
X438000Y313617D01*
X439005Y313749D01*
X439942Y314137D01*
X440746Y314754D01*
X441363Y315558D01*
X441751Y316495D01*
X441883Y317500D01*
X441751Y318505D01*
X441363Y319442D01*
X440746Y320246D01*
X439942Y320863D01*
X439885Y320886D01*
X439984Y321387D01*
X446016D01*
X446115Y320886D01*
X446058Y320863D01*
X445254Y320246D01*
X444637Y319442D01*
X444249Y318505D01*
X444117Y317500D01*
X444249Y316495D01*
X444637Y315558D01*
X445254Y314754D01*
X446058Y314137D01*
X446995Y313749D01*
X448000Y313617D01*
X449005Y313749D01*
X449942Y314137D01*
X450746Y314754D01*
X451363Y315558D01*
X451751Y316495D01*
X451883Y317500D01*
X451751Y318505D01*
X451363Y319442D01*
X450746Y320246D01*
X449942Y320863D01*
X449885Y320886D01*
X449984Y321387D01*
X453000D01*
X453426Y321471D01*
X453787Y321713D01*
X456167Y324092D01*
X456995Y323749D01*
X458000Y323617D01*
X459005Y323749D01*
X459942Y324137D01*
X460746Y324754D01*
X461363Y325558D01*
X461751Y326495D01*
X461883Y327500D01*
X461751Y328505D01*
X461363Y329442D01*
X460746Y330246D01*
X459942Y330863D01*
X459005Y331251D01*
X458000Y331383D01*
X456995Y331251D01*
X456058Y330863D01*
X455254Y330246D01*
X454637Y329442D01*
X454249Y328505D01*
X454117Y327500D01*
X454249Y326495D01*
X454592Y325667D01*
X452539Y323614D01*
X449984D01*
X449885Y324113D01*
X449942Y324137D01*
X450746Y324754D01*
X451363Y325558D01*
X451751Y326495D01*
X451883Y327500D01*
X451751Y328505D01*
X451363Y329442D01*
X450746Y330246D01*
X449942Y330863D01*
X449005Y331251D01*
X448000Y331383D01*
X446995Y331251D01*
X446058Y330863D01*
X445254Y330246D01*
X444637Y329442D01*
X444249Y328505D01*
X444117Y327500D01*
X444249Y326495D01*
X444637Y325558D01*
X445254Y324754D01*
X446058Y324137D01*
X446115Y324113D01*
X446016Y323614D01*
X439984D01*
X439885Y324113D01*
X439942Y324137D01*
X440746Y324754D01*
X441363Y325558D01*
X441751Y326495D01*
X441883Y327500D01*
X441751Y328505D01*
X441363Y329442D01*
X440746Y330246D01*
X439942Y330863D01*
X439005Y331251D01*
X438000Y331383D01*
X436995Y331251D01*
X436058Y330863D01*
X435254Y330246D01*
X434637Y329442D01*
X434249Y328505D01*
X434117Y327500D01*
X434249Y326495D01*
X434637Y325558D01*
X435254Y324754D01*
X436058Y324137D01*
X436115Y324113D01*
X436016Y323614D01*
X429984D01*
X429885Y324113D01*
X429942Y324137D01*
X430746Y324754D01*
X431363Y325558D01*
X431751Y326495D01*
X431883Y327500D01*
X431751Y328505D01*
X431363Y329442D01*
X430746Y330246D01*
X429942Y330863D01*
X429005Y331251D01*
X428000Y331383D01*
X426995Y331251D01*
X426058Y330863D01*
X425254Y330246D01*
X424637Y329442D01*
X424249Y328505D01*
X424117Y327500D01*
X424249Y326495D01*
X424637Y325558D01*
X425254Y324754D01*
X426058Y324137D01*
X426115Y324113D01*
X426016Y323614D01*
X417000D01*
X416574Y323529D01*
X416213Y323287D01*
X399503Y306578D01*
X398967Y306749D01*
X398863Y307272D01*
X398426Y307926D01*
X397772Y308363D01*
X397000Y308517D01*
X396941Y308505D01*
X393829Y311617D01*
Y313438D01*
X393896Y313466D01*
X394087Y313925D01*
Y317075D01*
X393896Y317534D01*
X393829Y317562D01*
Y318047D01*
X393724Y318574D01*
X393426Y319021D01*
X393426Y319021D01*
X388066Y324380D01*
Y324707D01*
X388193Y325012D01*
Y327965D01*
X388002Y328424D01*
X387543Y328614D01*
X386362D01*
X385968Y328451D01*
X385575Y328614D01*
X384394D01*
X384000Y328451D01*
X383606Y328614D01*
X382425D01*
X382396Y328602D01*
X382347Y328674D01*
X382022Y328892D01*
X381638Y328968D01*
X381547D01*
Y326488D01*
Y324008D01*
X381638D01*
X381902Y323791D01*
Y322477D01*
X379165Y319740D01*
X378924Y319379D01*
X378839Y318953D01*
Y317671D01*
X378509Y317534D01*
X378319Y317075D01*
Y313925D01*
X378509Y313466D01*
X378839Y313329D01*
Y312547D01*
X378924Y312121D01*
X379165Y311760D01*
X386044Y304881D01*
Y299343D01*
X385689Y299099D01*
Y293921D01*
Y288872D01*
X385803Y288895D01*
X386324Y289243D01*
X386444Y289422D01*
X386693Y289257D01*
X387158Y289164D01*
X387622Y289257D01*
X388016Y289520D01*
X388268D01*
X388662Y289257D01*
X389126Y289164D01*
X389591Y289257D01*
X389984Y289520D01*
X390236D01*
X390630Y289257D01*
X391094Y289164D01*
X391559Y289257D01*
X391953Y289520D01*
X392205D01*
X392599Y289257D01*
X393063Y289164D01*
X393528Y289257D01*
X393921Y289520D01*
X394173D01*
X394567Y289257D01*
X395031Y289164D01*
X395496Y289257D01*
X395890Y289520D01*
X396142D01*
X396535Y289257D01*
X397000Y289164D01*
X397464Y289257D01*
X397858Y289520D01*
X398110D01*
X398504Y289257D01*
X398969Y289164D01*
X399433Y289257D01*
X399827Y289520D01*
X400079D01*
X400472Y289257D01*
X400937Y289164D01*
X401402Y289257D01*
X401795Y289520D01*
X402047D01*
X402441Y289257D01*
X402906Y289164D01*
X403370Y289257D01*
X403764Y289520D01*
X404016D01*
X404410Y289257D01*
X404874Y289164D01*
X405338Y289257D01*
X405732Y289520D01*
X405984D01*
X406378Y289257D01*
X406843Y289164D01*
X407307Y289257D01*
X407701Y289520D01*
X407953D01*
X408347Y289257D01*
X408811Y289164D01*
X409276Y289257D01*
X409669Y289520D01*
X409921D01*
X410315Y289257D01*
X410779Y289164D01*
X411244Y289257D01*
X411638Y289520D01*
X411890D01*
X412284Y289257D01*
X412748Y289164D01*
X413213Y289257D01*
X413606Y289520D01*
X413858D01*
X414252Y289257D01*
X414716Y289164D01*
X415181Y289257D01*
X415575Y289520D01*
X415827D01*
X416221Y289257D01*
X416685Y289164D01*
X417150Y289257D01*
X417543Y289520D01*
X417795D01*
X418189Y289257D01*
X418653Y289164D01*
X419118Y289257D01*
X419512Y289520D01*
X419764D01*
X420157Y289257D01*
X420622Y289164D01*
X421087Y289257D01*
X421480Y289520D01*
X421743Y289913D01*
X421836Y290378D01*
Y297465D01*
X421743Y297929D01*
X421736Y297941D01*
Y305661D01*
X426461Y310386D01*
X459000D01*
X459426Y310471D01*
X459787Y310713D01*
X463787Y314713D01*
X463787Y314713D01*
X463966Y314980D01*
X464348Y315065D01*
X464536Y315059D01*
X464980Y314480D01*
X465865Y313801D01*
X466895Y313375D01*
X467500Y313295D01*
Y317500D01*
X468000D01*
Y318000D01*
X472205D01*
X472125Y318605D01*
X471699Y319635D01*
X471122Y320387D01*
X471309Y320886D01*
X472500D01*
X472926Y320971D01*
X473287Y321213D01*
X476167Y324092D01*
X476995Y323749D01*
X478000Y323617D01*
X479005Y323749D01*
X479942Y324137D01*
X480746Y324754D01*
X481363Y325558D01*
X481751Y326495D01*
X481883Y327500D01*
X481751Y328505D01*
X481363Y329442D01*
X480746Y330246D01*
X479942Y330863D01*
X479005Y331251D01*
X478000Y331383D01*
D02*
G37*
G36*
X508500Y321705D02*
Y318000D01*
X512205D01*
X512125Y318605D01*
X511699Y319635D01*
X511020Y320520D01*
X510135Y321199D01*
X509105Y321625D01*
X508500Y321705D01*
D02*
G37*
G36*
X468000Y331383D02*
X466995Y331251D01*
X466058Y330863D01*
X465254Y330246D01*
X464637Y329442D01*
X464249Y328505D01*
X464117Y327500D01*
X464249Y326495D01*
X464637Y325558D01*
X465254Y324754D01*
X466058Y324137D01*
X466995Y323749D01*
X468000Y323617D01*
X469005Y323749D01*
X469942Y324137D01*
X470746Y324754D01*
X471363Y325558D01*
X471751Y326495D01*
X471883Y327500D01*
X471751Y328505D01*
X471363Y329442D01*
X470746Y330246D01*
X469942Y330863D01*
X469005Y331251D01*
X468000Y331383D01*
D02*
G37*
G36*
X508000D02*
X506995Y331251D01*
X506058Y330863D01*
X505254Y330246D01*
X504637Y329442D01*
X504249Y328505D01*
X504117Y327500D01*
X504249Y326495D01*
X504637Y325558D01*
X505254Y324754D01*
X506058Y324137D01*
X506995Y323749D01*
X508000Y323617D01*
X509005Y323749D01*
X509942Y324137D01*
X510746Y324754D01*
X511363Y325558D01*
X511751Y326495D01*
X511883Y327500D01*
X511751Y328505D01*
X511363Y329442D01*
X510746Y330246D01*
X509942Y330863D01*
X509005Y331251D01*
X508000Y331383D01*
D02*
G37*
G36*
X498000D02*
X496995Y331251D01*
X496058Y330863D01*
X495254Y330246D01*
X494637Y329442D01*
X494249Y328505D01*
X494117Y327500D01*
X494249Y326495D01*
X494637Y325558D01*
X495005Y325079D01*
X492213Y322287D01*
X491971Y321926D01*
X491887Y321500D01*
Y320212D01*
X491387Y320042D01*
X491020Y320520D01*
X490135Y321199D01*
X489105Y321625D01*
X488500Y321705D01*
Y317500D01*
X487500D01*
Y321705D01*
X486895Y321625D01*
X485865Y321199D01*
X484980Y320520D01*
X484614Y320042D01*
X484114Y320212D01*
Y322039D01*
X486167Y324092D01*
X486995Y323749D01*
X488000Y323617D01*
X489005Y323749D01*
X489942Y324137D01*
X490746Y324754D01*
X491363Y325558D01*
X491751Y326495D01*
X491883Y327500D01*
X491751Y328505D01*
X491363Y329442D01*
X490746Y330246D01*
X489942Y330863D01*
X489005Y331251D01*
X488000Y331383D01*
X486995Y331251D01*
X486058Y330863D01*
X485254Y330246D01*
X484637Y329442D01*
X484249Y328505D01*
X484117Y327500D01*
X484249Y326495D01*
X484592Y325667D01*
X482213Y323287D01*
X481971Y322926D01*
X481886Y322500D01*
Y320212D01*
X481387Y320042D01*
X481020Y320520D01*
X480135Y321199D01*
X479105Y321625D01*
X478500Y321705D01*
Y317500D01*
Y313295D01*
X479105Y313375D01*
X480135Y313801D01*
X481020Y314480D01*
X481387Y314958D01*
X481886Y314788D01*
Y307702D01*
X470883Y296698D01*
X448344D01*
X447918Y296613D01*
X447556Y296372D01*
X438623Y287438D01*
X438161Y287629D01*
Y295329D01*
X438491Y295466D01*
X438681Y295925D01*
Y299075D01*
X438491Y299534D01*
X438031Y299724D01*
X436063D01*
X435604Y299534D01*
X435414Y299075D01*
Y295925D01*
X435604Y295466D01*
X435934Y295329D01*
Y286989D01*
X433743Y284799D01*
X432343D01*
X432099Y285154D01*
X426921D01*
Y286154D01*
X431971D01*
X431948Y286268D01*
X431600Y286789D01*
X431420Y286909D01*
X431586Y287158D01*
X431678Y287622D01*
X431586Y288087D01*
X431323Y288480D01*
X430929Y288743D01*
X430465Y288836D01*
X423378D01*
X422913Y288743D01*
X422874Y288717D01*
X422541Y288651D01*
X422179Y288409D01*
X421883Y288113D01*
X419145D01*
X418772Y288363D01*
X418000Y288517D01*
X417228Y288363D01*
X416574Y287926D01*
X416137Y287272D01*
X415983Y286500D01*
X416137Y285728D01*
X416574Y285074D01*
X417228Y284637D01*
X418000Y284483D01*
X418772Y284637D01*
X419426Y285074D01*
X419863Y285728D01*
X419895Y285887D01*
X421581D01*
X421772Y285653D01*
X421895Y285039D01*
X422243Y284518D01*
X422423Y284398D01*
X422257Y284150D01*
X422164Y283685D01*
X422257Y283221D01*
X422520Y282827D01*
Y282575D01*
X422257Y282181D01*
X422164Y281716D01*
X422257Y281252D01*
X422358Y281100D01*
X422478Y280732D01*
X422358Y280365D01*
X422257Y280213D01*
X422164Y279748D01*
X422257Y279283D01*
X422520Y278890D01*
Y278638D01*
X422257Y278244D01*
X421778Y278114D01*
X421635D01*
X421426Y278426D01*
X420772Y278863D01*
X420000Y279017D01*
X419228Y278863D01*
X418574Y278426D01*
X418137Y277772D01*
X417983Y277000D01*
X418137Y276228D01*
X418574Y275574D01*
X419228Y275137D01*
X420000Y274983D01*
X420772Y275137D01*
X421426Y275574D01*
X421611Y275592D01*
X421894Y275309D01*
X422223Y275089D01*
X422276Y275020D01*
X422367Y274817D01*
X422414Y274543D01*
X422257Y274307D01*
X422164Y273843D01*
X422257Y273378D01*
X422520Y272984D01*
Y272732D01*
X422257Y272339D01*
X422164Y271874D01*
X422257Y271410D01*
X422358Y271257D01*
X422478Y270890D01*
X422358Y270522D01*
X422257Y270370D01*
X422164Y269905D01*
X422257Y269441D01*
X422520Y269047D01*
Y268795D01*
X422257Y268402D01*
X422164Y267937D01*
X422257Y267473D01*
X422358Y267320D01*
X422478Y266953D01*
X422358Y266585D01*
X422257Y266433D01*
X422164Y265968D01*
X422257Y265504D01*
X422520Y265110D01*
Y264858D01*
X422257Y264464D01*
X422164Y264000D01*
X422257Y263535D01*
X422520Y263142D01*
Y262890D01*
X422257Y262496D01*
X422164Y262032D01*
X422257Y261567D01*
X422358Y261415D01*
X422478Y261047D01*
X422358Y260680D01*
X422257Y260527D01*
X422164Y260063D01*
X422257Y259598D01*
X422520Y259205D01*
Y258953D01*
X422257Y258559D01*
X422164Y258095D01*
X422257Y257630D01*
X422358Y257478D01*
X422478Y257110D01*
X422358Y256743D01*
X422257Y256591D01*
X422164Y256126D01*
X422257Y255662D01*
X422520Y255268D01*
Y255016D01*
X422257Y254622D01*
X422164Y254157D01*
X422257Y253693D01*
X422520Y253299D01*
Y253047D01*
X422257Y252654D01*
X422164Y252189D01*
X422257Y251724D01*
X422358Y251572D01*
X422478Y251205D01*
X422358Y250837D01*
X422257Y250685D01*
X422164Y250220D01*
X422257Y249756D01*
X422520Y249362D01*
Y249110D01*
X422257Y248716D01*
X422164Y248252D01*
X422257Y247787D01*
X422358Y247635D01*
X422478Y247268D01*
X422358Y246900D01*
X422257Y246748D01*
X422164Y246284D01*
X422257Y245819D01*
X422520Y245425D01*
Y245173D01*
X422257Y244779D01*
X422164Y244315D01*
X422257Y243850D01*
X422520Y243457D01*
Y243205D01*
X422257Y242811D01*
X422164Y242347D01*
X422257Y241882D01*
X422358Y241730D01*
X422478Y241362D01*
X422358Y240995D01*
X422257Y240843D01*
X422164Y240378D01*
X422257Y239913D01*
X422520Y239520D01*
X422913Y239257D01*
X423378Y239164D01*
X426765D01*
X426921Y239133D01*
X434747D01*
X435173Y239218D01*
X435534Y239459D01*
X441787Y245713D01*
X442029Y246074D01*
X442113Y246500D01*
Y248022D01*
X442614Y248192D01*
X442668Y248121D01*
X444538Y246251D01*
X444668Y246081D01*
X445205Y245670D01*
X445829Y245411D01*
X446500Y245323D01*
X455013D01*
X455079Y245295D01*
X457441D01*
X457900Y245486D01*
X458090Y245945D01*
Y246080D01*
X458092Y246081D01*
X458503Y246618D01*
X458762Y247243D01*
X458850Y247913D01*
X458762Y248584D01*
X458503Y249209D01*
X458092Y249745D01*
X458090Y249746D01*
Y249882D01*
X457900Y250341D01*
X457441Y250531D01*
X455079D01*
X455013Y250504D01*
X447612D01*
X447091Y251026D01*
Y254386D01*
X453130D01*
X453556Y254471D01*
X453917Y254713D01*
X462389Y263184D01*
X464402D01*
X465097Y263322D01*
X465686Y263716D01*
X466079Y264305D01*
X466218Y265000D01*
X466079Y265695D01*
X465686Y266284D01*
X465097Y266678D01*
X464402Y266816D01*
X460858D01*
X460163Y266678D01*
X459574Y266284D01*
X459180Y265695D01*
X459042Y265000D01*
X459180Y264305D01*
X459574Y263716D01*
X459592Y263537D01*
X452669Y256613D01*
X446819D01*
X446744Y256795D01*
X446332Y257332D01*
X445795Y257744D01*
X445170Y258002D01*
X444500Y258091D01*
X443829Y258002D01*
X443205Y257744D01*
X442668Y257332D01*
X442614Y257261D01*
X442113Y257430D01*
Y263184D01*
X443142D01*
X443837Y263322D01*
X444426Y263716D01*
X444819Y264305D01*
X444958Y265000D01*
X444819Y265695D01*
X444426Y266284D01*
X443837Y266678D01*
X443142Y266816D01*
X439598D01*
X438904Y266678D01*
X438849Y266641D01*
X438530Y267030D01*
X439684Y268184D01*
X443142D01*
X443837Y268322D01*
X444426Y268716D01*
X444819Y269305D01*
X444958Y270000D01*
X444819Y270695D01*
X444426Y271284D01*
X443837Y271678D01*
X443142Y271816D01*
X439598D01*
X438904Y271678D01*
X438314Y271284D01*
X437921Y270695D01*
X437853Y270353D01*
X436075Y268576D01*
X435613Y268767D01*
Y274027D01*
X436954Y275368D01*
X437415Y275122D01*
X437391Y275000D01*
X437559Y274155D01*
X438037Y273439D01*
X438754Y272960D01*
X439598Y272792D01*
X440870D01*
Y275000D01*
Y277208D01*
X439598D01*
X439477Y277184D01*
X439230Y277644D01*
X439770Y278184D01*
X443142D01*
X443837Y278322D01*
X444426Y278716D01*
X444819Y279305D01*
X444958Y280000D01*
X444819Y280695D01*
X444426Y281284D01*
X443837Y281678D01*
X443142Y281816D01*
X439598D01*
X439444Y281785D01*
X438902Y282187D01*
X438890Y282315D01*
X449461Y292886D01*
X472000D01*
X472426Y292971D01*
X472787Y293213D01*
X493787Y314213D01*
X493787Y314213D01*
X494029Y314574D01*
X494080Y314832D01*
X494531Y314977D01*
X494602Y314973D01*
X494980Y314480D01*
X495865Y313801D01*
X496895Y313375D01*
X497500Y313295D01*
Y317500D01*
Y321705D01*
X496895Y321625D01*
X495865Y321199D01*
X494980Y320520D01*
X494614Y320042D01*
X494113Y320212D01*
Y321039D01*
X496874Y323799D01*
X496995Y323749D01*
X498000Y323617D01*
X499005Y323749D01*
X499942Y324137D01*
X500746Y324754D01*
X501363Y325558D01*
X501751Y326495D01*
X501883Y327500D01*
X501751Y328505D01*
X501363Y329442D01*
X500746Y330246D01*
X499942Y330863D01*
X499005Y331251D01*
X498000Y331383D01*
D02*
G37*
G36*
X356500Y313755D02*
X354244D01*
X353860Y313679D01*
X353535Y313462D01*
X353317Y313136D01*
X353241Y312752D01*
Y310201D01*
X356500D01*
Y313755D01*
D02*
G37*
G36*
X492500Y282481D02*
X491470Y282345D01*
X490510Y281947D01*
X489685Y281315D01*
X489053Y280490D01*
X488655Y279530D01*
X488519Y278500D01*
X488521Y278489D01*
X488191Y278114D01*
X482224D01*
Y278575D01*
X482034Y279034D01*
X481575Y279224D01*
X478425D01*
X477966Y279034D01*
X477776Y278575D01*
X477675Y278114D01*
X477249Y278029D01*
X476888Y277787D01*
X475667Y276566D01*
X472671D01*
X472534Y276896D01*
X472075Y277086D01*
X468925D01*
X468466Y276896D01*
X468329Y276566D01*
X468175D01*
X467749Y276482D01*
X467388Y276240D01*
X467261Y276114D01*
X465800D01*
X465686Y276284D01*
X465097Y276678D01*
X464402Y276816D01*
X460858D01*
X460163Y276678D01*
X459574Y276284D01*
X459180Y275695D01*
X459042Y275000D01*
X459180Y274305D01*
X459574Y273716D01*
X460163Y273322D01*
X460858Y273184D01*
X464402D01*
X465097Y273322D01*
X465686Y273716D01*
X465800Y273886D01*
X467722D01*
X468149Y273971D01*
X468287Y274064D01*
X468466Y274009D01*
X468925Y273819D01*
X472075D01*
X472534Y274009D01*
X472671Y274339D01*
X476128D01*
X476554Y274424D01*
X476915Y274665D01*
X477364Y275114D01*
X477953Y274996D01*
X477966Y274966D01*
X478425Y274776D01*
X481575D01*
X482034Y274966D01*
X482224Y275425D01*
Y275887D01*
X489531D01*
X489685Y275685D01*
X490510Y275053D01*
X491470Y274655D01*
X492500Y274519D01*
X493530Y274655D01*
X494490Y275053D01*
X495315Y275685D01*
X495947Y276510D01*
X496345Y277470D01*
X496481Y278500D01*
X496345Y279530D01*
X495947Y280490D01*
X495315Y281315D01*
X494490Y281947D01*
X493530Y282345D01*
X492500Y282481D01*
D02*
G37*
G36*
X466510Y279500D02*
X463130D01*
Y277792D01*
X464402D01*
X465246Y277960D01*
X465963Y278439D01*
X466441Y279155D01*
X466510Y279500D01*
D02*
G37*
G36*
X462130Y282208D02*
X460858D01*
X460013Y282040D01*
X459297Y281561D01*
X458819Y280845D01*
X458750Y280500D01*
X462130D01*
Y282208D01*
D02*
G37*
G36*
X479500Y285161D02*
X477422D01*
Y284087D01*
X477498Y283703D01*
X477716Y283377D01*
X478041Y283159D01*
X478425Y283083D01*
X479500D01*
Y285161D01*
D02*
G37*
G36*
X464402Y282208D02*
X463130D01*
Y280500D01*
X466510D01*
X466441Y280845D01*
X465963Y281561D01*
X465246Y282040D01*
X464402Y282208D01*
D02*
G37*
G36*
X357000Y276441D02*
X355925D01*
X355541Y276364D01*
X355216Y276147D01*
X354998Y275821D01*
X354922Y275437D01*
Y274953D01*
X357000D01*
Y276441D01*
D02*
G37*
G36*
X445250Y274500D02*
X441870D01*
Y272792D01*
X443142D01*
X443987Y272960D01*
X444703Y273439D01*
X445181Y274155D01*
X445250Y274500D01*
D02*
G37*
G36*
X359075Y276441D02*
X358000D01*
Y274953D01*
X360078D01*
Y275437D01*
X360002Y275821D01*
X359784Y276147D01*
X359459Y276364D01*
X359075Y276441D01*
D02*
G37*
G36*
X462130Y279500D02*
X458750D01*
X458819Y279155D01*
X459297Y278439D01*
X460013Y277960D01*
X460858Y277792D01*
X462130D01*
Y279500D01*
D02*
G37*
G36*
X443142Y277208D02*
X441870D01*
Y275500D01*
X445250D01*
X445181Y275845D01*
X444703Y276561D01*
X443987Y277040D01*
X443142Y277208D01*
D02*
G37*
G36*
X482578Y285161D02*
X480500D01*
Y283083D01*
X481575D01*
X481959Y283159D01*
X482284Y283377D01*
X482502Y283703D01*
X482578Y284087D01*
Y285161D01*
D02*
G37*
G36*
X442453Y300078D02*
X441968D01*
X441584Y300002D01*
X441259Y299784D01*
X441041Y299459D01*
X440965Y299075D01*
Y298000D01*
X442453D01*
Y300078D01*
D02*
G37*
G36*
X344940Y299000D02*
X343453D01*
Y296922D01*
X343937D01*
X344321Y296998D01*
X344647Y297216D01*
X344864Y297541D01*
X344940Y297925D01*
Y299000D01*
D02*
G37*
G36*
X443937Y300078D02*
X443453D01*
Y298000D01*
X444941D01*
Y299075D01*
X444864Y299459D01*
X444647Y299784D01*
X444321Y300002D01*
X443937Y300078D01*
D02*
G37*
G36*
X342453Y302078D02*
X341968D01*
X341584Y302002D01*
X341259Y301784D01*
X341041Y301459D01*
X340965Y301075D01*
Y300000D01*
X342453D01*
Y302078D01*
D02*
G37*
G36*
X384689Y298971D02*
X384575Y298948D01*
X384054Y298600D01*
X383933Y298420D01*
X383685Y298586D01*
X383221Y298678D01*
X382756Y298586D01*
X382362Y298323D01*
X382110D01*
X381716Y298586D01*
X381252Y298678D01*
X380787Y298586D01*
X380394Y298323D01*
X380142D01*
X379748Y298586D01*
X379283Y298678D01*
X378819Y298586D01*
X378425Y298323D01*
X378173D01*
X377780Y298586D01*
X377315Y298678D01*
X376850Y298586D01*
X376602Y298420D01*
X376482Y298600D01*
X375961Y298948D01*
X375847Y298971D01*
Y293921D01*
Y288872D01*
X375961Y288895D01*
X376482Y289243D01*
X376602Y289422D01*
X376850Y289257D01*
X377315Y289164D01*
X377780Y289257D01*
X378173Y289520D01*
X378425D01*
X378819Y289257D01*
X379283Y289164D01*
X379748Y289257D01*
X380142Y289520D01*
X380394D01*
X380787Y289257D01*
X381252Y289164D01*
X381716Y289257D01*
X382110Y289520D01*
X382362D01*
X382756Y289257D01*
X383221Y289164D01*
X383685Y289257D01*
X383933Y289422D01*
X384054Y289243D01*
X384575Y288895D01*
X384689Y288872D01*
Y293921D01*
Y298971D01*
D02*
G37*
G36*
X481575Y288240D02*
X480500D01*
Y286161D01*
X482578D01*
Y287236D01*
X482502Y287620D01*
X482284Y287946D01*
X481959Y288163D01*
X481575Y288240D01*
D02*
G37*
G36*
X479500D02*
X478425D01*
X478041Y288163D01*
X477716Y287946D01*
X477498Y287620D01*
X477422Y287236D01*
Y286161D01*
X479500D01*
Y288240D01*
D02*
G37*
G36*
X442453Y297000D02*
X440965D01*
Y295925D01*
X441041Y295541D01*
X441259Y295216D01*
X441584Y294998D01*
X441968Y294922D01*
X442453D01*
Y297000D01*
D02*
G37*
G36*
X342453Y299000D02*
X340965D01*
Y297925D01*
X341041Y297541D01*
X341259Y297216D01*
X341584Y296998D01*
X341968Y296922D01*
X342453D01*
Y299000D01*
D02*
G37*
G36*
X444941Y297000D02*
X443453D01*
Y294922D01*
X443937D01*
X444321Y294998D01*
X444647Y295216D01*
X444864Y295541D01*
X444941Y295925D01*
Y297000D01*
D02*
G37*
%LPD*%
D10*
X367079Y287622D02*
D03*
Y285653D02*
D03*
Y283685D02*
D03*
Y281716D02*
D03*
Y279748D02*
D03*
Y277780D02*
D03*
Y275811D02*
D03*
Y273843D02*
D03*
Y271874D02*
D03*
Y269905D02*
D03*
Y267937D02*
D03*
Y265968D02*
D03*
Y264000D02*
D03*
Y262032D02*
D03*
Y260063D02*
D03*
Y258095D02*
D03*
Y256126D02*
D03*
Y254157D02*
D03*
Y252189D02*
D03*
Y250220D02*
D03*
Y248252D02*
D03*
Y246284D02*
D03*
Y244315D02*
D03*
Y242347D02*
D03*
Y240378D02*
D03*
X426921D02*
D03*
Y242347D02*
D03*
Y244315D02*
D03*
Y246284D02*
D03*
Y248252D02*
D03*
Y250220D02*
D03*
Y252189D02*
D03*
Y254157D02*
D03*
Y256126D02*
D03*
Y258095D02*
D03*
Y260063D02*
D03*
Y262032D02*
D03*
Y264000D02*
D03*
Y265968D02*
D03*
Y267937D02*
D03*
Y269905D02*
D03*
Y271874D02*
D03*
Y273843D02*
D03*
Y275811D02*
D03*
Y277780D02*
D03*
Y279748D02*
D03*
Y281716D02*
D03*
Y283685D02*
D03*
Y285653D02*
D03*
Y287622D02*
D03*
D11*
X373378Y234079D02*
D03*
X375346D02*
D03*
X377315D02*
D03*
X379283D02*
D03*
X381252D02*
D03*
X383221D02*
D03*
X385189D02*
D03*
X387158D02*
D03*
X389126D02*
D03*
X391094D02*
D03*
X393063D02*
D03*
X395031D02*
D03*
X397000D02*
D03*
X398969D02*
D03*
X400937D02*
D03*
X402906D02*
D03*
X404874D02*
D03*
X406843D02*
D03*
X408811D02*
D03*
X410779D02*
D03*
X412748D02*
D03*
X414716D02*
D03*
X416685D02*
D03*
X418653D02*
D03*
X420622D02*
D03*
Y293921D02*
D03*
X418653D02*
D03*
X416685D02*
D03*
X414716D02*
D03*
X412748D02*
D03*
X410779D02*
D03*
X408811D02*
D03*
X406843D02*
D03*
X404874D02*
D03*
X402906D02*
D03*
X400937D02*
D03*
X398969D02*
D03*
X397000D02*
D03*
X395031D02*
D03*
X393063D02*
D03*
X391094D02*
D03*
X389126D02*
D03*
X387158D02*
D03*
X385189D02*
D03*
X383221D02*
D03*
X381252D02*
D03*
X379283D02*
D03*
X377315D02*
D03*
X375346D02*
D03*
X373378D02*
D03*
D12*
X462630Y270000D02*
D03*
Y275000D02*
D03*
Y265000D02*
D03*
Y280000D02*
D03*
X441370Y265000D02*
D03*
Y270000D02*
D03*
Y275000D02*
D03*
Y280000D02*
D03*
D13*
X470500Y269547D02*
D03*
Y275453D02*
D03*
X338000Y210547D02*
D03*
Y216453D02*
D03*
X400500Y222453D02*
D03*
Y216547D02*
D03*
X346815Y216441D02*
D03*
Y210535D02*
D03*
X472000Y241047D02*
D03*
Y246953D02*
D03*
X446500Y242047D02*
D03*
Y247953D02*
D03*
X421000Y218547D02*
D03*
Y224453D02*
D03*
X357500Y256047D02*
D03*
Y261953D02*
D03*
Y274453D02*
D03*
Y268547D02*
D03*
X379500Y222453D02*
D03*
Y216547D02*
D03*
X391000Y222953D02*
D03*
Y217047D02*
D03*
D14*
X480000Y268000D02*
D03*
Y277000D02*
D03*
Y259339D02*
D03*
Y285661D02*
D03*
D15*
X377937Y336921D02*
D03*
X390063D02*
D03*
D16*
X386953Y326488D02*
D03*
X384984D02*
D03*
X383016D02*
D03*
X381047D02*
D03*
D17*
X338890Y341000D02*
D03*
Y309701D02*
D03*
X357000Y341000D02*
D03*
Y309701D02*
D03*
D18*
X456260Y247913D02*
D03*
X463740D02*
D03*
Y237087D02*
D03*
X460000D02*
D03*
X456260D02*
D03*
D19*
X351547Y294500D02*
D03*
X357453D02*
D03*
X386547Y315500D02*
D03*
X392453D02*
D03*
X379953D02*
D03*
X374047D02*
D03*
X456547Y225500D02*
D03*
X462453D02*
D03*
X442953Y297500D02*
D03*
X437047D02*
D03*
X337047Y299500D02*
D03*
X342953D02*
D03*
D20*
X344488Y236854D02*
D03*
X355512D02*
D03*
X344488Y231146D02*
D03*
X355512D02*
D03*
D21*
X426921Y273843D02*
X431343D01*
X426921Y240247D02*
X434747D01*
X441000Y246500D02*
Y265000D01*
X367079Y262032D02*
X372031D01*
X426921Y283685D02*
X434204D01*
X426921Y242347D02*
X432346D01*
X381252Y227286D02*
Y234079D01*
X418653Y226799D02*
Y234079D01*
X385189Y228811D02*
Y234079D01*
X383221Y228539D02*
Y234079D01*
X418000Y287000D02*
X422345D01*
X426921Y281716D02*
X434476D01*
X361500Y264000D02*
X367079D01*
X361032Y265968D02*
X367079D01*
X422967Y287622D02*
X426921D01*
X421778Y277000D02*
X422681Y276097D01*
X426635D01*
X436500Y253150D02*
X437150Y252500D01*
X444500Y255500D02*
X453130D01*
X462630Y265000D01*
X439870D02*
X441000D01*
X434747Y240247D02*
X441000Y246500D01*
X462630Y270000D02*
X467722D01*
X461130D02*
X462630D01*
Y275000D02*
X467722D01*
X461130D02*
X462630D01*
X463000Y320000D02*
X465000Y322000D01*
X463000Y315500D02*
Y320000D01*
X358934Y216547D02*
X379500D01*
X355512Y219969D02*
X358934Y216547D01*
X355512Y219969D02*
Y231146D01*
X467722Y275000D02*
X468175Y275453D01*
X467722Y270000D02*
X468175Y269547D01*
X420622Y306122D02*
X426000Y311500D01*
X459000D01*
X463000Y315500D01*
X395031Y300532D02*
X417000Y322500D01*
X338890Y309701D02*
X343799D01*
X384984Y321516D02*
Y326488D01*
Y321516D02*
X386547Y319953D01*
Y315500D02*
Y319953D01*
X383016Y322016D02*
Y326488D01*
X379953Y318953D02*
X383016Y322016D01*
X379953Y315500D02*
Y318953D01*
Y312547D02*
X387158Y305343D01*
X379953Y312547D02*
Y315500D01*
X386547Y309453D02*
X389126Y306874D01*
X448000Y327500D02*
Y328500D01*
X337047Y307858D02*
X338890Y309701D01*
X337047Y299500D02*
Y307858D01*
X359453Y261953D02*
X361500Y264000D01*
X357500Y261953D02*
X359453D01*
X358453Y268547D02*
X361032Y265968D01*
X357500Y268547D02*
X358453D01*
X350441Y275606D02*
X357500Y268547D01*
X342500Y275606D02*
X350441D01*
X351941Y256394D02*
X357500Y261953D01*
X342500Y256394D02*
X351941D01*
X379980Y226014D02*
X381252Y227286D01*
X379980Y222933D02*
Y226014D01*
X379524Y222476D02*
X379980Y222933D01*
X385189Y228811D02*
X387000Y227000D01*
X395953D01*
X400500Y222453D01*
X418653Y226799D02*
X421000Y224453D01*
X471039Y247913D02*
X472000Y246953D01*
X463740Y247913D02*
X471039D01*
X461130Y275000D02*
X461583Y275453D01*
X491000Y277000D02*
X492500Y278500D01*
X480000Y277000D02*
X491000D01*
X477675D02*
X480000D01*
X476128Y275453D02*
X477675Y277000D01*
X470500Y275453D02*
X476128D01*
X461130Y270000D02*
X461583Y269547D01*
X477675Y268000D02*
X480000D01*
X491189D01*
X476128Y269547D02*
X477675Y268000D01*
X491189D02*
X492500Y266689D01*
X470500Y269547D02*
X476128D01*
X468175Y275453D02*
X470500D01*
X468175Y269547D02*
X470500D01*
X351547Y294500D02*
Y297043D01*
X338890Y309701D02*
X351547Y297043D01*
X343799Y309701D02*
X349000Y304500D01*
X360500D02*
X365500Y309500D01*
X349000Y304500D02*
X360500D01*
X420000Y277000D02*
X421778D01*
X426635Y276097D02*
X426921Y275811D01*
X351547Y291453D02*
Y294500D01*
Y291453D02*
X359000Y284000D01*
X372031Y262032D02*
X373500Y263500D01*
X374500D01*
X338000Y210047D02*
X338012Y210035D01*
Y210535D02*
X346815D01*
X338000Y210547D02*
X338012Y210535D01*
X383221Y228539D02*
X387533Y224226D01*
X387726D01*
X389000Y222953D01*
X391000D01*
X386953Y323547D02*
Y326488D01*
X431343Y273843D02*
X435584Y278084D01*
Y280584D01*
X434204Y283685D02*
X437047Y286528D01*
Y297500D01*
X418000Y286500D02*
Y287000D01*
X420622Y293921D02*
Y306122D01*
X395031Y293921D02*
Y300532D01*
X387158Y293921D02*
Y305343D01*
X389126Y293921D02*
Y306874D01*
X422345Y287000D02*
X422967Y287622D01*
X472500Y322000D02*
X478000Y327500D01*
X453000Y322500D02*
X458000Y327500D01*
X483000Y322500D02*
X488000Y327500D01*
X493000Y321500D02*
X498000Y326500D01*
Y327500D01*
X359241Y214000D02*
X387000D01*
X390047Y217047D01*
X391000D01*
X358584Y212416D02*
X396369D01*
X400500Y216547D01*
X341500Y233866D02*
X344488Y236854D01*
X341034Y228922D02*
Y233370D01*
X341500Y233836D01*
Y233866D01*
X341034Y228922D02*
X341674Y228282D01*
X342718D01*
X358584Y212416D01*
X344488Y231146D02*
X351084Y224550D01*
Y222156D02*
X359241Y214000D01*
X351084Y222156D02*
Y224550D01*
X465000Y322000D02*
X472500D01*
X417000Y322500D02*
X453000D01*
X493000Y315000D02*
Y321500D01*
X435584Y280584D02*
X449000Y294000D01*
X472000D01*
X493000Y315000D01*
X434476Y281716D02*
X448344Y295584D01*
X471344D01*
X483000Y307241D01*
Y322500D01*
X432346Y242347D02*
X434500Y244500D01*
X439500Y270000D02*
X441370D01*
X434500Y244500D02*
Y274500D01*
X386547Y309453D02*
Y315500D01*
D22*
X367107Y246255D02*
X371426D01*
X367107Y248280D02*
X371426D01*
X367107Y252217D02*
X372546D01*
X377287Y229732D02*
Y234051D01*
X420594Y234107D02*
X420622Y234079D01*
X419500Y239520D02*
X420594Y238426D01*
X375500Y227945D02*
X377287Y229732D01*
X371426Y248280D02*
X372646Y249500D01*
X374500D01*
X374000Y242500D02*
Y243681D01*
X371426Y246255D02*
X374000Y243681D01*
X420594Y234107D02*
Y238426D01*
X434500Y274500D02*
X440000Y280000D01*
D23*
X367107Y267965D02*
X371426D01*
X367107Y277752D02*
X372748D01*
X346815Y216441D02*
X350990D01*
X356857Y210574D01*
X375500Y227000D02*
Y227945D01*
X367079Y267937D02*
X367107Y267965D01*
X367079Y277780D02*
X367107Y277752D01*
X370500Y302000D02*
X373378Y299122D01*
X370500Y302000D02*
Y304500D01*
X369000Y308000D02*
Y310453D01*
X365000Y304000D02*
X369000Y308000D01*
X365000Y299500D02*
Y304000D01*
X357453Y294500D02*
X357500D01*
X369000Y310453D02*
X374047Y315500D01*
X392453Y311047D02*
X397000Y306500D01*
X357500Y294500D02*
X362500Y299500D01*
X365000D01*
X372748Y277752D02*
X373500Y277000D01*
X419000Y240020D02*
X419500Y239520D01*
X419000Y240020D02*
Y241500D01*
X373500Y277000D02*
X374500D01*
X371426Y267965D02*
X372461Y269000D01*
X374500D01*
Y254500D02*
Y258000D01*
X372500Y252500D02*
X374500Y254500D01*
X386953Y323547D02*
X392453Y318047D01*
X373378Y293921D02*
Y299122D01*
X440000Y280000D02*
X441370D01*
X392453Y315500D02*
Y318047D01*
Y311047D02*
Y315500D01*
X356857Y210574D02*
X429747D01*
X455547Y236374D01*
D24*
X446500Y247913D02*
X456260D01*
X457000Y214052D02*
Y226193D01*
X513500Y229500D02*
Y259000D01*
X510500Y262000D02*
X513500Y259000D01*
X457000Y214052D02*
X457045Y214006D01*
X444500Y249953D02*
X446500Y247953D01*
X444500Y249953D02*
Y255500D01*
X446500Y247913D02*
Y247953D01*
X504311Y278500D02*
X510500Y272311D01*
Y262000D02*
Y272311D01*
D25*
X436500Y267000D02*
X439500Y270000D01*
X436500Y253150D02*
Y267000D01*
D26*
X457000Y226193D02*
X463740Y232933D01*
X456260Y225750D02*
Y237087D01*
X463740Y232933D02*
Y237087D01*
D27*
X428000Y327500D02*
D03*
Y317500D02*
D03*
X438000D02*
D03*
Y327500D02*
D03*
X458000D02*
D03*
Y317500D02*
D03*
X448000D02*
D03*
Y327500D02*
D03*
X488000D02*
D03*
Y317500D02*
D03*
X498000D02*
D03*
Y327500D02*
D03*
X478000D02*
D03*
Y317500D02*
D03*
X468000D02*
D03*
Y327500D02*
D03*
X518000D02*
D03*
Y317500D02*
D03*
X508000D02*
D03*
Y327500D02*
D03*
D28*
X342500Y256394D02*
D03*
Y275606D02*
D03*
X493500Y229500D02*
D03*
X503500D02*
D03*
X513500D02*
D03*
D29*
X521319Y266689D02*
D03*
D30*
X504311D02*
D03*
Y278500D02*
D03*
Y254878D02*
D03*
X492500D02*
D03*
Y266689D02*
D03*
Y278500D02*
D03*
D31*
X436500Y211500D02*
D03*
X430500Y217000D02*
D03*
X411000Y258000D02*
D03*
X370000Y237000D02*
D03*
X485000Y280500D02*
D03*
X470500Y263000D02*
D03*
X455000Y264000D02*
D03*
X405000Y268000D02*
D03*
X374500Y286000D02*
D03*
X364000Y292000D02*
D03*
X473000Y282000D02*
D03*
X448500Y301500D02*
D03*
X352000Y279000D02*
D03*
X402000Y286000D02*
D03*
X400000Y325000D02*
D03*
X395000Y319500D02*
D03*
X378000Y255000D02*
D03*
X388500Y269000D02*
D03*
X389000Y261500D02*
D03*
X388500Y243500D02*
D03*
X486500Y261000D02*
D03*
X487000Y272500D02*
D03*
X501500Y283500D02*
D03*
X499500Y297500D02*
D03*
X470500Y236000D02*
D03*
X470000Y252500D02*
D03*
X462500Y257000D02*
D03*
X440500Y230000D02*
D03*
Y237500D02*
D03*
X434000Y223000D02*
D03*
X432500Y233500D02*
D03*
X457045Y214006D02*
D03*
X342500Y216500D02*
D03*
X361000Y280500D02*
D03*
X347500Y296500D02*
D03*
X377500Y325500D02*
D03*
X362000Y315000D02*
D03*
X406500Y215000D02*
D03*
Y223000D02*
D03*
X350000Y230500D02*
D03*
X357500Y251500D02*
D03*
X373500Y273000D02*
D03*
X380500Y283000D02*
D03*
X511500Y285500D02*
D03*
X519500Y292500D02*
D03*
X506500Y301500D02*
D03*
X493000Y293500D02*
D03*
X460000Y289500D02*
D03*
X448500Y274500D02*
D03*
X451500Y306000D02*
D03*
X433500Y290000D02*
D03*
X427000Y293000D02*
D03*
X437500Y306000D02*
D03*
X408500Y305500D02*
D03*
X416000Y315000D02*
D03*
X406500Y319000D02*
D03*
X401000Y311000D02*
D03*
X437150Y252500D02*
D03*
X444500Y255500D02*
D03*
X370500Y304500D02*
D03*
X375500Y227000D02*
D03*
X365500Y309500D02*
D03*
X397000Y306500D02*
D03*
X365000Y299500D02*
D03*
X420000Y277000D02*
D03*
X359000Y284000D02*
D03*
X374500Y263500D02*
D03*
X419000Y241500D02*
D03*
X374500Y249500D02*
D03*
Y277000D02*
D03*
Y269000D02*
D03*
X374000Y242500D02*
D03*
X374500Y258000D02*
D03*
X418000Y286500D02*
D03*
M02*
