G04 Layer_Color=65535*
%FSLAX25Y25*%
%MOIN*%
G70*
G01*
G75*
%ADD21C,0.00984*%
%ADD22C,0.01000*%
%ADD26C,0.02362*%
%ADD34C,0.00787*%
%ADD35C,0.00591*%
D21*
X367571Y290378D02*
G03*
X367571Y290378I-492J0D01*
G01*
X441862Y283347D02*
G03*
X441862Y283347I-492J0D01*
G01*
X453406Y237087D02*
G03*
X453406Y237087I-492J0D01*
G01*
D22*
X516390Y221646D02*
G03*
X516390Y221646I-500J0D01*
G01*
X516890D02*
G03*
X516890Y221646I-1000J0D01*
G01*
X517471D02*
G03*
X517471Y221646I-1581J0D01*
G01*
X518039Y221724D02*
G03*
X518039Y221724I-2236J0D01*
G01*
X340000Y226500D02*
Y240000D01*
Y226500D02*
X360000D01*
Y241500D01*
X340000D02*
X360000D01*
X340000Y238000D02*
Y241500D01*
X357500Y226500D02*
X360000Y229000D01*
Y226500D02*
Y229000D01*
Y226500D02*
Y227500D01*
X359000Y226500D02*
X360000Y227500D01*
X357500Y226500D02*
X359000D01*
X358250D02*
X359000D01*
X360000Y227500D01*
X359000Y226500D02*
X360000Y227500D01*
X358250Y226500D02*
X359000D01*
X358250D02*
Y226750D01*
X359000Y227500D01*
X358750Y227750D02*
X360000D01*
D26*
X377906Y284276D02*
G03*
X377906Y284276I-1181J0D01*
G01*
D34*
X333347Y252811D02*
G03*
X351654Y252811I9154J0D01*
G01*
Y279189D02*
G03*
X333347Y279189I-9154J0D01*
G01*
X372787Y239787D02*
Y288213D01*
X421213Y239787D02*
Y288213D01*
X372787D02*
X421213D01*
X372787Y239787D02*
X421213D01*
X445898Y262854D02*
X458102D01*
X445898Y282146D02*
X458102D01*
Y262854D02*
Y282146D01*
X445898Y262854D02*
Y282146D01*
X407000Y303000D02*
Y342500D01*
Y303000D02*
X539000D01*
Y342500D01*
X407000D02*
X539000D01*
X513000D02*
X518000Y337500D01*
X523000Y342500D01*
X392858Y323043D02*
Y340957D01*
X375142D02*
X392858D01*
X375142Y323043D02*
Y340957D01*
Y323043D02*
X392858D01*
X333347Y252811D02*
Y279189D01*
X351654Y252811D02*
Y279189D01*
X343220Y343165D02*
X352669D01*
X343220Y307732D02*
X352571D01*
X359953Y314327D02*
Y336374D01*
X336331Y314819D02*
Y336374D01*
X540216Y240311D02*
Y293067D01*
X487559Y240311D02*
X540216D01*
X487559D02*
Y293067D01*
X540216D01*
X454193Y244370D02*
X465807D01*
X454193Y240630D02*
X465807D01*
Y244370D01*
X454193Y240630D02*
Y244370D01*
X520921Y208142D02*
Y235898D01*
X486079D02*
X520921D01*
X486079Y208142D02*
Y235898D01*
Y208142D02*
X520921D01*
X334850Y207988D02*
X341150D01*
Y219012D01*
X334850D02*
X341150D01*
X334850Y207988D02*
Y219012D01*
X467350Y266988D02*
X473650D01*
Y278012D01*
X467350D02*
X473650D01*
X467350Y266988D02*
Y278012D01*
X348988Y291350D02*
Y297650D01*
Y291350D02*
X360012D01*
Y297650D01*
X348988D02*
X360012D01*
X397350Y225012D02*
X403650D01*
X397350Y213988D02*
Y225012D01*
Y213988D02*
X403650D01*
Y225012D01*
X383988Y312350D02*
Y318650D01*
Y312350D02*
X395012D01*
Y318650D01*
X383988D02*
X395012D01*
X382512Y312350D02*
Y318650D01*
X371488D02*
X382512D01*
X371488Y312350D02*
Y318650D01*
Y312350D02*
X382512D01*
X343653Y219012D02*
X349953D01*
X343653Y207988D02*
Y219012D01*
Y207988D02*
X349953D01*
Y219012D01*
X346803Y213106D02*
X347590Y213894D01*
X346606D02*
X347590D01*
X346016D02*
X346803Y213106D01*
X346016Y213894D02*
X346606D01*
X476800Y271169D02*
X483200D01*
Y256169D02*
Y271169D01*
X476800Y256169D02*
X483200D01*
X476800D02*
Y271169D01*
Y273831D02*
X483200D01*
X476800D02*
Y288831D01*
X483200D01*
Y273831D02*
Y288831D01*
X453988Y222350D02*
Y228650D01*
Y222350D02*
X465012D01*
Y228650D01*
X453988D02*
X465012D01*
X468850Y238488D02*
X475150D01*
Y249512D01*
X468850D02*
X475150D01*
X468850Y238488D02*
Y249512D01*
X443350Y239488D02*
X449650D01*
Y250512D01*
X443350D02*
X449650D01*
X443350Y239488D02*
Y250512D01*
X417850Y215988D02*
X424150D01*
Y227012D01*
X417850D02*
X424150D01*
X417850Y215988D02*
Y227012D01*
X445512Y294350D02*
Y300650D01*
X434488D02*
X445512D01*
X434488Y294350D02*
Y300650D01*
Y294350D02*
X445512D01*
X334488Y296350D02*
Y302650D01*
Y296350D02*
X345512D01*
Y302650D01*
X334488D02*
X345512D01*
X354350Y253488D02*
X360650D01*
Y264512D01*
X354350D02*
X360650D01*
X354350Y253488D02*
Y264512D01*
Y277012D02*
X360650D01*
X354350Y265988D02*
Y277012D01*
Y265988D02*
X360650D01*
Y277012D01*
X376350Y225012D02*
X382650D01*
X376350Y213988D02*
Y225012D01*
Y213988D02*
X382650D01*
Y225012D01*
X387850Y225512D02*
X394150D01*
X387850Y214488D02*
Y225512D01*
Y214488D02*
X394150D01*
Y225512D01*
X365500Y297436D02*
Y294156D01*
X366156Y293500D01*
X367468D01*
X368124Y294156D01*
Y297436D01*
X369436Y293500D02*
X370748D01*
X370092D01*
Y297436D01*
X369436Y296780D01*
X395500Y330500D02*
Y334436D01*
X397468D01*
X398124Y333780D01*
Y332468D01*
X397468Y331812D01*
X395500D01*
X401404Y330500D02*
Y334436D01*
X399436Y332468D01*
X402060D01*
X333000Y292936D02*
X335624Y289000D01*
Y292936D02*
X333000Y289000D01*
X336936D02*
X338248D01*
X337592D01*
Y292936D01*
X336936Y292280D01*
X364780Y335876D02*
X365436Y336532D01*
Y337844D01*
X364780Y338500D01*
X364124D01*
X363468Y337844D01*
Y336532D01*
X362812Y335876D01*
X362156D01*
X361500Y336532D01*
Y337844D01*
X362156Y338500D01*
X365436Y334564D02*
X361500D01*
X362812Y333252D01*
X361500Y331940D01*
X365436D01*
X361500Y328005D02*
Y330628D01*
X364124Y328005D01*
X364780D01*
X365436Y328661D01*
Y329973D01*
X364780Y330628D01*
X486819Y296689D02*
Y300625D01*
X488787D01*
X489443Y299969D01*
Y298657D01*
X488787Y298001D01*
X486819D01*
X493378Y296689D02*
X490755D01*
X493378Y299313D01*
Y299969D01*
X492723Y300625D01*
X491411D01*
X490755Y299969D01*
X455500Y255436D02*
Y252156D01*
X456156Y251500D01*
X457468D01*
X458124Y252156D01*
Y255436D01*
X461404Y251500D02*
Y255436D01*
X459436Y253468D01*
X462060D01*
X478500Y240936D02*
Y237656D01*
X479156Y237000D01*
X480468D01*
X481124Y237656D01*
Y240936D01*
X482436Y240280D02*
X483092Y240936D01*
X484404D01*
X485060Y240280D01*
Y239624D01*
X484404Y238968D01*
X483748D01*
X484404D01*
X485060Y238312D01*
Y237656D01*
X484404Y237000D01*
X483092D01*
X482436Y237656D01*
X449500Y288936D02*
Y285656D01*
X450156Y285000D01*
X451468D01*
X452124Y285656D01*
Y288936D01*
X456060Y285000D02*
X453436D01*
X456060Y287624D01*
Y288280D01*
X455404Y288936D01*
X454092D01*
X453436Y288280D01*
X335000Y220500D02*
Y224436D01*
X336968D01*
X337624Y223780D01*
Y222468D01*
X336968Y221812D01*
X335000D01*
X336312D02*
X337624Y220500D01*
X338936Y223780D02*
X339592Y224436D01*
X340904D01*
X341560Y223780D01*
Y223124D01*
X340904Y222468D01*
X341560Y221812D01*
Y221156D01*
X340904Y220500D01*
X339592D01*
X338936Y221156D01*
Y221812D01*
X339592Y222468D01*
X338936Y223124D01*
Y223780D01*
X339592Y222468D02*
X340904D01*
X467000Y282500D02*
Y286436D01*
X468968D01*
X469624Y285780D01*
Y284468D01*
X468968Y283812D01*
X467000D01*
X468312D02*
X469624Y282500D01*
X470936Y286436D02*
X473560D01*
Y285780D01*
X470936Y283156D01*
Y282500D01*
X374000Y219000D02*
X370064D01*
Y220968D01*
X370720Y221624D01*
X372032D01*
X372688Y220968D01*
Y219000D01*
Y220312D02*
X374000Y221624D01*
X370064Y225560D02*
X370720Y224248D01*
X372032Y222936D01*
X373344D01*
X374000Y223592D01*
Y224904D01*
X373344Y225560D01*
X372688D01*
X372032Y224904D01*
Y222936D01*
X388000Y209000D02*
Y212936D01*
X389968D01*
X390624Y212280D01*
Y210968D01*
X389968Y210312D01*
X388000D01*
X389312D02*
X390624Y209000D01*
X394560Y212936D02*
X391936D01*
Y210968D01*
X393248Y211624D01*
X393904D01*
X394560Y210968D01*
Y209656D01*
X393904Y209000D01*
X392592D01*
X391936Y209656D01*
X353000Y286000D02*
Y289936D01*
X354968D01*
X355624Y289280D01*
Y287968D01*
X354968Y287312D01*
X353000D01*
X354312D02*
X355624Y286000D01*
X358904D02*
Y289936D01*
X356936Y287968D01*
X359560D01*
X397500Y208500D02*
Y212436D01*
X399468D01*
X400124Y211780D01*
Y210468D01*
X399468Y209812D01*
X397500D01*
X398812D02*
X400124Y208500D01*
X401436Y211780D02*
X402092Y212436D01*
X403404D01*
X404060Y211780D01*
Y211124D01*
X403404Y210468D01*
X402748D01*
X403404D01*
X404060Y209812D01*
Y209156D01*
X403404Y208500D01*
X402092D01*
X401436Y209156D01*
X397000Y313500D02*
Y317436D01*
X398968D01*
X399624Y316780D01*
Y315468D01*
X398968Y314812D01*
X397000D01*
X398312D02*
X399624Y313500D01*
X403560D02*
X400936D01*
X403560Y316124D01*
Y316780D01*
X402904Y317436D01*
X401592D01*
X400936Y316780D01*
X367500Y321000D02*
Y324936D01*
X369468D01*
X370124Y324280D01*
Y322968D01*
X369468Y322312D01*
X367500D01*
X368812D02*
X370124Y321000D01*
X371436D02*
X372748D01*
X372092D01*
Y324936D01*
X371436Y324280D01*
X462000Y296000D02*
Y299936D01*
X463968D01*
X464624Y299280D01*
Y297968D01*
X463968Y297312D01*
X462000D01*
X465936Y296000D02*
X467248D01*
X466592D01*
Y299936D01*
X465936Y299280D01*
X344000Y224936D02*
Y221000D01*
X345968D01*
X346624Y221656D01*
Y224280D01*
X345968Y224936D01*
X344000D01*
X347936Y224280D02*
X348592Y224936D01*
X349904D01*
X350560Y224280D01*
Y223624D01*
X349904Y222968D01*
X350560Y222312D01*
Y221656D01*
X349904Y221000D01*
X348592D01*
X347936Y221656D01*
Y222312D01*
X348592Y222968D01*
X347936Y223624D01*
Y224280D01*
X348592Y222968D02*
X349904D01*
X333564Y235500D02*
X337500D01*
Y237468D01*
X336844Y238124D01*
X334220D01*
X333564Y237468D01*
Y235500D01*
Y242060D02*
Y239436D01*
X335532D01*
X334876Y240748D01*
Y241404D01*
X335532Y242060D01*
X336844D01*
X337500Y241404D01*
Y240092D01*
X336844Y239436D01*
X477000Y254105D02*
Y250169D01*
X478968D01*
X479624Y250825D01*
Y253449D01*
X478968Y254105D01*
X477000D01*
X482904Y250169D02*
Y254105D01*
X480936Y252137D01*
X483560D01*
X476500Y294266D02*
Y290331D01*
X478468D01*
X479124Y290987D01*
Y293611D01*
X478468Y294266D01*
X476500D01*
X480436Y293611D02*
X481092Y294266D01*
X482404D01*
X483060Y293611D01*
Y292954D01*
X482404Y292299D01*
X481748D01*
X482404D01*
X483060Y291643D01*
Y290987D01*
X482404Y290331D01*
X481092D01*
X480436Y290987D01*
X457124Y219780D02*
X456468Y220436D01*
X455156D01*
X454500Y219780D01*
Y217156D01*
X455156Y216500D01*
X456468D01*
X457124Y217156D01*
X458436Y216500D02*
X459748D01*
X459092D01*
Y220436D01*
X458436Y219780D01*
X464339Y216500D02*
X461716D01*
X464339Y219124D01*
Y219780D01*
X463683Y220436D01*
X462371D01*
X461716Y219780D01*
X467624Y257780D02*
X466968Y258436D01*
X465656D01*
X465000Y257780D01*
Y255156D01*
X465656Y254500D01*
X466968D01*
X467624Y255156D01*
X468936Y254500D02*
X470248D01*
X469592D01*
Y258436D01*
X468936Y257780D01*
X472216D02*
X472871Y258436D01*
X474183D01*
X474839Y257780D01*
Y255156D01*
X474183Y254500D01*
X472871D01*
X472216Y255156D01*
Y257780D01*
X444124Y236280D02*
X443468Y236936D01*
X442156D01*
X441500Y236280D01*
Y233656D01*
X442156Y233000D01*
X443468D01*
X444124Y233656D01*
X448060Y236936D02*
X446748Y236280D01*
X445436Y234968D01*
Y233656D01*
X446092Y233000D01*
X447404D01*
X448060Y233656D01*
Y234312D01*
X447404Y234968D01*
X445436D01*
X420624Y213780D02*
X419968Y214436D01*
X418656D01*
X418000Y213780D01*
Y211156D01*
X418656Y210500D01*
X419968D01*
X420624Y211156D01*
X424560Y214436D02*
X421936D01*
Y212468D01*
X423248Y213124D01*
X423904D01*
X424560Y212468D01*
Y211156D01*
X423904Y210500D01*
X422592D01*
X421936Y211156D01*
X429124Y299280D02*
X428468Y299936D01*
X427156D01*
X426500Y299280D01*
Y296656D01*
X427156Y296000D01*
X428468D01*
X429124Y296656D01*
X432404Y296000D02*
Y299936D01*
X430436Y297968D01*
X433060D01*
X342624Y294280D02*
X341968Y294936D01*
X340656D01*
X340000Y294280D01*
Y291656D01*
X340656Y291000D01*
X341968D01*
X342624Y291656D01*
X343936Y294280D02*
X344592Y294936D01*
X345904D01*
X346560Y294280D01*
Y293624D01*
X345904Y292968D01*
X345248D01*
X345904D01*
X346560Y292312D01*
Y291656D01*
X345904Y291000D01*
X344592D01*
X343936Y291656D01*
X357376Y246220D02*
X358032Y245564D01*
X359344D01*
X360000Y246220D01*
Y248844D01*
X359344Y249500D01*
X358032D01*
X357376Y248844D01*
X353440Y249500D02*
X356064D01*
X353440Y246876D01*
Y246220D01*
X354096Y245564D01*
X355408D01*
X356064Y246220D01*
X356624Y281780D02*
X355968Y282436D01*
X354656D01*
X354000Y281780D01*
Y279156D01*
X354656Y278500D01*
X355968D01*
X356624Y279156D01*
X357936Y278500D02*
X359248D01*
X358592D01*
Y282436D01*
X357936Y281780D01*
D35*
X351590Y214231D02*
Y218166D01*
X353558D01*
X354214Y217511D01*
Y216199D01*
X353558Y215543D01*
X351590D01*
X356182Y214231D02*
X357494D01*
X358150Y214887D01*
Y216199D01*
X357494Y216855D01*
X356182D01*
X355526Y216199D01*
Y214887D01*
X356182Y214231D01*
X359462Y216855D02*
Y214887D01*
X360118Y214231D01*
X360774Y214887D01*
X361430Y214231D01*
X362086Y214887D01*
Y216855D01*
X365366Y214231D02*
X364054D01*
X363398Y214887D01*
Y216199D01*
X364054Y216855D01*
X365366D01*
X366022Y216199D01*
Y215543D01*
X363398D01*
X367334Y216855D02*
Y214231D01*
Y215543D01*
X367989Y216199D01*
X368645Y216855D01*
X369301D01*
X351590Y212026D02*
X352902D01*
X352246D01*
Y208090D01*
X351590D01*
X352902D01*
X354870D02*
Y210714D01*
X356838D01*
X357494Y210058D01*
Y208090D01*
X361430Y212026D02*
Y208090D01*
X359462D01*
X358806Y208747D01*
Y210058D01*
X359462Y210714D01*
X361430D01*
X362742Y208090D02*
X364054D01*
X363398D01*
Y210714D01*
X362742D01*
X368645D02*
X366677D01*
X366022Y210058D01*
Y208747D01*
X366677Y208090D01*
X368645D01*
X370613Y210714D02*
X371925D01*
X372581Y210058D01*
Y208090D01*
X370613D01*
X369957Y208747D01*
X370613Y209402D01*
X372581D01*
X374549Y211370D02*
Y210714D01*
X373893D01*
X375205D01*
X374549D01*
Y208747D01*
X375205Y208090D01*
X377829D02*
X379141D01*
X379797Y208747D01*
Y210058D01*
X379141Y210714D01*
X377829D01*
X377173Y210058D01*
Y208747D01*
X377829Y208090D01*
X381109Y210714D02*
Y208090D01*
Y209402D01*
X381765Y210058D01*
X382420Y210714D01*
X383077D01*
M02*
