G04 Layer_Physical_Order=2*
G04 Layer_Color=16711680*
%FSLAX25Y25*%
%MOIN*%
G70*
G01*
G75*
%ADD13R,0.03150X0.01968*%
%ADD19R,0.01968X0.03150*%
%ADD21C,0.00984*%
%ADD23C,0.01500*%
%ADD24C,0.03937*%
%ADD25C,0.01575*%
%ADD27C,0.06500*%
%ADD28C,0.07874*%
%ADD29C,0.13780*%
%ADD30C,0.06693*%
%ADD31C,0.02756*%
%ADD32R,0.10000X0.10500*%
%ADD33R,0.05000X0.03000*%
G36*
X541296Y207204D02*
X331704Y207204D01*
Y344296D01*
X541296Y344296D01*
X541296Y207204D01*
D02*
G37*
%LPC*%
G36*
X384937Y262578D02*
X384453D01*
Y260500D01*
X385941D01*
Y261575D01*
X385864Y261959D01*
X385647Y262284D01*
X385321Y262502D01*
X384937Y262578D01*
D02*
G37*
G36*
X383453D02*
X382968D01*
X382585Y262502D01*
X382259Y262284D01*
X382041Y261959D01*
X381965Y261575D01*
Y260500D01*
X383453D01*
Y262578D01*
D02*
G37*
G36*
X508613Y266189D02*
X504811D01*
Y262387D01*
X505442Y262470D01*
X506495Y262906D01*
X507400Y263600D01*
X508094Y264505D01*
X508530Y265558D01*
X508613Y266189D01*
D02*
G37*
G36*
X503811D02*
X500009D01*
X500092Y265558D01*
X500528Y264505D01*
X501222Y263600D01*
X502127Y262906D01*
X503181Y262470D01*
X503811Y262387D01*
Y266189D01*
D02*
G37*
G36*
X384937Y253078D02*
X384453D01*
Y251000D01*
X385941D01*
Y252075D01*
X385864Y252459D01*
X385647Y252784D01*
X385321Y253002D01*
X384937Y253078D01*
D02*
G37*
G36*
X383453D02*
X382968D01*
X382585Y253002D01*
X382259Y252784D01*
X382041Y252459D01*
X381965Y252075D01*
Y251000D01*
X383453D01*
Y253078D01*
D02*
G37*
G36*
X521319Y274215D02*
X519851Y274070D01*
X518439Y273642D01*
X517138Y272947D01*
X515997Y272011D01*
X515061Y270870D01*
X514366Y269569D01*
X513938Y268157D01*
X513793Y266689D01*
X513938Y265221D01*
X514366Y263809D01*
X515061Y262508D01*
X515997Y261367D01*
X517138Y260431D01*
X518439Y259736D01*
X519851Y259308D01*
X521319Y259163D01*
X522787Y259308D01*
X524199Y259736D01*
X525500Y260431D01*
X526641Y261367D01*
X527576Y262508D01*
X528272Y263809D01*
X528700Y265221D01*
X528845Y266689D01*
X528700Y268157D01*
X528272Y269569D01*
X527576Y270870D01*
X526641Y272011D01*
X525500Y272947D01*
X524199Y273642D01*
X522787Y274070D01*
X521319Y274215D01*
D02*
G37*
G36*
X342500Y260970D02*
X341316Y260814D01*
X340212Y260357D01*
X339264Y259630D01*
X338537Y258682D01*
X338080Y257578D01*
X337924Y256394D01*
X338080Y255209D01*
X338537Y254106D01*
X339264Y253158D01*
X340212Y252431D01*
X341316Y251974D01*
X342500Y251817D01*
X343684Y251974D01*
X344788Y252431D01*
X345736Y253158D01*
X346463Y254106D01*
X346920Y255209D01*
X347076Y256394D01*
X346920Y257578D01*
X346463Y258682D01*
X345736Y259630D01*
X344788Y260357D01*
X343684Y260814D01*
X342500Y260970D01*
D02*
G37*
G36*
Y280183D02*
X341316Y280027D01*
X340212Y279569D01*
X339264Y278842D01*
X338537Y277894D01*
X338080Y276791D01*
X337924Y275606D01*
X338080Y274422D01*
X338537Y273318D01*
X339264Y272371D01*
X340212Y271643D01*
X341316Y271186D01*
X342500Y271030D01*
X343684Y271186D01*
X344788Y271643D01*
X345736Y272371D01*
X346463Y273318D01*
X346920Y274422D01*
X347076Y275606D01*
X346920Y276791D01*
X346463Y277894D01*
X345736Y278842D01*
X344788Y279569D01*
X343684Y280027D01*
X342500Y280183D01*
D02*
G37*
G36*
X384937Y272578D02*
X384453D01*
Y270500D01*
X385941D01*
Y271575D01*
X385864Y271959D01*
X385647Y272284D01*
X385321Y272502D01*
X384937Y272578D01*
D02*
G37*
G36*
X504311Y282481D02*
X503281Y282345D01*
X502321Y281947D01*
X501496Y281315D01*
X500864Y280490D01*
X500466Y279530D01*
X500330Y278500D01*
X500466Y277470D01*
X500864Y276510D01*
X501496Y275685D01*
X502321Y275053D01*
X503281Y274655D01*
X504311Y274519D01*
X505341Y274655D01*
X506301Y275053D01*
X507126Y275685D01*
X507758Y276510D01*
X508156Y277470D01*
X508291Y278500D01*
X508156Y279530D01*
X507758Y280490D01*
X507126Y281315D01*
X506301Y281947D01*
X505341Y282345D01*
X504311Y282481D01*
D02*
G37*
G36*
X492500D02*
X491470Y282345D01*
X490510Y281947D01*
X489685Y281315D01*
X489053Y280490D01*
X488655Y279530D01*
X488519Y278500D01*
X488655Y277470D01*
X489053Y276510D01*
X489685Y275685D01*
X490510Y275053D01*
X491470Y274655D01*
X492500Y274519D01*
X493530Y274655D01*
X494490Y275053D01*
X495315Y275685D01*
X495947Y276510D01*
X496345Y277470D01*
X496481Y278500D01*
X496345Y279530D01*
X495947Y280490D01*
X495315Y281315D01*
X494490Y281947D01*
X493530Y282345D01*
X492500Y282481D01*
D02*
G37*
G36*
X503811Y270991D02*
X503181Y270908D01*
X502127Y270472D01*
X501222Y269778D01*
X500528Y268873D01*
X500092Y267819D01*
X500009Y267189D01*
X503811D01*
Y270991D01*
D02*
G37*
G36*
X492500Y270670D02*
X491470Y270534D01*
X490510Y270136D01*
X489685Y269504D01*
X489053Y268679D01*
X488655Y267719D01*
X488519Y266689D01*
X488655Y265659D01*
X489053Y264699D01*
X489685Y263874D01*
X490510Y263242D01*
X491470Y262844D01*
X492500Y262708D01*
X493530Y262844D01*
X494490Y263242D01*
X495315Y263874D01*
X495947Y264699D01*
X496345Y265659D01*
X496481Y266689D01*
X496345Y267719D01*
X495947Y268679D01*
X495315Y269504D01*
X494490Y270136D01*
X493530Y270534D01*
X492500Y270670D01*
D02*
G37*
G36*
X383453Y272578D02*
X382968D01*
X382585Y272502D01*
X382259Y272284D01*
X382041Y271959D01*
X381965Y271575D01*
Y270500D01*
X383453D01*
Y272578D01*
D02*
G37*
G36*
X504811Y270991D02*
Y267189D01*
X508613D01*
X508530Y267819D01*
X508094Y268873D01*
X507400Y269778D01*
X506495Y270472D01*
X505442Y270908D01*
X504811Y270991D01*
D02*
G37*
G36*
X363547Y227578D02*
X363063D01*
X362679Y227502D01*
X362353Y227284D01*
X362136Y226959D01*
X362059Y226575D01*
Y225500D01*
X363547D01*
Y227578D01*
D02*
G37*
G36*
X504000Y234398D02*
Y229500D01*
Y224602D01*
X504785Y224705D01*
X505982Y225201D01*
X507010Y225990D01*
X507799Y227018D01*
X508295Y228215D01*
X508421Y229176D01*
X508442Y229332D01*
X508946D01*
X508966Y229176D01*
X509080Y228316D01*
X509537Y227212D01*
X510264Y226264D01*
X511212Y225537D01*
X512316Y225080D01*
X513500Y224924D01*
X514684Y225080D01*
X515788Y225537D01*
X516736Y226264D01*
X517463Y227212D01*
X517920Y228316D01*
X518076Y229500D01*
X517920Y230684D01*
X517463Y231788D01*
X516736Y232736D01*
X515788Y233463D01*
X514684Y233920D01*
X513500Y234076D01*
X512316Y233920D01*
X511212Y233463D01*
X510264Y232736D01*
X509537Y231788D01*
X509080Y230684D01*
X508966Y229824D01*
X508946Y229668D01*
X508442D01*
X508421Y229824D01*
X508295Y230785D01*
X507799Y231982D01*
X507010Y233010D01*
X505982Y233799D01*
X504785Y234295D01*
X504000Y234398D01*
D02*
G37*
G36*
X503000D02*
X502215Y234295D01*
X501018Y233799D01*
X499990Y233010D01*
X499201Y231982D01*
X498705Y230785D01*
X498579Y229824D01*
X498558Y229668D01*
X498054D01*
X498034Y229824D01*
X497920Y230684D01*
X497463Y231788D01*
X496736Y232736D01*
X495788Y233463D01*
X494684Y233920D01*
X493500Y234076D01*
X492316Y233920D01*
X491212Y233463D01*
X490264Y232736D01*
X489769Y232091D01*
X478500D01*
X477830Y232002D01*
X477205Y231744D01*
X476668Y231332D01*
X472986Y227649D01*
X472000D01*
X471541Y227459D01*
X471351Y227000D01*
Y224000D01*
X471541Y223541D01*
X472000Y223351D01*
X473082D01*
X473205Y223256D01*
X473830Y222998D01*
X474500Y222909D01*
X475171Y222998D01*
X475795Y223256D01*
X475918Y223351D01*
X477000D01*
X477459Y223541D01*
X477649Y224000D01*
Y224986D01*
X479573Y226909D01*
X489769D01*
X490264Y226264D01*
X491212Y225537D01*
X492316Y225080D01*
X493500Y224924D01*
X494684Y225080D01*
X495788Y225537D01*
X496736Y226264D01*
X497463Y227212D01*
X497920Y228316D01*
X498034Y229176D01*
X498054Y229332D01*
X498558D01*
X498579Y229176D01*
X498705Y228215D01*
X499201Y227018D01*
X499990Y225990D01*
X501018Y225201D01*
X502215Y224705D01*
X503000Y224602D01*
Y229500D01*
Y234398D01*
D02*
G37*
G36*
X365032Y227578D02*
X364547D01*
Y225500D01*
X366035D01*
Y226575D01*
X365959Y226959D01*
X365741Y227284D01*
X365416Y227502D01*
X365032Y227578D01*
D02*
G37*
G36*
X363547Y224500D02*
X362059D01*
Y223425D01*
X362136Y223041D01*
X362353Y222716D01*
X362679Y222498D01*
X363063Y222422D01*
X363547D01*
Y224500D01*
D02*
G37*
G36*
X437150Y254517D02*
X436379Y254363D01*
X435724Y253926D01*
X435287Y253272D01*
X435134Y252500D01*
X435287Y251728D01*
X435724Y251074D01*
X435736Y251066D01*
Y217850D01*
X435844Y217308D01*
X436150Y216849D01*
X439980Y213019D01*
X440439Y212713D01*
X440980Y212605D01*
X454883D01*
X455213Y212175D01*
X455750Y211763D01*
X456375Y211504D01*
X457045Y211416D01*
X468851D01*
Y211000D01*
X469041Y210541D01*
X469500Y210351D01*
X479500D01*
X479959Y210541D01*
X480149Y211000D01*
Y214409D01*
X526351D01*
Y211750D01*
X526541Y211291D01*
X527000Y211101D01*
X537000D01*
X537459Y211291D01*
X537649Y211750D01*
Y222250D01*
X537459Y222709D01*
X537000Y222899D01*
X527000D01*
X526541Y222709D01*
X526351Y222250D01*
Y219591D01*
X480149D01*
Y221500D01*
X479959Y221959D01*
X479500Y222149D01*
X469500D01*
X469041Y221959D01*
X468851Y221500D01*
Y216597D01*
X457045D01*
X456375Y216509D01*
X455750Y216250D01*
X455213Y215838D01*
X454903Y215434D01*
X441567D01*
X438565Y218436D01*
Y251066D01*
X438576Y251074D01*
X439014Y251728D01*
X439167Y252500D01*
X439014Y253272D01*
X438576Y253926D01*
X437922Y254363D01*
X437150Y254517D01*
D02*
G37*
G36*
X521500Y338091D02*
X436000D01*
X435329Y338002D01*
X434705Y337744D01*
X434168Y337332D01*
X428194Y331358D01*
X428000Y331383D01*
X426995Y331251D01*
X426058Y330863D01*
X425254Y330246D01*
X424637Y329442D01*
X424249Y328505D01*
X424117Y327500D01*
X424249Y326495D01*
X424637Y325558D01*
X425254Y324754D01*
X426058Y324137D01*
X426115Y324113D01*
X426016Y323614D01*
X402500D01*
X402500Y323614D01*
X402074Y323529D01*
X401713Y323287D01*
X401713Y323287D01*
X389039Y310613D01*
X367135D01*
X366926Y310926D01*
X366272Y311363D01*
X365500Y311517D01*
X364728Y311363D01*
X364074Y310926D01*
X363637Y310272D01*
X363483Y309500D01*
X363637Y308728D01*
X364074Y308074D01*
X364728Y307637D01*
X365500Y307483D01*
X366272Y307637D01*
X366926Y308074D01*
X367135Y308386D01*
X389500D01*
X389926Y308471D01*
X390287Y308713D01*
X402961Y321387D01*
X426016D01*
X426115Y320886D01*
X426058Y320863D01*
X425254Y320246D01*
X424637Y319442D01*
X424249Y318505D01*
X424117Y317500D01*
X424249Y316495D01*
X424637Y315558D01*
X425254Y314754D01*
X426058Y314137D01*
X426995Y313749D01*
X428000Y313617D01*
X429005Y313749D01*
X429942Y314137D01*
X430746Y314754D01*
X431363Y315558D01*
X431751Y316495D01*
X431883Y317500D01*
X431751Y318505D01*
X431363Y319442D01*
X430746Y320246D01*
X429942Y320863D01*
X429885Y320886D01*
X429984Y321387D01*
X436016D01*
X436115Y320886D01*
X436058Y320863D01*
X435254Y320246D01*
X434637Y319442D01*
X434249Y318505D01*
X434117Y317500D01*
X434249Y316495D01*
X434637Y315558D01*
X435254Y314754D01*
X436058Y314137D01*
X436995Y313749D01*
X438000Y313617D01*
X439005Y313749D01*
X439942Y314137D01*
X440746Y314754D01*
X441363Y315558D01*
X441751Y316495D01*
X441883Y317500D01*
X441751Y318505D01*
X441363Y319442D01*
X440746Y320246D01*
X439942Y320863D01*
X439885Y320886D01*
X439984Y321387D01*
X443000D01*
X443426Y321471D01*
X443787Y321713D01*
X446167Y324092D01*
X446995Y323749D01*
X448000Y323617D01*
X449005Y323749D01*
X449942Y324137D01*
X450746Y324754D01*
X451363Y325558D01*
X451386Y325615D01*
X451887Y325516D01*
Y319484D01*
X451386Y319385D01*
X451363Y319442D01*
X450746Y320246D01*
X449942Y320863D01*
X449005Y321251D01*
X448000Y321383D01*
X446995Y321251D01*
X446058Y320863D01*
X445254Y320246D01*
X444637Y319442D01*
X444249Y318505D01*
X444117Y317500D01*
X444249Y316495D01*
X444637Y315558D01*
X445254Y314754D01*
X446058Y314137D01*
X446995Y313749D01*
X448000Y313617D01*
X449005Y313749D01*
X449942Y314137D01*
X450746Y314754D01*
X451363Y315558D01*
X451386Y315615D01*
X451887Y315516D01*
Y314461D01*
X419213Y281787D01*
X418971Y281426D01*
X418887Y281000D01*
Y278635D01*
X418574Y278426D01*
X418137Y277772D01*
X417983Y277000D01*
X418137Y276228D01*
X418574Y275574D01*
X419228Y275137D01*
X420000Y274983D01*
X420772Y275137D01*
X421426Y275574D01*
X421863Y276228D01*
X422017Y277000D01*
X421863Y277772D01*
X421426Y278426D01*
X421113Y278635D01*
Y280539D01*
X453787Y313213D01*
X454029Y313574D01*
X454113Y314000D01*
X454113Y314000D01*
Y315516D01*
X454613Y315615D01*
X454637Y315558D01*
X455254Y314754D01*
X456058Y314137D01*
X456995Y313749D01*
X458000Y313617D01*
X459005Y313749D01*
X459942Y314137D01*
X460746Y314754D01*
X461363Y315558D01*
X461751Y316495D01*
X461883Y317500D01*
X461751Y318505D01*
X461363Y319442D01*
X460746Y320246D01*
X459942Y320863D01*
X459005Y321251D01*
X458000Y321383D01*
X456995Y321251D01*
X456058Y320863D01*
X455254Y320246D01*
X454637Y319442D01*
X454613Y319385D01*
X454113Y319484D01*
Y325516D01*
X454613Y325615D01*
X454637Y325558D01*
X455254Y324754D01*
X456058Y324137D01*
X456995Y323749D01*
X458000Y323617D01*
X459005Y323749D01*
X459942Y324137D01*
X460746Y324754D01*
X461363Y325558D01*
X461751Y326495D01*
X461883Y327500D01*
X461751Y328505D01*
X461363Y329442D01*
X460746Y330246D01*
X459942Y330863D01*
X459005Y331251D01*
X458000Y331383D01*
X456995Y331251D01*
X456058Y330863D01*
X455254Y330246D01*
X454637Y329442D01*
X454613Y329385D01*
X454113Y329484D01*
Y330500D01*
X454029Y330926D01*
X453787Y331287D01*
X452627Y332447D01*
X452819Y332909D01*
X520427D01*
X529409Y323927D01*
Y228362D01*
X529041Y228209D01*
X528851Y227750D01*
Y224750D01*
X529041Y224291D01*
X529500Y224101D01*
X530582D01*
X530705Y224006D01*
X531329Y223748D01*
X532000Y223659D01*
X532670Y223748D01*
X533295Y224006D01*
X533418Y224101D01*
X534500D01*
X534959Y224291D01*
X535149Y224750D01*
Y227750D01*
X534959Y228209D01*
X534591Y228362D01*
Y325000D01*
X534502Y325671D01*
X534244Y326295D01*
X533832Y326832D01*
X523332Y337332D01*
X522795Y337744D01*
X522170Y338002D01*
X521500Y338091D01*
D02*
G37*
G36*
X366035Y224500D02*
X364547D01*
Y222422D01*
X365032D01*
X365416Y222498D01*
X365741Y222716D01*
X365959Y223041D01*
X366035Y223425D01*
Y224500D01*
D02*
G37*
G36*
X412032Y248578D02*
X411547D01*
Y246500D01*
X413035D01*
Y247575D01*
X412959Y247959D01*
X412741Y248284D01*
X412416Y248502D01*
X412032Y248578D01*
D02*
G37*
G36*
X410547D02*
X410063D01*
X409679Y248502D01*
X409353Y248284D01*
X409136Y247959D01*
X409059Y247575D01*
Y246500D01*
X410547D01*
Y248578D01*
D02*
G37*
G36*
X504311Y258858D02*
X503281Y258723D01*
X502321Y258325D01*
X501496Y257693D01*
X500864Y256868D01*
X500466Y255908D01*
X500330Y254878D01*
X500466Y253848D01*
X500864Y252888D01*
X501496Y252063D01*
X502321Y251431D01*
X503281Y251033D01*
X504311Y250898D01*
X505341Y251033D01*
X506301Y251431D01*
X507126Y252063D01*
X507758Y252888D01*
X508156Y253848D01*
X508291Y254878D01*
X508156Y255908D01*
X507758Y256868D01*
X507126Y257693D01*
X506301Y258325D01*
X505341Y258723D01*
X504311Y258858D01*
D02*
G37*
G36*
X492500D02*
X491470Y258723D01*
X490510Y258325D01*
X489685Y257693D01*
X489053Y256868D01*
X488655Y255908D01*
X488519Y254878D01*
X488655Y253848D01*
X489053Y252888D01*
X489685Y252063D01*
X490510Y251431D01*
X491470Y251033D01*
X492500Y250898D01*
X493530Y251033D01*
X494490Y251431D01*
X495315Y252063D01*
X495947Y252888D01*
X496345Y253848D01*
X496481Y254878D01*
X496345Y255908D01*
X495947Y256868D01*
X495315Y257693D01*
X494490Y258325D01*
X493530Y258723D01*
X492500Y258858D01*
D02*
G37*
G36*
X385437Y244078D02*
X384953D01*
Y242000D01*
X386440D01*
Y243075D01*
X386364Y243459D01*
X386147Y243784D01*
X385821Y244002D01*
X385437Y244078D01*
D02*
G37*
G36*
X383953D02*
X383469D01*
X383085Y244002D01*
X382759Y243784D01*
X382541Y243459D01*
X382465Y243075D01*
Y242000D01*
X383953D01*
Y244078D01*
D02*
G37*
G36*
X413035Y245500D02*
X411547D01*
Y243422D01*
X412032D01*
X412416Y243498D01*
X412741Y243716D01*
X412959Y244041D01*
X413035Y244425D01*
Y245500D01*
D02*
G37*
G36*
X410547D02*
X409059D01*
Y244425D01*
X409136Y244041D01*
X409353Y243716D01*
X409679Y243498D01*
X410063Y243422D01*
X410547D01*
Y245500D01*
D02*
G37*
G36*
X413000Y279547D02*
X410922D01*
Y279063D01*
X410998Y278679D01*
X411216Y278353D01*
X411541Y278136D01*
X411925Y278060D01*
X413000D01*
Y279547D01*
D02*
G37*
G36*
X488500Y321705D02*
Y318000D01*
X492205D01*
X492125Y318605D01*
X491699Y319635D01*
X491020Y320520D01*
X490135Y321199D01*
X489105Y321625D01*
X488500Y321705D01*
D02*
G37*
G36*
X487500D02*
X486895Y321625D01*
X485865Y321199D01*
X484980Y320520D01*
X484301Y319635D01*
X483875Y318605D01*
X483795Y318000D01*
X487500D01*
Y321705D01*
D02*
G37*
G36*
X498500D02*
Y318000D01*
X502205D01*
X502125Y318605D01*
X501699Y319635D01*
X501020Y320520D01*
X500135Y321199D01*
X499105Y321625D01*
X498500Y321705D01*
D02*
G37*
G36*
X497500D02*
X496895Y321625D01*
X495865Y321199D01*
X494980Y320520D01*
X494301Y319635D01*
X493875Y318605D01*
X493795Y318000D01*
X497500D01*
Y321705D01*
D02*
G37*
G36*
X468500D02*
Y318000D01*
X472205D01*
X472125Y318605D01*
X471699Y319635D01*
X471020Y320520D01*
X470135Y321199D01*
X469105Y321625D01*
X468500Y321705D01*
D02*
G37*
G36*
X467500D02*
X466895Y321625D01*
X465865Y321199D01*
X464980Y320520D01*
X464301Y319635D01*
X463875Y318605D01*
X463795Y318000D01*
X467500D01*
Y321705D01*
D02*
G37*
G36*
X478500D02*
Y318000D01*
X482205D01*
X482125Y318605D01*
X481699Y319635D01*
X481020Y320520D01*
X480135Y321199D01*
X479105Y321625D01*
X478500Y321705D01*
D02*
G37*
G36*
X477500D02*
X476895Y321625D01*
X475865Y321199D01*
X474980Y320520D01*
X474301Y319635D01*
X473875Y318605D01*
X473795Y318000D01*
X477500D01*
Y321705D01*
D02*
G37*
G36*
X488000Y331383D02*
X486995Y331251D01*
X486058Y330863D01*
X485254Y330246D01*
X484637Y329442D01*
X484249Y328505D01*
X484117Y327500D01*
X484249Y326495D01*
X484637Y325558D01*
X485254Y324754D01*
X486058Y324137D01*
X486995Y323749D01*
X488000Y323617D01*
X489005Y323749D01*
X489942Y324137D01*
X490746Y324754D01*
X491363Y325558D01*
X491751Y326495D01*
X491883Y327500D01*
X491751Y328505D01*
X491363Y329442D01*
X490746Y330246D01*
X489942Y330863D01*
X489005Y331251D01*
X488000Y331383D01*
D02*
G37*
G36*
X478000D02*
X476995Y331251D01*
X476058Y330863D01*
X475254Y330246D01*
X474637Y329442D01*
X474249Y328505D01*
X474117Y327500D01*
X474249Y326495D01*
X474637Y325558D01*
X475254Y324754D01*
X476058Y324137D01*
X476995Y323749D01*
X478000Y323617D01*
X479005Y323749D01*
X479942Y324137D01*
X480746Y324754D01*
X481363Y325558D01*
X481751Y326495D01*
X481883Y327500D01*
X481751Y328505D01*
X481363Y329442D01*
X480746Y330246D01*
X479942Y330863D01*
X479005Y331251D01*
X478000Y331383D01*
D02*
G37*
G36*
X508000D02*
X506995Y331251D01*
X506058Y330863D01*
X505254Y330246D01*
X504637Y329442D01*
X504249Y328505D01*
X504117Y327500D01*
X504249Y326495D01*
X504637Y325558D01*
X505254Y324754D01*
X506058Y324137D01*
X506995Y323749D01*
X508000Y323617D01*
X509005Y323749D01*
X509942Y324137D01*
X510746Y324754D01*
X511363Y325558D01*
X511751Y326495D01*
X511883Y327500D01*
X511751Y328505D01*
X511363Y329442D01*
X510746Y330246D01*
X509942Y330863D01*
X509005Y331251D01*
X508000Y331383D01*
D02*
G37*
G36*
X498000D02*
X496995Y331251D01*
X496058Y330863D01*
X495254Y330246D01*
X494637Y329442D01*
X494249Y328505D01*
X494117Y327500D01*
X494249Y326495D01*
X494637Y325558D01*
X495254Y324754D01*
X496058Y324137D01*
X496995Y323749D01*
X498000Y323617D01*
X499005Y323749D01*
X499942Y324137D01*
X500746Y324754D01*
X501363Y325558D01*
X501751Y326495D01*
X501883Y327500D01*
X501751Y328505D01*
X501363Y329442D01*
X500746Y330246D01*
X499942Y330863D01*
X499005Y331251D01*
X498000Y331383D01*
D02*
G37*
G36*
X508500Y321705D02*
Y318000D01*
X512205D01*
X512125Y318605D01*
X511699Y319635D01*
X511020Y320520D01*
X510135Y321199D01*
X509105Y321625D01*
X508500Y321705D01*
D02*
G37*
G36*
X507500D02*
X506895Y321625D01*
X505865Y321199D01*
X504980Y320520D01*
X504301Y319635D01*
X503875Y318605D01*
X503795Y318000D01*
X507500D01*
Y321705D01*
D02*
G37*
G36*
X468000Y331383D02*
X466995Y331251D01*
X466058Y330863D01*
X465254Y330246D01*
X464637Y329442D01*
X464249Y328505D01*
X464117Y327500D01*
X464249Y326495D01*
X464637Y325558D01*
X465254Y324754D01*
X466058Y324137D01*
X466995Y323749D01*
X468000Y323617D01*
X469005Y323749D01*
X469942Y324137D01*
X470746Y324754D01*
X471363Y325558D01*
X471751Y326495D01*
X471883Y327500D01*
X471751Y328505D01*
X471363Y329442D01*
X470746Y330246D01*
X469942Y330863D01*
X469005Y331251D01*
X468000Y331383D01*
D02*
G37*
G36*
X518000D02*
X516995Y331251D01*
X516058Y330863D01*
X515254Y330246D01*
X514637Y329442D01*
X514249Y328505D01*
X514117Y327500D01*
X514249Y326495D01*
X514637Y325558D01*
X515254Y324754D01*
X516058Y324137D01*
X516995Y323749D01*
X518000Y323617D01*
X518194Y323642D01*
X521909Y319927D01*
Y319429D01*
X521409Y319330D01*
X521363Y319442D01*
X520746Y320246D01*
X519942Y320863D01*
X519005Y321251D01*
X518000Y321383D01*
X516995Y321251D01*
X516058Y320863D01*
X515254Y320246D01*
X514637Y319442D01*
X514249Y318505D01*
X514117Y317500D01*
X514249Y316495D01*
X514637Y315558D01*
X515254Y314754D01*
X516058Y314137D01*
X516995Y313749D01*
X518000Y313617D01*
X519005Y313749D01*
X519942Y314137D01*
X520746Y314754D01*
X521363Y315558D01*
X521409Y315670D01*
X521909Y315571D01*
Y311073D01*
X500927Y290091D01*
X485500D01*
X484830Y290002D01*
X484205Y289744D01*
X483668Y289332D01*
X452427Y258091D01*
X451500D01*
X451000Y258025D01*
X450500Y258091D01*
X443073D01*
X435832Y265332D01*
X435295Y265744D01*
X434670Y266002D01*
X434000Y266091D01*
X410377D01*
Y282883D01*
X411846Y284352D01*
X411925Y284319D01*
X415075D01*
X415534Y284509D01*
X415724Y284968D01*
Y285386D01*
X416365D01*
X416574Y285074D01*
X417228Y284637D01*
X418000Y284483D01*
X418772Y284637D01*
X419426Y285074D01*
X419863Y285728D01*
X420017Y286500D01*
X419863Y287272D01*
X419426Y287926D01*
X418772Y288363D01*
X418000Y288517D01*
X417228Y288363D01*
X416574Y287926D01*
X416365Y287614D01*
X413453D01*
X413317Y287586D01*
X411925D01*
X411466Y287396D01*
X411450Y287357D01*
X411021Y287272D01*
X410574Y286973D01*
X408027Y284426D01*
X407728Y283980D01*
X407623Y283453D01*
Y266091D01*
X402377D01*
Y276053D01*
X402272Y276580D01*
X401973Y277027D01*
X401973Y277027D01*
X398376Y280624D01*
Y305041D01*
X398426Y305074D01*
X398863Y305728D01*
X399017Y306500D01*
X398863Y307272D01*
X398426Y307926D01*
X397772Y308363D01*
X397000Y308517D01*
X396228Y308363D01*
X395574Y307926D01*
X395137Y307272D01*
X394983Y306500D01*
X395137Y305728D01*
X395574Y305074D01*
X395623Y305041D01*
Y280053D01*
X395728Y279527D01*
X395932Y279222D01*
X395544Y278903D01*
X376924Y297523D01*
Y300438D01*
X376991Y300466D01*
X377181Y300925D01*
Y304075D01*
X376991Y304534D01*
X376532Y304724D01*
X375270D01*
X374520Y305473D01*
X374074Y305772D01*
X373547Y305876D01*
X371959D01*
X371926Y305926D01*
X371272Y306363D01*
X370500Y306517D01*
X369728Y306363D01*
X369074Y305926D01*
X368637Y305272D01*
X368483Y304500D01*
X368637Y303728D01*
X369074Y303074D01*
X369728Y302637D01*
X370500Y302483D01*
X371272Y302637D01*
X371926Y303074D01*
X371959Y303123D01*
X372977D01*
X373914Y302187D01*
Y300925D01*
X374104Y300466D01*
X374171Y300438D01*
Y296953D01*
X374276Y296426D01*
X374372Y296282D01*
X373984Y295963D01*
X369473Y300473D01*
X369027Y300772D01*
X368500Y300876D01*
X366459D01*
X366426Y300926D01*
X365772Y301363D01*
X365000Y301517D01*
X364228Y301363D01*
X363574Y300926D01*
X363137Y300272D01*
X362983Y299500D01*
X363137Y298728D01*
X363574Y298074D01*
X364228Y297637D01*
X365000Y297483D01*
X365772Y297637D01*
X366426Y298074D01*
X366459Y298124D01*
X367930D01*
X384013Y282040D01*
X383822Y281578D01*
X383469D01*
X383085Y281502D01*
X382759Y281284D01*
X382541Y280959D01*
X382465Y280575D01*
Y279500D01*
X384453D01*
Y278500D01*
X382465D01*
Y277736D01*
X381965Y277529D01*
X380181Y279313D01*
Y280575D01*
X379991Y281034D01*
X379532Y281224D01*
X377563D01*
X377104Y281034D01*
X376913Y280575D01*
X376500Y280377D01*
X375973Y280272D01*
X375527Y279973D01*
X374558Y279005D01*
X374500Y279017D01*
X373728Y278863D01*
X373074Y278426D01*
X372637Y277772D01*
X372483Y277000D01*
X372637Y276228D01*
X373074Y275574D01*
X373728Y275137D01*
X374500Y274983D01*
X375272Y275137D01*
X375926Y275574D01*
X376363Y276228D01*
X376517Y277000D01*
X376985Y276988D01*
X377104Y276966D01*
X377563Y276776D01*
X378825D01*
X382074Y273527D01*
X382521Y273228D01*
X383047Y273124D01*
X386930D01*
X392124Y267930D01*
Y266476D01*
X391662Y266285D01*
X391473Y266473D01*
X391027Y266772D01*
X390500Y266877D01*
X383595D01*
X383564Y266922D01*
X383832Y267422D01*
X384937D01*
X385321Y267498D01*
X385647Y267716D01*
X385864Y268041D01*
X385941Y268425D01*
Y269500D01*
X383953D01*
X381965D01*
Y268736D01*
X381465Y268529D01*
X379681Y270313D01*
Y271575D01*
X379491Y272034D01*
X379031Y272224D01*
X377063D01*
X376604Y272034D01*
X376413Y271575D01*
Y271376D01*
X375500D01*
X374973Y271272D01*
X374571Y271003D01*
X374500Y271017D01*
X373728Y270863D01*
X373074Y270426D01*
X372637Y269772D01*
X372483Y269000D01*
X372637Y268228D01*
X373074Y267574D01*
X373728Y267137D01*
X374500Y266983D01*
X375272Y267137D01*
X375926Y267574D01*
X376111Y267850D01*
X376604Y267966D01*
X377063Y267776D01*
X378325D01*
X381574Y264527D01*
X382020Y264228D01*
X382547Y264124D01*
X389930D01*
X390963Y263090D01*
X390998Y262829D01*
X391256Y262205D01*
X391668Y261668D01*
X391911Y261482D01*
X391942Y260889D01*
X388930Y257876D01*
X386310D01*
X385931Y258377D01*
X385941Y258425D01*
Y259500D01*
X383953D01*
X381965D01*
Y258736D01*
X381465Y258529D01*
X379681Y260313D01*
Y261575D01*
X379491Y262034D01*
X379031Y262224D01*
X377063D01*
X376604Y262034D01*
X376413Y261575D01*
Y261377D01*
X375782D01*
X375630Y261877D01*
X375926Y262074D01*
X376363Y262728D01*
X376517Y263500D01*
X376363Y264272D01*
X375926Y264926D01*
X375272Y265363D01*
X374500Y265517D01*
X373728Y265363D01*
X373074Y264926D01*
X372865Y264614D01*
X372387D01*
X358613Y278386D01*
Y281550D01*
X359000Y281983D01*
X359772Y282137D01*
X360426Y282574D01*
X360863Y283228D01*
X361017Y284000D01*
X360863Y284772D01*
X360426Y285426D01*
X359772Y285863D01*
X359000Y286017D01*
X358228Y285863D01*
X357574Y285426D01*
X357137Y284772D01*
X356983Y284000D01*
X357057Y283631D01*
X356713Y283287D01*
X356471Y282926D01*
X356386Y282500D01*
Y277925D01*
X356471Y277499D01*
X356713Y277138D01*
X371138Y262713D01*
X371499Y262471D01*
X371925Y262386D01*
X372865D01*
X373074Y262074D01*
X373728Y261637D01*
X374415Y261500D01*
X374534Y261233D01*
X374566Y260999D01*
X374527Y260973D01*
X374527Y260973D01*
X373527Y259973D01*
X373231Y259531D01*
X373074Y259426D01*
X372637Y258772D01*
X372483Y258000D01*
X372637Y257228D01*
X373074Y256574D01*
X373728Y256137D01*
X374500Y255983D01*
X375272Y256137D01*
X375926Y256574D01*
X376363Y257228D01*
X376418Y257502D01*
X376988Y257807D01*
X377063Y257776D01*
X378325D01*
X380574Y255527D01*
X381020Y255228D01*
X381547Y255123D01*
X381547Y255123D01*
X389500D01*
X390027Y255228D01*
X390473Y255527D01*
X394473Y259527D01*
X394473Y259527D01*
X394772Y259973D01*
X394877Y260500D01*
Y260909D01*
X396623D01*
Y259570D01*
X386440Y249387D01*
X385941Y249594D01*
Y250000D01*
X383953D01*
X381965D01*
Y249236D01*
X381465Y249029D01*
X379681Y250813D01*
Y252075D01*
X379491Y252534D01*
X379031Y252724D01*
X377063D01*
X376604Y252534D01*
X376413Y252075D01*
Y251028D01*
X375914Y250934D01*
X375272Y251363D01*
X374500Y251517D01*
X373728Y251363D01*
X373074Y250926D01*
X372637Y250272D01*
X372483Y249500D01*
X372637Y248728D01*
X373074Y248074D01*
X373728Y247637D01*
X374500Y247483D01*
X375272Y247637D01*
X375926Y248074D01*
X375959Y248124D01*
X376905D01*
X377024Y248100D01*
X377550Y248205D01*
X377657Y248276D01*
X378325D01*
X380574Y246027D01*
X381020Y245728D01*
X381547Y245623D01*
X381547Y245623D01*
X386000D01*
X386527Y245728D01*
X386973Y246027D01*
X398973Y258027D01*
X399272Y258473D01*
X399377Y259000D01*
Y260909D01*
X400124D01*
Y251570D01*
X387930Y239376D01*
X386810D01*
X386431Y239877D01*
X386440Y239925D01*
Y241000D01*
X384453D01*
X382465D01*
Y240236D01*
X381965Y240029D01*
X380181Y241813D01*
Y243075D01*
X379991Y243534D01*
X379532Y243724D01*
X378145D01*
X378074Y243772D01*
X377547Y243877D01*
X375459D01*
X375426Y243926D01*
X374772Y244363D01*
X374000Y244517D01*
X373228Y244363D01*
X372574Y243926D01*
X372137Y243272D01*
X371983Y242500D01*
X372137Y241728D01*
X372574Y241074D01*
X373228Y240637D01*
X374000Y240483D01*
X374772Y240637D01*
X375426Y241074D01*
X375459Y241124D01*
X376913D01*
Y239925D01*
X377104Y239466D01*
X377563Y239276D01*
X378825D01*
X381074Y237027D01*
X381521Y236728D01*
X382047Y236624D01*
X382047Y236624D01*
X388500D01*
X389027Y236728D01*
X389171Y236825D01*
X389490Y236436D01*
X377930Y224876D01*
X376782D01*
X376630Y225377D01*
X376926Y225574D01*
X377363Y226228D01*
X377517Y227000D01*
X377363Y227772D01*
X376926Y228426D01*
X376272Y228863D01*
X375500Y229017D01*
X374728Y228863D01*
X374074Y228426D01*
X374041Y228377D01*
X371953D01*
X371953Y228377D01*
X371426Y228272D01*
X370979Y227973D01*
X370230Y227224D01*
X368969D01*
X368509Y227034D01*
X368319Y226575D01*
Y223425D01*
X368509Y222966D01*
X368969Y222776D01*
X370230D01*
X370479Y222527D01*
X370926Y222228D01*
X371453Y222124D01*
X378500D01*
X379027Y222228D01*
X379473Y222527D01*
X405473Y248527D01*
X405772Y248973D01*
X405876Y249500D01*
Y260909D01*
X415624D01*
Y248081D01*
X415509Y248034D01*
X415319Y247575D01*
Y244425D01*
X415509Y243966D01*
X415576Y243938D01*
Y243047D01*
X415681Y242520D01*
X415979Y242074D01*
X417090Y240963D01*
X417137Y240728D01*
X417574Y240074D01*
X418228Y239637D01*
X419000Y239483D01*
X419772Y239637D01*
X420426Y240074D01*
X420863Y240728D01*
X421017Y241500D01*
X420863Y242272D01*
X420426Y242926D01*
X419772Y243363D01*
X419000Y243517D01*
X418833Y243484D01*
X418422Y243795D01*
X418396Y243966D01*
X418586Y244425D01*
Y247575D01*
X418396Y248034D01*
X418376Y248042D01*
Y260909D01*
X432927D01*
X440168Y253668D01*
X440705Y253256D01*
X441329Y252998D01*
X442000Y252909D01*
X450500D01*
X451000Y252975D01*
X451500Y252909D01*
X453500D01*
X454171Y252998D01*
X454795Y253256D01*
X455332Y253668D01*
X486573Y284909D01*
X502000D01*
X502670Y284998D01*
X503295Y285256D01*
X503832Y285668D01*
X526332Y308168D01*
X526744Y308705D01*
X527002Y309330D01*
X527091Y310000D01*
Y321000D01*
X527002Y321671D01*
X526744Y322295D01*
X526332Y322832D01*
X521858Y327306D01*
X521883Y327500D01*
X521751Y328505D01*
X521363Y329442D01*
X520746Y330246D01*
X519942Y330863D01*
X519005Y331251D01*
X518000Y331383D01*
D02*
G37*
G36*
X512205Y317000D02*
X508500D01*
Y313295D01*
X509105Y313375D01*
X510135Y313801D01*
X511020Y314480D01*
X511699Y315365D01*
X512125Y316395D01*
X512205Y317000D01*
D02*
G37*
G36*
X380953Y305078D02*
X380469D01*
X380084Y305002D01*
X379759Y304784D01*
X379541Y304459D01*
X379465Y304075D01*
Y303000D01*
X380953D01*
Y305078D01*
D02*
G37*
G36*
X383440Y302000D02*
X381953D01*
Y299922D01*
X382437D01*
X382821Y299998D01*
X383147Y300216D01*
X383364Y300541D01*
X383440Y300925D01*
Y302000D01*
D02*
G37*
G36*
X467500Y317000D02*
X463795D01*
X463875Y316395D01*
X464301Y315365D01*
X464980Y314480D01*
X465865Y313801D01*
X466895Y313375D01*
X467500Y313295D01*
Y317000D01*
D02*
G37*
G36*
X382437Y305078D02*
X381953D01*
Y303000D01*
X383440D01*
Y304075D01*
X383364Y304459D01*
X383147Y304784D01*
X382821Y305002D01*
X382437Y305078D01*
D02*
G37*
G36*
X413000Y282035D02*
X411925D01*
X411541Y281959D01*
X411216Y281741D01*
X410998Y281416D01*
X410922Y281031D01*
Y280547D01*
X413000D01*
Y282035D01*
D02*
G37*
G36*
X416078Y279547D02*
X414000D01*
Y278060D01*
X415075D01*
X415459Y278136D01*
X415784Y278353D01*
X416002Y278679D01*
X416078Y279063D01*
Y279547D01*
D02*
G37*
G36*
X380953Y302000D02*
X379465D01*
Y300925D01*
X379541Y300541D01*
X379759Y300216D01*
X380084Y299998D01*
X380469Y299922D01*
X380953D01*
Y302000D01*
D02*
G37*
G36*
X415075Y282035D02*
X414000D01*
Y280547D01*
X416078D01*
Y281031D01*
X416002Y281416D01*
X415784Y281741D01*
X415459Y281959D01*
X415075Y282035D01*
D02*
G37*
G36*
X497500Y317000D02*
X493795D01*
X493875Y316395D01*
X494301Y315365D01*
X494980Y314480D01*
X495865Y313801D01*
X496895Y313375D01*
X497500Y313295D01*
Y317000D01*
D02*
G37*
G36*
X492205D02*
X488500D01*
Y313295D01*
X489105Y313375D01*
X490135Y313801D01*
X491020Y314480D01*
X491699Y315365D01*
X492125Y316395D01*
X492205Y317000D01*
D02*
G37*
G36*
X507500D02*
X503795D01*
X503875Y316395D01*
X504301Y315365D01*
X504980Y314480D01*
X505865Y313801D01*
X506895Y313375D01*
X507500Y313295D01*
Y317000D01*
D02*
G37*
G36*
X502205D02*
X498500D01*
Y313295D01*
X499105Y313375D01*
X500135Y313801D01*
X501020Y314480D01*
X501699Y315365D01*
X502125Y316395D01*
X502205Y317000D01*
D02*
G37*
G36*
X477500D02*
X473795D01*
X473875Y316395D01*
X474301Y315365D01*
X474980Y314480D01*
X475865Y313801D01*
X476895Y313375D01*
X477500Y313295D01*
Y317000D01*
D02*
G37*
G36*
X472205D02*
X468500D01*
Y313295D01*
X469105Y313375D01*
X470135Y313801D01*
X471020Y314480D01*
X471699Y315365D01*
X472125Y316395D01*
X472205Y317000D01*
D02*
G37*
G36*
X487500D02*
X483795D01*
X483875Y316395D01*
X484301Y315365D01*
X484980Y314480D01*
X485865Y313801D01*
X486895Y313375D01*
X487500Y313295D01*
Y317000D01*
D02*
G37*
G36*
X482205D02*
X478500D01*
Y313295D01*
X479105Y313375D01*
X480135Y313801D01*
X481020Y314480D01*
X481699Y315365D01*
X482125Y316395D01*
X482205Y317000D01*
D02*
G37*
%LPD*%
D13*
X413500Y280047D02*
D03*
Y285953D02*
D03*
D19*
X369953Y225000D02*
D03*
X364047D02*
D03*
X411047Y246000D02*
D03*
X416953D02*
D03*
X381453Y302500D02*
D03*
X375547D02*
D03*
X384453Y279000D02*
D03*
X378547D02*
D03*
X383953Y250500D02*
D03*
X378047D02*
D03*
X383953Y260000D02*
D03*
X378047D02*
D03*
X383953Y270000D02*
D03*
X378047D02*
D03*
X384453Y241500D02*
D03*
X378547D02*
D03*
D21*
X371925Y263500D02*
X374500D01*
X357500Y277925D02*
X371925Y263500D01*
X357500Y277925D02*
Y282500D01*
X359000Y284000D01*
X413453Y286500D02*
X413953Y286000D01*
X413453Y286500D02*
X418000D01*
X438000Y327500D02*
X442939Y332439D01*
X451061D01*
X453000Y330500D01*
X420000Y277000D02*
Y281000D01*
X453000Y314000D01*
Y330500D01*
X413953Y286000D02*
X414000Y285953D01*
X443000Y322500D02*
X448000Y327500D01*
X365500Y309500D02*
X389500D01*
X402500Y322500D01*
X443000D01*
D23*
X377000Y249500D02*
X377024Y249476D01*
X411547Y286000D02*
X413953D01*
X417000Y246047D02*
Y263500D01*
X401000Y264000D02*
X401500Y263500D01*
X404500D02*
Y264500D01*
Y249500D02*
Y263500D01*
X401000Y264000D02*
Y276053D01*
X397000Y280053D02*
X401000Y276053D01*
X397000Y280053D02*
Y306500D01*
X451000Y256000D02*
X451500Y255500D01*
X416953Y243047D02*
Y246000D01*
X417000Y246047D01*
X370500Y304500D02*
X373547D01*
X375547Y302500D01*
X371953Y227000D02*
X375500D01*
X369953Y225000D02*
X371953Y227000D01*
X369953Y225000D02*
X371453Y223500D01*
X378500D01*
X404500Y249500D01*
X409000Y283453D02*
X411547Y286000D01*
X401500Y251000D02*
Y263500D01*
X409000D02*
Y283453D01*
X398000Y259000D02*
Y263500D01*
X393500Y260500D02*
Y263500D01*
X375547Y296953D02*
Y302500D01*
Y296953D02*
X398000Y274500D01*
Y263500D02*
Y274500D01*
X396000Y263500D02*
Y272000D01*
X368500Y299500D02*
X396000Y272000D01*
X365000Y299500D02*
X368500D01*
X377024Y249476D02*
X378047Y250500D01*
X416953Y243047D02*
X418500Y241500D01*
X419000D01*
X374500Y249500D02*
X377000D01*
X376500Y279000D02*
X378547D01*
X374500Y277000D02*
X376500Y279000D01*
X378547D02*
X383047Y274500D01*
X387500D01*
X393500Y268500D01*
Y263500D02*
Y268500D01*
X392500Y263500D02*
X393500D01*
X390500Y265500D02*
X392500Y263500D01*
X382547Y265500D02*
X390500D01*
X378047Y270000D02*
X382547Y265500D01*
X375500Y260000D02*
X378047D01*
X381547Y256500D01*
X389500D01*
X393500Y260500D01*
X388500Y238000D02*
X401500Y251000D01*
X374000Y242500D02*
X377547D01*
X382047Y238000D02*
X388500D01*
X377547Y242500D02*
X378547Y241500D01*
X382047Y238000D01*
X378047Y250500D02*
X381547Y247000D01*
X386000D01*
X398000Y259000D01*
X374500D02*
X375500Y260000D01*
X374500Y258000D02*
Y259000D01*
X375500Y270000D02*
X378047D01*
X374500Y269000D02*
X375500Y270000D01*
D24*
X471739Y214006D02*
X471998Y213748D01*
X417000Y263500D02*
X434000D01*
X409000D02*
X417000D01*
X404500D02*
X409000D01*
X401500D02*
X404500D01*
X457045Y214006D02*
X471739D01*
X471998Y213748D02*
X474500Y216250D01*
X444500Y255500D02*
X450500D01*
X442000D02*
X444500D01*
X434000Y263500D02*
X442000Y255500D01*
X453500D02*
X485500Y287500D01*
X502000D01*
X398000Y263500D02*
X401500D01*
X393500D02*
X396000D01*
X398000D01*
X478500Y229500D02*
X493500D01*
X474500Y225500D02*
X478500Y229500D01*
X502000Y287500D02*
X524500Y310000D01*
Y321000D01*
X532000Y226250D02*
Y325000D01*
X475250Y217000D02*
X532000D01*
X474500Y216250D02*
X475250Y217000D01*
X428000Y327500D02*
X436000Y335500D01*
X521500D01*
X532000Y325000D01*
X518000Y327500D02*
X524500Y321000D01*
X451500Y255500D02*
X453500D01*
D25*
X456019Y214019D02*
X456539Y213500D01*
X437150Y217850D02*
X440980Y214019D01*
X456019D01*
X456539Y213500D02*
Y213500D01*
Y213500D02*
X457045Y214006D01*
X437150Y217850D02*
Y252500D01*
D27*
X428000Y327500D02*
D03*
Y317500D02*
D03*
X438000D02*
D03*
Y327500D02*
D03*
X458000D02*
D03*
Y317500D02*
D03*
X448000D02*
D03*
Y327500D02*
D03*
X488000D02*
D03*
Y317500D02*
D03*
X498000D02*
D03*
Y327500D02*
D03*
X478000D02*
D03*
Y317500D02*
D03*
X468000D02*
D03*
Y327500D02*
D03*
X518000D02*
D03*
Y317500D02*
D03*
X508000D02*
D03*
Y327500D02*
D03*
D28*
X342500Y256394D02*
D03*
Y275606D02*
D03*
X493500Y229500D02*
D03*
X503500D02*
D03*
X513500D02*
D03*
D29*
X521319Y266689D02*
D03*
D30*
X504311D02*
D03*
Y278500D02*
D03*
Y254878D02*
D03*
X492500D02*
D03*
Y266689D02*
D03*
Y278500D02*
D03*
D31*
X436500Y211500D02*
D03*
X430500Y217000D02*
D03*
X411000Y258000D02*
D03*
X370000Y237000D02*
D03*
X485000Y280500D02*
D03*
X470500Y263000D02*
D03*
X455000Y264000D02*
D03*
X405000Y268000D02*
D03*
X374500Y286000D02*
D03*
X364000Y292000D02*
D03*
X473000Y282000D02*
D03*
X448500Y301500D02*
D03*
X352000Y279000D02*
D03*
X402000Y286000D02*
D03*
X400000Y325000D02*
D03*
X395000Y319500D02*
D03*
X378000Y255000D02*
D03*
X388500Y269000D02*
D03*
X389000Y261500D02*
D03*
X388500Y243500D02*
D03*
X486500Y261000D02*
D03*
X487000Y272500D02*
D03*
X500000Y283000D02*
D03*
X499500Y297500D02*
D03*
X470500Y236000D02*
D03*
X470000Y252500D02*
D03*
X462500Y257000D02*
D03*
X440500Y230000D02*
D03*
Y237500D02*
D03*
X434000Y223000D02*
D03*
X432500Y233500D02*
D03*
X457045Y214006D02*
D03*
X342500Y216500D02*
D03*
X360000Y280000D02*
D03*
X347500Y296500D02*
D03*
X377500Y325500D02*
D03*
X362000Y315000D02*
D03*
X406500Y215000D02*
D03*
Y223000D02*
D03*
X350000Y230500D02*
D03*
X357500Y251500D02*
D03*
X374000Y273000D02*
D03*
X380500Y283000D02*
D03*
X511500Y285500D02*
D03*
X519500Y292500D02*
D03*
X506500Y301500D02*
D03*
X493000Y293500D02*
D03*
X460000Y289500D02*
D03*
X448500Y274500D02*
D03*
X451500Y306000D02*
D03*
X433500Y290000D02*
D03*
X427000Y293000D02*
D03*
X437500Y306000D02*
D03*
X408500Y305500D02*
D03*
X416000Y315000D02*
D03*
X406500Y319000D02*
D03*
X401000Y311000D02*
D03*
X437150Y252500D02*
D03*
X444500Y255500D02*
D03*
X370500Y304500D02*
D03*
X375500Y227000D02*
D03*
X365500Y309500D02*
D03*
X397000Y306500D02*
D03*
X365000Y299500D02*
D03*
X420000Y277000D02*
D03*
X359000Y284000D02*
D03*
X374500Y263500D02*
D03*
X419000Y241500D02*
D03*
X374500Y249500D02*
D03*
Y277000D02*
D03*
Y269000D02*
D03*
X374000Y242500D02*
D03*
X374500Y258000D02*
D03*
X418000Y286500D02*
D03*
D32*
X474500Y216250D02*
D03*
X532000Y217000D02*
D03*
D33*
X474500Y225500D02*
D03*
X532000Y226250D02*
D03*
M02*
