G04 Layer_Color=32896*
%FSLAX25Y25*%
%MOIN*%
G70*
G01*
G75*
%ADD34C,0.00787*%
D34*
X361488Y221850D02*
X372512D01*
Y228150D01*
X361488D02*
X372512D01*
X361488Y221850D02*
Y228150D01*
X408488Y242850D02*
Y249150D01*
X419512D01*
Y242850D02*
Y249150D01*
X408488Y242850D02*
X419512D01*
X410350Y277488D02*
X416650D01*
X410350D02*
Y288512D01*
X416650D01*
Y277488D02*
Y288512D01*
X384012Y299350D02*
Y305650D01*
X372988Y299350D02*
X384012D01*
X372988D02*
Y305650D01*
X384012D01*
X387012Y275850D02*
Y282150D01*
X375988Y275850D02*
X387012D01*
X375988D02*
Y282150D01*
X387012D01*
X386512Y247350D02*
Y253650D01*
X375488Y247350D02*
X386512D01*
X375488D02*
Y253650D01*
X386512D01*
Y256850D02*
Y263150D01*
X375488Y256850D02*
X386512D01*
X375488D02*
Y263150D01*
X386512D01*
Y266850D02*
Y273150D01*
X375488Y266850D02*
X386512D01*
X375488D02*
Y273150D01*
X386512D01*
X387012Y238350D02*
Y244650D01*
X375988Y238350D02*
X387012D01*
X375988D02*
Y244650D01*
X387012D01*
X467906Y209463D02*
X481095D01*
X467906D02*
Y228656D01*
X481095D01*
Y209463D02*
Y228656D01*
X525406Y210213D02*
X538594D01*
X525406D02*
Y229405D01*
X538594D01*
Y210213D02*
Y229405D01*
X368376Y234280D02*
X369032Y234936D01*
X370344D01*
X371000Y234280D01*
Y231656D01*
X370344Y231000D01*
X369032D01*
X368376Y231656D01*
X367064Y231000D02*
X365752D01*
X366408D01*
Y234936D01*
X367064Y234280D01*
X363785D02*
X363128Y234936D01*
X361817D01*
X361161Y234280D01*
Y233624D01*
X361817Y232968D01*
X361161Y232312D01*
Y231656D01*
X361817Y231000D01*
X363128D01*
X363785Y231656D01*
Y232312D01*
X363128Y232968D01*
X363785Y233624D01*
Y234280D01*
X363128Y232968D02*
X361817D01*
X395376Y252280D02*
X396032Y252936D01*
X397344D01*
X398000Y252280D01*
Y249656D01*
X397344Y249000D01*
X396032D01*
X395376Y249656D01*
X394064Y249000D02*
X392752D01*
X393408D01*
Y252936D01*
X394064Y252280D01*
X390785Y252936D02*
X388161D01*
Y252280D01*
X390785Y249656D01*
Y249000D01*
X536500Y235436D02*
Y231500D01*
X534532D01*
X533876Y232156D01*
Y234780D01*
X534532Y235436D01*
X536500D01*
X532564D02*
X529940D01*
Y234780D01*
X532564Y232156D01*
Y231500D01*
X478500Y234186D02*
Y230250D01*
X476532D01*
X475876Y230906D01*
Y233530D01*
X476532Y234186D01*
X478500D01*
X471940D02*
X473252Y233530D01*
X474564Y232218D01*
Y230906D01*
X473908Y230250D01*
X472596D01*
X471940Y230906D01*
Y231562D01*
X472596Y232218D01*
X474564D01*
X395876Y261280D02*
X396532Y261936D01*
X397844D01*
X398500Y261280D01*
Y258656D01*
X397844Y258000D01*
X396532D01*
X395876Y258656D01*
X394564Y258000D02*
X393252D01*
X393908D01*
Y261936D01*
X394564Y261280D01*
X388661Y261936D02*
X389973Y261280D01*
X391284Y259968D01*
Y258656D01*
X390629Y258000D01*
X389317D01*
X388661Y258656D01*
Y259312D01*
X389317Y259968D01*
X391284D01*
X393876Y304280D02*
X394532Y304936D01*
X395844D01*
X396500Y304280D01*
Y301656D01*
X395844Y301000D01*
X394532D01*
X393876Y301656D01*
X392564Y301000D02*
X391252D01*
X391908D01*
Y304936D01*
X392564Y304280D01*
X386661Y304936D02*
X389284D01*
Y302968D01*
X387973Y303624D01*
X387317D01*
X386661Y302968D01*
Y301656D01*
X387317Y301000D01*
X388629D01*
X389284Y301656D01*
X395376Y271280D02*
X396032Y271936D01*
X397344D01*
X398000Y271280D01*
Y268656D01*
X397344Y268000D01*
X396032D01*
X395376Y268656D01*
X394064Y268000D02*
X392752D01*
X393408D01*
Y271936D01*
X394064Y271280D01*
X388817Y268000D02*
Y271936D01*
X390785Y269968D01*
X388161D01*
X397876Y280280D02*
X398532Y280936D01*
X399844D01*
X400500Y280280D01*
Y277656D01*
X399844Y277000D01*
X398532D01*
X397876Y277656D01*
X396564Y277000D02*
X395252D01*
X395908D01*
Y280936D01*
X396564Y280280D01*
X393285D02*
X392629Y280936D01*
X391317D01*
X390661Y280280D01*
Y279624D01*
X391317Y278968D01*
X391973D01*
X391317D01*
X390661Y278312D01*
Y277656D01*
X391317Y277000D01*
X392629D01*
X393285Y277656D01*
X393876Y243280D02*
X394532Y243936D01*
X395844D01*
X396500Y243280D01*
Y240656D01*
X395844Y240000D01*
X394532D01*
X393876Y240656D01*
X392564D02*
X391908Y240000D01*
X390596D01*
X389940Y240656D01*
Y243280D01*
X390596Y243936D01*
X391908D01*
X392564Y243280D01*
Y242624D01*
X391908Y241968D01*
X389940D01*
X414780Y270624D02*
X415436Y269968D01*
Y268656D01*
X414780Y268000D01*
X412156D01*
X411500Y268656D01*
Y269968D01*
X412156Y270624D01*
X414780Y271936D02*
X415436Y272592D01*
Y273904D01*
X414780Y274560D01*
X414124D01*
X413468Y273904D01*
X412812Y274560D01*
X412156D01*
X411500Y273904D01*
Y272592D01*
X412156Y271936D01*
X412812D01*
X413468Y272592D01*
X414124Y271936D01*
X414780D01*
X413468Y272592D02*
Y273904D01*
X426376Y247280D02*
X427032Y247936D01*
X428344D01*
X429000Y247280D01*
Y244656D01*
X428344Y244000D01*
X427032D01*
X426376Y244656D01*
X425064Y247936D02*
X422440D01*
Y247280D01*
X425064Y244656D01*
Y244000D01*
M02*
