M48
;Layer_Color=9474304
;FILE_FORMAT=2:5
INCH,LZ
;TYPE=PLATED
T1F00S00C0.01181
T2F00S00C0.01968
T3F00S00C0.04000
T4F00S00C0.04016
T5F00S00C0.04528
T6F00S00C0.11811
%
T01
X04705Y0236
X047Y02525
X04705Y0263
X04865Y0261
X0487Y02725
X0485Y02805
X0473Y0282
X05015Y02835
X05115Y02855
X05195Y02925
X05065Y03015
X04995Y02975
X0493Y02935
X046Y02895
X04485Y03015
X04515Y0306
X04375
X04335Y029
X0427Y0293
X0418Y02865
X042Y0277
X0405Y0268
X0411Y0258
X0419Y02415
X04325Y02335
X04405Y023
Y02375
X043715Y02525
X04445Y02555
X0455Y0264
X04625Y0257
X04485Y02745
X0402Y0286
X03805Y0283
X03745Y0286
Y0277
X03735Y0273
X03745Y0269
Y02635
Y0258
X0378Y0255
X03745Y02495
X0374Y02425
X037Y0237
X03755Y0227
X035Y02305
X03425Y02165
X03575Y02515
X0361Y02805
X0359Y0284
X0352Y0279
X03475Y02965
X0365Y02995
X0364Y0292
X03705Y03045
X03655Y03095
X0397Y03065
X0401Y0311
X04085Y03055
X03885Y0269
X0389Y02615
X03885Y02435
X04065Y0223
Y0215
X04305Y0217
X0434Y0223
X04365Y02115
X0457045Y0214006
X0416Y0315
X04065Y0319
X0395Y03195
X04Y0325
X03775Y03255
X0362Y0315
T02
X03425Y0256394
Y0275606
T03
X0428Y03175
Y03275
X0438
Y03175
X0448
X0458
Y03275
X0448
X0468
Y03175
X0478
X0488
Y03275
X0498
Y03175
X0508
X0518
Y03275
X0508
X0478
T04
X04925Y0254878
Y0266689
Y02785
X0504311
Y0266689
Y0254878
T05
X04935Y02295
X05035
X05135
T06
X0521319Y0266689
M30
