G04 Layer_Color=2752767*
%FSLAX25Y25*%
%MOIN*%
G70*
G01*
G75*
%ADD54C,0.00200*%
%ADD55C,0.00267*%
D54*
X427200Y326700D02*
Y328300D01*
X428800D01*
Y326700D01*
X427200D01*
Y316700D02*
Y318300D01*
X428800D01*
Y316700D01*
X427200D01*
X437200D02*
Y318300D01*
X438800D01*
Y316700D01*
X437200D01*
Y326700D02*
Y328300D01*
X438800D01*
Y326700D01*
X437200D01*
X457200D02*
Y328300D01*
X458800D01*
Y326700D01*
X457200D01*
Y316700D02*
Y318300D01*
X458800D01*
Y316700D01*
X457200D01*
X447200D02*
Y318300D01*
X448800D01*
Y316700D01*
X447200D01*
Y326700D02*
Y328300D01*
X448800D01*
Y326700D01*
X447200D01*
X487200D02*
Y328300D01*
X488800D01*
Y326700D01*
X487200D01*
Y316700D02*
Y318300D01*
X488800D01*
Y316700D01*
X487200D01*
X497200D02*
Y318300D01*
X498800D01*
Y316700D01*
X497200D01*
Y326700D02*
Y328300D01*
X498800D01*
Y326700D01*
X497200D01*
X477200D02*
Y328300D01*
X478800D01*
Y326700D01*
X477200D01*
Y316700D02*
Y318300D01*
X478800D01*
Y316700D01*
X477200D01*
X467200D02*
Y318300D01*
X468800D01*
Y316700D01*
X467200D01*
Y326700D02*
Y328300D01*
X468800D01*
Y326700D01*
X467200D01*
X517200D02*
Y328300D01*
X518800D01*
Y326700D01*
X517200D01*
Y316700D02*
Y318300D01*
X518800D01*
Y316700D01*
X517200D01*
X507200D02*
Y318300D01*
X508800D01*
Y316700D01*
X507200D01*
Y326700D02*
Y328300D01*
X508800D01*
Y326700D01*
X507200D01*
X521319Y265889D02*
X520519Y267489D01*
X522119D01*
X521319Y265889D01*
X504311D02*
X504711Y266289D01*
X505111D01*
X504711Y266689D01*
X505111Y267089D01*
X504711D01*
X504311Y267489D01*
X503911Y267089D01*
X503511D01*
X503911Y266689D01*
X503511Y266289D01*
X503911D01*
X504311Y265889D01*
Y277700D02*
X504711Y278100D01*
X505111D01*
X504711Y278500D01*
X505111Y278900D01*
X504711D01*
X504311Y279300D01*
X503911Y278900D01*
X503511D01*
X503911Y278500D01*
X503511Y278100D01*
X503911D01*
X504311Y277700D01*
Y254078D02*
X504711Y254478D01*
X505111D01*
X504711Y254878D01*
X505111Y255278D01*
X504711D01*
X504311Y255678D01*
X503911Y255278D01*
X503511D01*
X503911Y254878D01*
X503511Y254478D01*
X503911D01*
X504311Y254078D01*
X492500D02*
X492900Y254478D01*
X493300D01*
X492900Y254878D01*
X493300Y255278D01*
X492900D01*
X492500Y255678D01*
X492100Y255278D01*
X491700D01*
X492100Y254878D01*
X491700Y254478D01*
X492100D01*
X492500Y254078D01*
Y265889D02*
X492900Y266289D01*
X493300D01*
X492900Y266689D01*
X493300Y267089D01*
X492900D01*
X492500Y267489D01*
X492100Y267089D01*
X491700D01*
X492100Y266689D01*
X491700Y266289D01*
X492100D01*
X492500Y265889D01*
Y277700D02*
X492900Y278100D01*
X493300D01*
X492900Y278500D01*
X493300Y278900D01*
X492900D01*
X492500Y279300D01*
X492100Y278900D01*
X491700D01*
X492100Y278500D01*
X491700Y278100D01*
X492100D01*
X492500Y277700D01*
X492700Y228700D02*
X493100Y229500D01*
X492700Y230300D01*
X493500Y229900D01*
X494300Y230300D01*
X493900Y229500D01*
X494300Y228700D01*
X493500Y229100D01*
X492700Y228700D01*
X502700D02*
X503100Y229500D01*
X502700Y230300D01*
X503500Y229900D01*
X504300Y230300D01*
X503900Y229500D01*
X504300Y228700D01*
X503500Y229100D01*
X502700Y228700D01*
X512700D02*
X513100Y229500D01*
X512700Y230300D01*
X513500Y229900D01*
X514300Y230300D01*
X513900Y229500D01*
X514300Y228700D01*
X513500Y229100D01*
X512700Y228700D01*
X436100Y211100D02*
Y210700D01*
X436900D01*
Y211100D01*
X437300D01*
Y211900D01*
X436900D01*
Y212300D01*
X436100D01*
Y211900D01*
X435700D01*
Y211100D01*
X436100D01*
X430100Y216600D02*
Y216200D01*
X430900D01*
Y216600D01*
X431300D01*
Y217400D01*
X430900D01*
Y217800D01*
X430100D01*
Y217400D01*
X429700D01*
Y216600D01*
X430100D01*
X410600Y257600D02*
Y257200D01*
X411400D01*
Y257600D01*
X411800D01*
Y258400D01*
X411400D01*
Y258800D01*
X410600D01*
Y258400D01*
X410200D01*
Y257600D01*
X410600D01*
X369600Y236600D02*
Y236200D01*
X370400D01*
Y236600D01*
X370800D01*
Y237400D01*
X370400D01*
Y237800D01*
X369600D01*
Y237400D01*
X369200D01*
Y236600D01*
X369600D01*
X484600Y280100D02*
Y279700D01*
X485400D01*
Y280100D01*
X485800D01*
Y280900D01*
X485400D01*
Y281300D01*
X484600D01*
Y280900D01*
X484200D01*
Y280100D01*
X484600D01*
X470100Y262600D02*
Y262200D01*
X470900D01*
Y262600D01*
X471300D01*
Y263400D01*
X470900D01*
Y263800D01*
X470100D01*
Y263400D01*
X469700D01*
Y262600D01*
X470100D01*
X454600Y263600D02*
Y263200D01*
X455400D01*
Y263600D01*
X455800D01*
Y264400D01*
X455400D01*
Y264800D01*
X454600D01*
Y264400D01*
X454200D01*
Y263600D01*
X454600D01*
X404600Y267600D02*
Y267200D01*
X405400D01*
Y267600D01*
X405800D01*
Y268400D01*
X405400D01*
Y268800D01*
X404600D01*
Y268400D01*
X404200D01*
Y267600D01*
X404600D01*
X374100Y285600D02*
Y285200D01*
X374900D01*
Y285600D01*
X375300D01*
Y286400D01*
X374900D01*
Y286800D01*
X374100D01*
Y286400D01*
X373700D01*
Y285600D01*
X374100D01*
X363600Y291600D02*
Y291200D01*
X364400D01*
Y291600D01*
X364800D01*
Y292400D01*
X364400D01*
Y292800D01*
X363600D01*
Y292400D01*
X363200D01*
Y291600D01*
X363600D01*
X472600Y281600D02*
Y281200D01*
X473400D01*
Y281600D01*
X473800D01*
Y282400D01*
X473400D01*
Y282800D01*
X472600D01*
Y282400D01*
X472200D01*
Y281600D01*
X472600D01*
X448100Y301100D02*
Y300700D01*
X448900D01*
Y301100D01*
X449300D01*
Y301900D01*
X448900D01*
Y302300D01*
X448100D01*
Y301900D01*
X447700D01*
Y301100D01*
X448100D01*
X351600Y278600D02*
Y278200D01*
X352400D01*
Y278600D01*
X352800D01*
Y279400D01*
X352400D01*
Y279800D01*
X351600D01*
Y279400D01*
X351200D01*
Y278600D01*
X351600D01*
X401600Y285600D02*
Y285200D01*
X402400D01*
Y285600D01*
X402800D01*
Y286400D01*
X402400D01*
Y286800D01*
X401600D01*
Y286400D01*
X401200D01*
Y285600D01*
X401600D01*
X399600Y324600D02*
Y324200D01*
X400400D01*
Y324600D01*
X400800D01*
Y325400D01*
X400400D01*
Y325800D01*
X399600D01*
Y325400D01*
X399200D01*
Y324600D01*
X399600D01*
X394600Y319100D02*
Y318700D01*
X395400D01*
Y319100D01*
X395800D01*
Y319900D01*
X395400D01*
Y320300D01*
X394600D01*
Y319900D01*
X394200D01*
Y319100D01*
X394600D01*
X377600Y254600D02*
Y254200D01*
X378400D01*
Y254600D01*
X378800D01*
Y255400D01*
X378400D01*
Y255800D01*
X377600D01*
Y255400D01*
X377200D01*
Y254600D01*
X377600D01*
X388100Y268600D02*
Y268200D01*
X388900D01*
Y268600D01*
X389300D01*
Y269400D01*
X388900D01*
Y269800D01*
X388100D01*
Y269400D01*
X387700D01*
Y268600D01*
X388100D01*
X388600Y261100D02*
Y260700D01*
X389400D01*
Y261100D01*
X389800D01*
Y261900D01*
X389400D01*
Y262300D01*
X388600D01*
Y261900D01*
X388200D01*
Y261100D01*
X388600D01*
X388100Y243100D02*
Y242700D01*
X388900D01*
Y243100D01*
X389300D01*
Y243900D01*
X388900D01*
Y244300D01*
X388100D01*
Y243900D01*
X387700D01*
Y243100D01*
X388100D01*
X486100Y260600D02*
Y260200D01*
X486900D01*
Y260600D01*
X487300D01*
Y261400D01*
X486900D01*
Y261800D01*
X486100D01*
Y261400D01*
X485700D01*
Y260600D01*
X486100D01*
X486600Y272100D02*
Y271700D01*
X487400D01*
Y272100D01*
X487800D01*
Y272900D01*
X487400D01*
Y273300D01*
X486600D01*
Y272900D01*
X486200D01*
Y272100D01*
X486600D01*
X501100Y283100D02*
Y282700D01*
X501900D01*
Y283100D01*
X502300D01*
Y283900D01*
X501900D01*
Y284300D01*
X501100D01*
Y283900D01*
X500700D01*
Y283100D01*
X501100D01*
X499100Y297100D02*
Y296700D01*
X499900D01*
Y297100D01*
X500300D01*
Y297900D01*
X499900D01*
Y298300D01*
X499100D01*
Y297900D01*
X498700D01*
Y297100D01*
X499100D01*
X470100Y235600D02*
Y235200D01*
X470900D01*
Y235600D01*
X471300D01*
Y236400D01*
X470900D01*
Y236800D01*
X470100D01*
Y236400D01*
X469700D01*
Y235600D01*
X470100D01*
X469600Y252100D02*
Y251700D01*
X470400D01*
Y252100D01*
X470800D01*
Y252900D01*
X470400D01*
Y253300D01*
X469600D01*
Y252900D01*
X469200D01*
Y252100D01*
X469600D01*
X462100Y256600D02*
Y256200D01*
X462900D01*
Y256600D01*
X463300D01*
Y257400D01*
X462900D01*
Y257800D01*
X462100D01*
Y257400D01*
X461700D01*
Y256600D01*
X462100D01*
X440100Y229600D02*
Y229200D01*
X440900D01*
Y229600D01*
X441300D01*
Y230400D01*
X440900D01*
Y230800D01*
X440100D01*
Y230400D01*
X439700D01*
Y229600D01*
X440100D01*
Y237100D02*
Y236700D01*
X440900D01*
Y237100D01*
X441300D01*
Y237900D01*
X440900D01*
Y238300D01*
X440100D01*
Y237900D01*
X439700D01*
Y237100D01*
X440100D01*
X433600Y222600D02*
Y222200D01*
X434400D01*
Y222600D01*
X434800D01*
Y223400D01*
X434400D01*
Y223800D01*
X433600D01*
Y223400D01*
X433200D01*
Y222600D01*
X433600D01*
X432100Y233100D02*
Y232700D01*
X432900D01*
Y233100D01*
X433300D01*
Y233900D01*
X432900D01*
Y234300D01*
X432100D01*
Y233900D01*
X431700D01*
Y233100D01*
X432100D01*
X456645Y213606D02*
Y213206D01*
X457445D01*
Y213606D01*
X457845D01*
Y214406D01*
X457445D01*
Y214806D01*
X456645D01*
Y214406D01*
X456245D01*
Y213606D01*
X456645D01*
X342100Y216100D02*
Y215700D01*
X342900D01*
Y216100D01*
X343300D01*
Y216900D01*
X342900D01*
Y217300D01*
X342100D01*
Y216900D01*
X341700D01*
Y216100D01*
X342100D01*
X360600Y280100D02*
Y279700D01*
X361400D01*
Y280100D01*
X361800D01*
Y280900D01*
X361400D01*
Y281300D01*
X360600D01*
Y280900D01*
X360200D01*
Y280100D01*
X360600D01*
X347100Y296100D02*
Y295700D01*
X347900D01*
Y296100D01*
X348300D01*
Y296900D01*
X347900D01*
Y297300D01*
X347100D01*
Y296900D01*
X346700D01*
Y296100D01*
X347100D01*
X377100Y325100D02*
Y324700D01*
X377900D01*
Y325100D01*
X378300D01*
Y325900D01*
X377900D01*
Y326300D01*
X377100D01*
Y325900D01*
X376700D01*
Y325100D01*
X377100D01*
X361600Y314600D02*
Y314200D01*
X362400D01*
Y314600D01*
X362800D01*
Y315400D01*
X362400D01*
Y315800D01*
X361600D01*
Y315400D01*
X361200D01*
Y314600D01*
X361600D01*
X406100Y214600D02*
Y214200D01*
X406900D01*
Y214600D01*
X407300D01*
Y215400D01*
X406900D01*
Y215800D01*
X406100D01*
Y215400D01*
X405700D01*
Y214600D01*
X406100D01*
Y222600D02*
Y222200D01*
X406900D01*
Y222600D01*
X407300D01*
Y223400D01*
X406900D01*
Y223800D01*
X406100D01*
Y223400D01*
X405700D01*
Y222600D01*
X406100D01*
X349600Y230100D02*
Y229700D01*
X350400D01*
Y230100D01*
X350800D01*
Y230900D01*
X350400D01*
Y231300D01*
X349600D01*
Y230900D01*
X349200D01*
Y230100D01*
X349600D01*
X357100Y251100D02*
Y250700D01*
X357900D01*
Y251100D01*
X358300D01*
Y251900D01*
X357900D01*
Y252300D01*
X357100D01*
Y251900D01*
X356700D01*
Y251100D01*
X357100D01*
X373100Y272600D02*
Y272200D01*
X373900D01*
Y272600D01*
X374300D01*
Y273400D01*
X373900D01*
Y273800D01*
X373100D01*
Y273400D01*
X372700D01*
Y272600D01*
X373100D01*
X380100Y282600D02*
Y282200D01*
X380900D01*
Y282600D01*
X381300D01*
Y283400D01*
X380900D01*
Y283800D01*
X380100D01*
Y283400D01*
X379700D01*
Y282600D01*
X380100D01*
X511100Y285100D02*
Y284700D01*
X511900D01*
Y285100D01*
X512300D01*
Y285900D01*
X511900D01*
Y286300D01*
X511100D01*
Y285900D01*
X510700D01*
Y285100D01*
X511100D01*
X519100Y292100D02*
Y291700D01*
X519900D01*
Y292100D01*
X520300D01*
Y292900D01*
X519900D01*
Y293300D01*
X519100D01*
Y292900D01*
X518700D01*
Y292100D01*
X519100D01*
X506100Y301100D02*
Y300700D01*
X506900D01*
Y301100D01*
X507300D01*
Y301900D01*
X506900D01*
Y302300D01*
X506100D01*
Y301900D01*
X505700D01*
Y301100D01*
X506100D01*
X492600Y293100D02*
Y292700D01*
X493400D01*
Y293100D01*
X493800D01*
Y293900D01*
X493400D01*
Y294300D01*
X492600D01*
Y293900D01*
X492200D01*
Y293100D01*
X492600D01*
X459600Y289100D02*
Y288700D01*
X460400D01*
Y289100D01*
X460800D01*
Y289900D01*
X460400D01*
Y290300D01*
X459600D01*
Y289900D01*
X459200D01*
Y289100D01*
X459600D01*
X448100Y274100D02*
Y273700D01*
X448900D01*
Y274100D01*
X449300D01*
Y274900D01*
X448900D01*
Y275300D01*
X448100D01*
Y274900D01*
X447700D01*
Y274100D01*
X448100D01*
X451100Y305600D02*
Y305200D01*
X451900D01*
Y305600D01*
X452300D01*
Y306400D01*
X451900D01*
Y306800D01*
X451100D01*
Y306400D01*
X450700D01*
Y305600D01*
X451100D01*
X433100Y289600D02*
Y289200D01*
X433900D01*
Y289600D01*
X434300D01*
Y290400D01*
X433900D01*
Y290800D01*
X433100D01*
Y290400D01*
X432700D01*
Y289600D01*
X433100D01*
X426600Y292600D02*
Y292200D01*
X427400D01*
Y292600D01*
X427800D01*
Y293400D01*
X427400D01*
Y293800D01*
X426600D01*
Y293400D01*
X426200D01*
Y292600D01*
X426600D01*
X437100Y305600D02*
Y305200D01*
X437900D01*
Y305600D01*
X438300D01*
Y306400D01*
X437900D01*
Y306800D01*
X437100D01*
Y306400D01*
X436700D01*
Y305600D01*
X437100D01*
X408100Y305100D02*
Y304700D01*
X408900D01*
Y305100D01*
X409300D01*
Y305900D01*
X408900D01*
Y306300D01*
X408100D01*
Y305900D01*
X407700D01*
Y305100D01*
X408100D01*
X415600Y314600D02*
Y314200D01*
X416400D01*
Y314600D01*
X416800D01*
Y315400D01*
X416400D01*
Y315800D01*
X415600D01*
Y315400D01*
X415200D01*
Y314600D01*
X415600D01*
X406100Y318600D02*
Y318200D01*
X406900D01*
Y318600D01*
X407300D01*
Y319400D01*
X406900D01*
Y319800D01*
X406100D01*
Y319400D01*
X405700D01*
Y318600D01*
X406100D01*
X400600Y310600D02*
Y310200D01*
X401400D01*
Y310600D01*
X401800D01*
Y311400D01*
X401400D01*
Y311800D01*
X400600D01*
Y311400D01*
X400200D01*
Y310600D01*
X400600D01*
X436750Y252100D02*
Y251700D01*
X437550D01*
Y252100D01*
X437950D01*
Y252900D01*
X437550D01*
Y253300D01*
X436750D01*
Y252900D01*
X436350D01*
Y252100D01*
X436750D01*
X444100Y255100D02*
Y254700D01*
X444900D01*
Y255100D01*
X445300D01*
Y255900D01*
X444900D01*
Y256300D01*
X444100D01*
Y255900D01*
X443700D01*
Y255100D01*
X444100D01*
X370100Y304100D02*
Y303700D01*
X370900D01*
Y304100D01*
X371300D01*
Y304900D01*
X370900D01*
Y305300D01*
X370100D01*
Y304900D01*
X369700D01*
Y304100D01*
X370100D01*
X375100Y226600D02*
Y226200D01*
X375900D01*
Y226600D01*
X376300D01*
Y227400D01*
X375900D01*
Y227800D01*
X375100D01*
Y227400D01*
X374700D01*
Y226600D01*
X375100D01*
X365100Y309100D02*
Y308700D01*
X365900D01*
Y309100D01*
X366300D01*
Y309900D01*
X365900D01*
Y310300D01*
X365100D01*
Y309900D01*
X364700D01*
Y309100D01*
X365100D01*
X396600Y306100D02*
Y305700D01*
X397400D01*
Y306100D01*
X397800D01*
Y306900D01*
X397400D01*
Y307300D01*
X396600D01*
Y306900D01*
X396200D01*
Y306100D01*
X396600D01*
X364600Y299100D02*
Y298700D01*
X365400D01*
Y299100D01*
X365800D01*
Y299900D01*
X365400D01*
Y300300D01*
X364600D01*
Y299900D01*
X364200D01*
Y299100D01*
X364600D01*
X419600Y276600D02*
Y276200D01*
X420400D01*
Y276600D01*
X420800D01*
Y277400D01*
X420400D01*
Y277800D01*
X419600D01*
Y277400D01*
X419200D01*
Y276600D01*
X419600D01*
X358600Y283600D02*
Y283200D01*
X359400D01*
Y283600D01*
X359800D01*
Y284400D01*
X359400D01*
Y284800D01*
X358600D01*
Y284400D01*
X358200D01*
Y283600D01*
X358600D01*
X374100Y263100D02*
Y262700D01*
X374900D01*
Y263100D01*
X375300D01*
Y263900D01*
X374900D01*
Y264300D01*
X374100D01*
Y263900D01*
X373700D01*
Y263100D01*
X374100D01*
X418600Y241100D02*
Y240700D01*
X419400D01*
Y241100D01*
X419800D01*
Y241900D01*
X419400D01*
Y242300D01*
X418600D01*
Y241900D01*
X418200D01*
Y241100D01*
X418600D01*
X374100Y249100D02*
Y248700D01*
X374900D01*
Y249100D01*
X375300D01*
Y249900D01*
X374900D01*
Y250300D01*
X374100D01*
Y249900D01*
X373700D01*
Y249100D01*
X374100D01*
Y276600D02*
Y276200D01*
X374900D01*
Y276600D01*
X375300D01*
Y277400D01*
X374900D01*
Y277800D01*
X374100D01*
Y277400D01*
X373700D01*
Y276600D01*
X374100D01*
Y268600D02*
Y268200D01*
X374900D01*
Y268600D01*
X375300D01*
Y269400D01*
X374900D01*
Y269800D01*
X374100D01*
Y269400D01*
X373700D01*
Y268600D01*
X374100D01*
X373600Y242100D02*
Y241700D01*
X374400D01*
Y242100D01*
X374800D01*
Y242900D01*
X374400D01*
Y243300D01*
X373600D01*
Y242900D01*
X373200D01*
Y242100D01*
X373600D01*
X374100Y257600D02*
Y257200D01*
X374900D01*
Y257600D01*
X375300D01*
Y258400D01*
X374900D01*
Y258800D01*
X374100D01*
Y258400D01*
X373700D01*
Y257600D01*
X374100D01*
X417600Y286100D02*
Y285700D01*
X418400D01*
Y286100D01*
X418800D01*
Y286900D01*
X418400D01*
Y287300D01*
X417600D01*
Y286900D01*
X417200D01*
Y286100D01*
X417600D01*
D55*
X343300Y256394D02*
G03*
X343300Y256394I-800J0D01*
G01*
Y275606D02*
G03*
X343300Y275606I-800J0D01*
G01*
M02*
